<svg x="0px" y="0px" width="55px" height="55px" viewBox="0 0 23.59 31.22" xml:space="preserve">
	<style type="text/css">
		.st0 {
			fill: transparent;
		}
	</style>
	<circle class="st0" cx="9.6" cy="9.6" r="8.18" />
	<path d="M23.59,29.73L15.72,17c2.13-1.76,3.49-4.42,3.49-7.4C19.2,4.31,14.9,0,9.6,0S0,4.31,0,9.6s4.31,9.6,9.6,9.6
	c1.31,0,2.55-0.26,3.69-0.74l7.89,12.76L23.59,29.73z M2.83,9.6c0-3.73,3.04-6.77,6.77-6.77s6.77,3.04,6.77,6.77
	s-3.04,6.77-6.77,6.77S2.83,13.33,2.83,9.6z" fill="#000" />
</svg>