<?xml version="1.0" encoding="utf-8"?>
<!-- Generator: Adobe Illustrator 28.0.0, SVG Export Plug-In . SVG Version: 6.00 Build 0)  -->
<svg version="1.1" xmlns="http://www.w3.org/2000/svg" xmlns:xlink="http://www.w3.org/1999/xlink" x="0px" y="0px"
	 viewBox="0 0 595.56 842.17" style="enable-background:new 0 0 595.56 842.17;" xml:space="preserve">
<style type="text/css">
	.st0{fill:#FFFFFF;}
	.st1{display:none;fill:none;stroke:#000000;stroke-width:0.2835;stroke-miterlimit:10;}
	.st2{fill-rule:evenodd;clip-rule:evenodd;fill:#DFAC12;}
	.st3{fill:#00814A;}
	.st4{font-family:'ErasITC-Medium';}
	.st5{font-size:10.8368px;}
	.st6{font-family:'ErasITC-Demi';}
</style>
<g id="Capa_7">
	<rect class="st0" width="595.56" height="842.17"/>
</g>
<g id="Capa_2">
	<g id="LOGO_DATOS">
		<g id="TEX">
		</g>
	</g>
	<g id="LOGO_AUX">
	</g>
	<g id="LOGO_ECO">
	</g>
	<rect x="0.14" y="0.14" class="st1" width="595.28" height="841.89"/>
	<path class="st2" d="M295.56,268.62c-4.36-1.42-4.83-1.3-7.07-4.71C290.73,265.2,292.38,266.14,295.56,268.62z M320.31,274.51
		c2.59,1.41,1.18,1.18,3.54,0v3.54h-3.54V274.51z M174.17,276.86v3.54c-3.18-1.89-5.07-3.18-9.43-3.54
		C166.5,276.98,170.51,277.34,174.17,276.86z M356.85,279.22c3.06,3.07,1.65,0.24,0,3.54V279.22z M155.31,289.83
		c-1.77,0.35-3.06,0.47-4.71,0C151.65,289.83,153.42,289.95,155.31,289.83z M190.67,294.54c-4.71,1.3-6.6,0.47-9.43,2.36
		C183.71,296.19,189.61,294.78,190.67,294.54z M346.24,295.72c0,0,2.71,2,8.25,5.89c-5.3-3.77-7.07-4.01-11.79-5.89
		C344.12,295.96,345.65,295.72,346.24,295.72z M202.45,295.72c0.71,0,1.18,3.18,7.07,3.54c-5.3,1.06-5.42,1.18-10.61,1.18
		c0,0-0.83-1.77-5.89-3.54C197.5,296.55,202.45,295.72,202.45,295.72z M414.6,296.9c5.78,2.24,6.72,2.48,8.25,7.07
		C418.84,299.14,418.6,300.44,414.6,296.9z M224.84,301.61c-0.82-0.12-1.65-0.24-2.36-1.18L224.84,301.61z M218.95,301.61v1.18
		h-3.54v-1.18H218.95z M248.42,301.61c0.24,0,0.94,5.3,5.89,3.54c3.89,5.89,3.3,2.47,5.89,2.36c-1.06,0.24-6.84,1.18-8.25,1.18
		l-14.14-7.07C240.76,301.38,242.41,301.61,248.42,301.61z M202.45,302.79c-5.78,3.3-7.31,1.06-12.96,0
		C193.85,302.79,196.56,304.56,202.45,302.79z M339.17,302.79l-1.18,2.36c0-0.35-0.94-0.12-1.18,0L339.17,302.79z M411.06,302.79
		v3.54c-2.24-1.06,0.12,1.88-4.71-3.54C412.12,308.57,408.59,303.85,411.06,302.79z M82.24,309.86c0,0,19.92,6.36,24.75,8.25
		c-1.77-0.12-6.6,0-9.43,0c-0.12,0-3.3-4.71-12.96-4.71c-1.06,0-10.37-4.95-17.68-5.89C80,307.51,70.57,309.86,82.24,309.86z
		 M65.74,312.22c6.25,1.65,2.95,2.12,8.25,0v3.54c-7.19-1.53-3.18-1.65-8.25,0V312.22z M352.13,313.4c0.35,0.12,3.77,0.94,7.07,5.89
		c-0.94,0-1.65,0.71-2.36,1.18c0-0.24-0.24-2.12-2.36-3.54c-2.12-0.35-0.94,0.59-2.36,1.18
		C352.49,317.17,353.19,315.64,352.13,313.4z M130.56,319.29c0.24,0-3.42,2.71,12.96,5.89c-9.66,0.59-10.49-4.71-28.29-5.89H130.56z
		 M99.91,320.47c-1.53,2.59-1.77,0.59,0,3.54c-6.84-1.53-2.47-1.88-8.25,0v-3.54C94.85,320.82,96.73,320.94,99.91,320.47z
		 M454.67,328.72h-4.71c2.22-0.79,2.4-1.14,2.37-1.16C452.29,327.54,451.94,328,454.67,328.72z M89.31,328.72
		c0,0,0.83,2.36,9.43,3.54H95.2c-3.89-0.71-12.73-3.3-14.14-3.54C85.65,328.84,86.48,328.72,89.31,328.72z M285.84,317.02
		c9.19,4.6,11.08,2.47,14.14,8.25c-3.54-3.06-7.07-3.54-11.79-3.54l-7.07-4.71H285.84z M116.41,335.79c0,0,1.41,2.12,4.71,4.71
		c-6.72,0-11.43-2.59-15.32-3.54C112.53,336.5,116.41,335.79,116.41,335.79z M247.24,341.68h3.54l-2.36,1.18L247.24,341.68z
		 M255.49,342.86l1.18,2.36c-1.3-0.47-2.83-0.24-3.54,0L255.49,342.86z M307.35,346.4c-3.89-1.65-0.94-0.94-3.54,0
		C304.87,345.81,306.4,345.69,307.35,346.4z M136.45,346.4c5.78,1.88-0.24-1.3,11.79,4.71h-9.43c0,0-1.65-1.06-7.07-4.71H136.45z
		 M282.6,354.65c-2.71-0.59-4.6-0.94-7.07,0C280.24,351.94,276.94,353.23,282.6,354.65z M445.24,352.29l-1.18,2.36
		c0-0.35-0.94-0.12-1.18,0L445.24,352.29z M131.74,357c0.24,0,2.12,4.71,10.61,4.71c1.06,0,1.65,1.53,3.54,2.36h-4.71
		c-5.54-2.83-9.19-4.71-12.96-5.89C130.2,358.18,130.2,357,131.74,357z M446.42,365.25c0,0,16.5,10.61,20.04,17.68
		c-0.59-1.18-0.24-2.24,0-3.54h-3.54c0,0-16.26-13.43-20.04-11.79c-1.18-4.71-0.24-2.12-3.54-5.89
		C446.77,366.67,441.59,365.25,446.42,365.25z M61.02,365.25c3.65,0.35,5.77,0,9.43,0c0,0,9.78,7.07,17.68,7.07
		c0.71,0,1.06,3.54,9.43,3.54c1.65,0,6.6,8.25,20.04,8.25c0,0,15.79,6.13,17.68,8.25v7.07c-4.01-1.42-6.36-3.54-10.61-3.54
		l-25.93-14.14c-7.78,0-23.93-12.96-34.18-12.96c0,0-0.71-0.94-3.54,0V365.25z M507.71,378.22c-2.12-5.54-4.24-8.25-5.89-11.79
		C510.89,373.15,508.18,373.62,507.71,378.22z M469.99,367.61c1.18,0.94,1.89,2,3.54,2.36c-1.77-0.12-3.18-0.12-4.71,0
		L469.99,367.61z M134.09,368.79c0.35,5.42,0.24,5.89-1.18,9.43c-0.59-7.31-0.12-6.13-8.25-8.25
		C127.96,369.85,130.2,370.56,134.09,368.79z M322.67,371.15c-0.71-0.12-2.36-0.24-3.54,0
		C320.55,370.67,321.49,370.67,322.67,371.15z M63.38,371.15c-1.06,0.71-2.47,0.59-3.54,0H63.38z M164.74,371.15h3.54
		c3.54,2.83,6.48,4.12,10.61,5.89h-14.14C164.62,375.74,164.62,373.97,164.74,371.15z M280.24,372.32h3.54
		c3.06,0.24,19.33,5.66,22.39,12.96c-2.59-3.06-4.6-2.24-5.89-5.89c-5.42,0.94-8.25-2.95-15.32-4.71
		C283.89,373.15,282.01,372.68,280.24,372.32z M119.95,374.68c2.71,1.3,3.42,0.83,5.89,0v3.54c-2.12-0.47-3.77-0.59-5.89,0V374.68z
		 M363.07,406.83c3.65,0.47,3.77,0.94,5.89,2.36c-0.12,0-14.61-5.42-18.86-11.79C359.77,403.76,361.42,401.99,363.07,406.83z
		 M487.67,399.43h-3.54l1.18-3.54C485.55,397.43,487.08,398.72,487.67,399.43z M53.95,401.79c-2.16,0.36-2.66,0.6-2.64,0.71
		c0.05,0.23,2.13-0.01-2.08-0.71H53.95z M161.1,403.16l-2.37,14.14c-11.66-11.66-10.26-13.19-11.67-14.14H161.1z M373.35,413.57
		c-0.59-1.53-1.18-2.71-1.18-4.71h1.18V413.57z M502.99,414.75c-0.94-1.41-1.89-2.71-3.54-4.71
		C501.22,411.33,502.28,412.63,502.99,414.75z M63.38,410.04c27.23,16.26,31.35,16.97,34.18,14.14c-14.5-8.6-13.08-5.77-17.68-11.79
		c0,0,25.69,12.96,25.93,12.96c0.24,0,45.04,35.72,45.43,36.71l-18.32,109.43c-0.12,0-18.5-23.57-29.46-23.57c0,0,1.18,0-5.89-4.71
		h-4.71c1.3,2.24,1.41,1.77,2.36,4.71c-1.65-2.59-11.08-8.84-27.11-20.03c9.31,4.36,9.9,7.66,17.68,8.25
		c-1.05-2.08-1.21-2.83-1.64-3.34c-1.17-1.39-4.36-1.07-32.54-20.23c10.49,2,18.86,10.37,18.86,10.61c0,0.47,4.12,1.77,10.61,4.71
		v-3.54c-3.54-2.83-6.01-4.83-8.25-7.07c10.14,6.01,7.19,7.07,11.79,7.07l20.04,15.32c0,0,0-0.83,5.89-2.36
		c-3.65-10.96-6.13-2.83-7.07-11.79h-4.71c0,0-67.65-57.27-68.36-60.1c2-0.24,3.77,0.12,5.89,0c-5.89-12.73-5.07-1.77-11.79-12.96
		h3.54c8.37,6.6,14.5,6.48,38.89,22.39c16.26,10.61,18.15,23.57,33,23.57c1.06,0-0.24,2.24,0,3.54h4.71v-5.89
		c-10.14-11.2-10.61-5.66-10.61-11.79c0-3.3-5.54-5.3-7.07-5.89v-3.54c4.12-4.12,2-0.83,3.54-5.89c-3.18-2.24-4.6-5.89-8.25-5.89
		c0,0-11.67-6.36-14.14-9.43c3.89,1.65,6.36,3.54,10.61,3.54c0,0,27.46,24.87,40.07,22.39c-7.43-12.49-12.96-6.25-12.96-8.25
		c0-2.24-0.12-3.65,0-5.89h-3.54h4.71v-3.54l1.18-2.36c-4.01-0.24-24.87-9.55-28.29-15.32v-3.54c3.65,0.35,5.77,0,9.43,0
		c0,0,13.08,10.61,20.04,10.61c1.77,0,9.08-7.42,16.5,0v-3.54c-0.59-7.19,1.89-7.07-4.71-7.07c0,0-10.25-4.71-12.96-4.71
		c-2.95,0-8.37,6.72-11.79-3.54c-9.43-7.54-9.66-4.83-12.96-4.71c1.3,1.77,2.83,3.42,3.54,5.89c-18.03-12.96-29.7-21.21-33-23.57
		H63.38z M435.81,411.21l-1.18,2.36l-1.18-1.18L435.81,411.21z M508.88,417.11c2.12,1.42,3.65,2.36,5.89,3.54
		c-3.89-1.18-4.6-0.24-5.89,0V417.11z M58.66,426.53h-3.54c-2-1.18-5.3-2.95-8.25-4.71C52.77,422.53,52.77,423.24,58.66,426.53z
		 M519.49,424.18c2.12,3.89,0.24,1.06,0,3.54h3.54C521.73,427.36,520.43,427.48,519.49,424.18z M55.13,431.25
		c0,0,1.06,0.71,7.07,5.89c-2.95-1.77-4.83-3.54-8.25-3.54c-1.3,0-2.24-0.24-3.54,0C52.18,432.78,53.12,431.25,55.13,431.25z
		 M82.24,432.43c0.47,0-2.83,0.83,8.25,7.07h-3.54c-6.01-4.24-11.08-5.54-18.86-7.07H82.24z M498.28,439.5
		c0,0,15.32,12.61,15.32,15.32c0,0,34.18,33.23,34.18,36.53c0,1.53,2.71-0.59,4.71,7.07c0,0-15.09-18.5-15.32-18.86
		c-4.36,3.89-4.71,4.12-4.71,5.89c0,2.24,3.54,3.54,7.07,8.25c-8.13-2.59-30.41-28.52-49.5-40.07c1.89,7.19,7.31,11.08,14.14,16.5
		c-1.65-0.83-16.5-10.49-16.5-14.14c0-0.83-3.18-0.35-7.07-4.71v-3.54c3.65,0.24,17.5,0,17.5,0S498.28,437.02,498.28,439.5z
		 M326.22,443.68v21.75h14.13l-8.61,51.5l-15.55-76.78L326.22,443.68z M116.41,452.46h3.54c2.71,2.36,3.18,2.59,4.71,3.54
		c-4.71-1.18-4.36-2.24-8.25,0V452.46z M518.31,501.96c-5.42-3.54-33.35-25.34-35.36-35.36L518.31,501.96z M55.13,478.39
		c-4.71-4.12-8.96-4.24-9.43-9.43C48.17,471.91,53.24,470.61,55.13,478.39z M24.49,471.32c0,0,6.6,6.13,12.96,11.79
		c-1.77-0.71-4.71,0-5.89,0c-4.95,0,0-4.71,0-4.71s-4.24-1.89-9.43-5.89L24.49,471.32z M521.85,490.17
		c-6.48-4.71-11.67-10.25-14.14-15.32C518.31,485.46,519.61,486.4,521.85,490.17z M504.17,501.96c2.12,0,5.07,3.06,5.89,9.43
		c-6.13-10.25-10.02-0.94-23.57-23.57C495.21,490.65,499.57,501.96,504.17,501.96z M48.06,488.99l1.18,2.36H45.7L48.06,488.99z
		 M52.77,493.71h3.54c4.83,6.48,14.85,6.83,17.68,17.68C68.92,503.73,58.07,497.95,52.77,493.71z M573.71,506.67
		c-2.12-2.12-2.24-4.71-4.71-4.71c-2.24,0-4.71-3.89-5.89-7.07C569.23,495.83,572.88,500.54,573.71,506.67z M517.13,519.64
		c-2-1.18-3.65-2.59-4.71-4.71L517.13,519.64z M494.74,518.46c0.83,6.72-0.24,0.59,3.54,9.43h-3.54
		C493.8,524.35,494.15,522.11,494.74,518.46z M62.2,536.13c-1.24-1.24-2.65-2.38-4.71-3.54C57.49,532.6,60.49,532.89,62.2,536.13z
		 M88.13,549.1h3.54c1.77,1.53,3.18,3.3,3.54,5.89C93.08,552.16,90.84,551.22,88.13,549.1z M114.06,562.06
		c-4.01-4.01-4.12-4.71-4.71-5.89C113.35,560.18,113.47,560.88,114.06,562.06z M131.74,577.38c-1.18-1.65-3.3-3.54-4.71-5.89
		C128.91,573.02,130.79,574.91,131.74,577.38z M253.13,280.4c0,2.47,16.62,15.32,23.57,15.32c2.24,0,4.6,0.12,7.07,0
		c-4.6-6.95-15.79-16.5-23.57-16.5c0,0,2.12-1.65-7.07-4.71c1.65-0.12,7.19,0,9.43,0c7.54,0,17.44,11.31,33,10.61
		c-0.71-0.24-3.54,0-3.54,0c4.12-1.65,4.71-2.36,4.71-2.36c0.12,0,0.24,1.06,9.43,5.89c-2.83-0.12-0.82-0.47-5.89,0
		c2.83,3.3,26.99,22.39,38.89,22.39c0,0-0.47,1.41,5.89,3.54v-3.54c-18.62-11.08-18.74-7.54-20.04-14.14
		c2.95,4.48,3.54,3.54,3.54,3.54s5.3,2.59,7.07,3.54c0-8.96-6.36-12.96-14.14-12.96c-0.71,0-3.06-3.54-8.25-3.54h-3.54
		c0,0-0.47-0.59-10.61-8.25h3.54c0.47,0.24,31.11,15.32,33,15.32l22.39,12.96c0,0.24,10.61,5.07,17.68,7.07
		c-0.47-1.65-1.06-2.83-2.36-4.71c3.31,1.16,3.9,1.49,3.96,1.42c0.07-0.09-0.68-0.83,1.93-1.42v3.54c-0.94,0.71-2.36,1.18-3.54,2.36
		c1.89,1.3,3.3,3.54,7.07,3.54c2.12,0,3.54,2.83,3.54,3.54c0,0,6.95,4.71,9.43,4.71c1.18,0,1.3,3.54,5.89,3.54
		c0.12,0,8.01,10.61,16.5,10.61c0,0,8.13,8.25,15.32,8.25c1.65,0-1.65,2.71,8.25,1.18c-2.83-3.89-4.36-5.89-8.25-5.89
		c-0.24,0-0.47-3.54-9.43-3.54c0,0,0.83-3.54-5.89-3.54l-14.14-12.96c0-3.3-5.89,0-5.89,0s-32.18-31.82-38.89-31.82l-22.39-10.61
		h3.54c-6.01-6.6-3.54-1.18-3.54-1.18v-3.54l21.21,9.43c0,0,28.88,16.26,34.18,20.03c0.35-7.07-6.13-6.72-11.79-14.14
		c3.54,2.12,6.36,3.54,10.61,3.54l55.39,41.25c0,0,6.84,6.48,9.43,9.43l5.89-5.89c-16.03-11.43-17.09-10.72-17.68-14.14
		c2.83,2.36,19.56,13.79,23.57,15.32c-2.59,5.54-2.36,4.71-5.89,7.07c2.71,4.01,1.3,2.95,8.25,7.07c0.71-1.65,0.24-2.95,0-4.71h3.54
		c11.31,8.96,20.27,9.31,22.39,17.68c-1.18-0.83-9.66-7.07-11.79-7.07c-1.65,0-0.47-0.24-8.25-3.54v3.54
		c31.47,24.16,30.76,23.69,35.36,28.28c-1.53,0.12-3.06,0.59-3.54,2.36c-7.07-3.3-4.48-3.89-11.79-2.36
		c5.42,4.24,12.49,8.13,14.14,17.68h-3.54c-2.47-3.3-25.22-22.27-34.18-28.28c-1.65,1.57-1.83,2.21-1.62,2.38
		c0.38,0.3,2.07-1.04-1.91-1.2c0.59,7.9,4.71,5.77,4.71,14.14c0,0.83,34.18,31.94,34.18,33c0,0,15.32,12.14,15.32,15.32
		c0,0,20.04,14.38,20.04,23.57c0,2.36,7.9,10.25,15.32,17.68c-1.77-0.83-11.55-7.42-17.68-17.68c-0.71-4.95-1.3-5.89-8.25-5.89
		l-35.36-28.28l-0.23-15.09H474.7v10.38H464.1v-10.61h-21.21v10.61h-10.61v-10.61h-20.04v31.53l15.32,0.29l-9.43,56.57
		c0,0-18.03-13.08-18.86-14.14h-3.54c1.18,4.6,16.82,20.96,20.71,22.96l-4.3,22.1c0,0.24-0.39-0.27-11.7-0.27l-12.96-70.71
		c1.65-0.71,2.95,0,4.71,0c3.65,0,20.04,10.61,27.11,20.03c0,0-22.19-15.45-22.19-19.34l-0.2-26.62h-16.5c0,3.89-0.12,5.07,0,8.25
		c-4.24,0.24-2.47,0.24-8.25,0v-8.25h-16.5v8.25h-10.61v-9.55h-23.57l14.14-1.06c0,0,0.24-4.12,0-9.43c1.77,0.35,2.95,0.24,4.71,0
		c-5.07-4.24-2.24-0.94-4.71,0c0.47-10.72,0-7.9,0-22.39h-22.92c0,0-0.18,3.54-1.83,3.54c-1.06,0-10.14-7.07-24.75-11.79v4.71h3.54
		c4.24,1.18,19.21,8.84,23.57,14.14h-11.79l0.21-9.43h-23.78v10.61h-10.61v-10.61h-24.75v30.64h18.86l-10.61,75.42l-17.68-109.6
		h23.57v-38.89c-3.65-2.59-20.04-4.71-20.04-4.71s-25.69-10.61-35.36-10.61h-5.89c-0.12,0,1.65-3.53-8.25-3.53v3.53
		c2.95,0.24,2.71,0,5.89,0c0.24,0,13.55,7.54,40.07,14.14h-7.07c-3.18,4.01-2.36,12.96-2.36,12.96h-14.14c0,0,1.89-14.38-5.89-12.96
		h-15.32c-2.59-0.83-5.19-1.65-9.43-2.36v5.89c-1.77,0.12-2.95,0-4.71,0c-8.13,0-33.47-11.79-41.25-11.79h-8.25
		c-1.3,0,1.3-3.54,0-3.54c-9.08,0-8.37-4.6-14.14-7.07h9.43v3.54c1.53,1.3,8.37,5.89,18.86,5.89c2.59,0,3.3,4.71,7.07,4.71
		c1.89,0,16.62,1.3,21.21,5.89h8.25c-1.77-2.24-7.54-5.89-12.96-5.89c-0.24,0-2-1.3-5.89,0v-3.54c5.19,0.47,9.66,3.3,15.32,0
		l3.54,3.54l2.36-2.36c-3.77-2.95-17.09-8.25-21.21-8.25c-2.83,0-1.53-3.54-12.96-3.54h-4.71c-0.47,0,0.47-4.71-9.43-4.71h-3.54
		c0,0-0.12-1.42-3.54-3.54h17.68c0,0,15.32,8.13,15.32,8.25c0,8.25,16.15,0,16.5,0c0,0,0.24,1.89,5.89,4.71v-3.53
		c-7.54-2.59-13.55-5.89-21.21-5.89c0,0,2.48-3.54-9.43-3.54h-8.25c-0.94,0,2.36-3.54-5.89-3.54h-8.25c0,0,3.3-3.18-8.25-4.71
		c-1.65-0.12-3.06,0-4.71,0c4.36-0.94,9.78-1.18,21.21-1.18c1.41,0-3.77,3.54,5.89,3.54h9.43c0.83,0-4.71,3.54,3.54,3.54
		c0.24,0,10.49,5.89,20.04,5.89c8.25,0,12.96-0.94,21.21,0v-3.54c-3.54-2.95,1.53-0.94-36.54-11.79h3.54
		c5.89,0,8.84,0.59,12.96,3.54h4.71V324h-3.54c-15.79-3.06-17.68-2.83-24.75-7.07h-3.54l1.18,2.36c-5.89-7.19-4.6-3.3-8.25-2.36
		c1.41-0.83,13.67,0,45.96,0c4.24,0-4.83,3.54,5.89,3.54c3.06,0-3.89,3.06,7.07,0c-1.41-2.24-2.24-3.54-4.71-3.54h-5.89
		c0,0-8.13-4.01-10.61-5.89c-0.94-2.12-1.65-3.54-3.54-3.54c-1.18,0-3.18-3.54-10.61-3.54c0,0-5.54-5.89-21.21-5.89
		c-0.12,0-2.12-3.54-9.43-3.54c0,0-0.94-2.83-8.25-4.71c12.49-0.83,36.65,9.43,40.07,9.43c4.24,0,2.71-0.83,4.71-4.71
		c2.95,0.59,5.19,0.35,8.25,0v-5.89c1.65-0.12,17.68-0.24,20.04,0v-3.54c-1.77-0.71-2,0.24-3.54,0l11.79-2.36
		c0.35,0-0.59,3.54,7.07,3.54h5.89c0,0,0.47,2.24,5.89,4.71v-3.54c-5.3-3.77-13.67-7.31-21.21-11.79
		c16.26,4.48,28.05,13.79,36.54,17.68v-3.54c-6.95-4.95-14.14-8.25-16.5-12.96c8.13,5.42,11.55,9.43,18.86,7.07
		c-0.47-0.24-19.21-12.85-29.47-17.68C214,266.49,253.13,278.28,253.13,280.4z M274.66,332.58c7.37,3.07,14.12,6.14,22.71,7.37v8.59
		C287.55,346.08,278.95,338.72,274.66,332.58z M239.67,305.57l-8.59-4.3c-3.68,2.46-8.53,10.28-4.3,11.05
		c10.54,1.91,24.55,12.89,30.69,12.89c1.84,0,2.46-2.45,2.46-4.3S242.13,306.8,239.67,305.57z M315.79,377.39
		c8.59,7.37,29.46,22.1,40.51,17.8C341.57,385.37,334.83,378.53,315.79,377.39z M272.82,358.36c4.91,3.68,6.75,9.82,11.66,12.89
		l12.89,3.07C297.37,360.81,283.25,358.97,272.82,358.36z M85.77,407.68c9.67,1.89,13.91,7.07,18.86,7.07h3.54
		c0.24-1.3-0.59-2.47,0-3.54c5.19,3.06,4.6,1.41,8.25,4.71c7.19-7.19,2-2.12,3.54-7.07c26.3,11.83,38.99,7.17,37.77,14.51
		l-4.21,25.17c-13.55-9.66-11.16-6.68-13.52-6.68c0,0-18.27-12.96-24.75-12.96c0,0-25.58-18.74-33-21.21H85.77z"/>
	<text transform="matrix(1 0 0 1 511.8318 39.18)"><tspan x="0" y="0" class="st3 st4 st5">Los Mateos, 1</tspan><tspan x="-24.53" y="10.84" class="st3 st4 st5">Telf.: </tspan><tspan x="0.09" y="10.84" class="st3 st6 st5">968 693 575</tspan><tspan x="-21.82" y="21.67" class="st3 st4 st5">Fax: </tspan><tspan x="0.09" y="21.67" class="st3 st6 st5">968 693 244</tspan><tspan x="-53.27" y="32.51" class="st3 st4 st5">30564 </tspan><tspan x="-19.61" y="32.51" class="st3 st6 st5">LORQUÍ</tspan><tspan x="22.57" y="32.51" class="st3 st4 st5"> (Murcia)</tspan><tspan x="-26.68" y="43.35" class="st3 st6 st5">www.laauxiliar.es</tspan></text>
	<path class="st2" d="M31.29,44c1.97,0.38,2.83,1.44,3.84,1.44h0.72c0.05-0.26-0.12-0.5,0-0.72c1.06,0.62,0.94,0.29,1.68,0.96
		c1.46-1.46,0.41-0.43,0.72-1.44c5.36,2.41,7.94,1.46,7.69,2.96l-0.86,5.13c-2.76-1.97-2.27-1.36-2.75-1.36c0,0-3.72-2.64-5.04-2.64
		c0,0-5.21-3.82-6.72-4.32H31.29z M69.38,33.95c1,0.75,1.37,2,2.37,2.63l2.63,0.62C74.38,34.45,71.5,34.08,69.38,33.95z
		 M78.13,37.83c1.75,1.5,6,4.5,8.25,3.63C83.38,39.45,82,38.06,78.13,37.83z M62.63,23.2l-1.75-0.88c-0.75,0.5-1.74,2.09-0.88,2.25
		c2.15,0.39,5,2.62,6.25,2.62c0.38,0,0.5-0.5,0.5-0.88C66.75,25.95,63.13,23.45,62.63,23.2z M69.75,28.7
		c1.5,0.63,2.88,1.25,4.63,1.5v1.75C72.38,31.45,70.63,29.95,69.75,28.7z M65.37,18.08c0,0.5,3.38,3.12,4.8,3.12
		c0.46,0,0.94,0.02,1.44,0c-0.94-1.42-3.22-3.36-4.8-3.36c0,0,0.43-0.34-1.44-0.96c0.34-0.02,1.46,0,1.92,0
		c1.54,0,3.55,2.3,6.72,2.16c-0.14-0.05-0.72,0-0.72,0c0.84-0.34,0.96-0.48,0.96-0.48c0.02,0,0.05,0.22,1.92,1.2
		c-0.58-0.02-0.17-0.1-1.2,0c0.58,0.67,5.5,4.56,7.92,4.56c0,0-0.1,0.29,1.2,0.72v-0.72c-3.79-2.26-3.82-1.54-4.08-2.88
		c0.6,0.91,0.72,0.72,0.72,0.72s1.08,0.53,1.44,0.72c0-1.82-1.3-2.64-2.88-2.64c-0.14,0-0.62-0.72-1.68-0.72h-0.72
		c0,0-0.1-0.12-2.16-1.68h0.72c0.1,0.05,6.34,3.12,6.72,3.12l4.56,2.64c0,0.05,2.16,1.03,3.6,1.44c-0.1-0.34-0.22-0.58-0.48-0.96
		c0.67,0.24,0.79,0.3,0.81,0.29c0.01-0.02-0.14-0.17,0.39-0.29v0.72c-0.19,0.14-0.48,0.24-0.72,0.48C90.71,25.54,91,26,91.77,26
		c0.43,0,0.72,0.58,0.72,0.72c0,0,1.42,0.96,1.92,0.96c0.24,0,0.26,0.72,1.2,0.72c0.02,0,1.63,2.16,3.36,2.16
		c0,0,1.66,1.68,3.12,1.68c0.34,0-0.34,0.55,1.68,0.24c-0.58-0.79-0.89-1.2-1.68-1.2c-0.05,0-0.1-0.72-1.92-0.72
		c0,0,0.17-0.72-1.2-0.72l-2.88-2.64c0-0.67-1.2,0-1.2,0s-6.55-6.48-7.92-6.48l-4.56-2.16h0.72c-1.22-1.34-0.72-0.24-0.72-0.24V17.6
		l4.32,1.92c0,0,5.88,3.31,6.96,4.08c0.07-1.44-1.25-1.37-2.4-2.88c0.72,0.43,1.3,0.72,2.16,0.72l11.28,8.4c0,0,1.39,1.32,1.92,1.92
		l1.2-1.2c-3.26-2.33-3.48-2.18-3.6-2.88c0.58,0.48,3.98,2.81,4.8,3.12c-0.53,1.13-0.48,0.96-1.2,1.44c0.55,0.82,0.26,0.6,1.68,1.44
		c0.14-0.34,0.05-0.6,0-0.96h0.72c2.3,1.82,4.13,1.9,4.56,3.6c-0.24-0.17-1.97-1.44-2.4-1.44c-0.34,0-0.1-0.05-1.68-0.72v0.72
		c6.41,4.92,6.26,4.82,7.2,5.76c-0.31,0.02-0.62,0.12-0.72,0.48c-1.44-0.67-0.91-0.79-2.4-0.48c1.1,0.86,2.54,1.66,2.88,3.6h-0.72
		c-0.5-0.67-5.14-4.54-6.96-5.76c-0.34,0.32-0.37,0.45-0.33,0.48c0.08,0.06,0.42-0.21-0.39-0.24c0.12,1.61,0.96,1.18,0.96,2.88
		c0,0.17,6.96,6.5,6.96,6.72c0,0,3.12,2.47,3.12,3.12c0,0,4.08,2.93,4.08,4.8c0,0.48,1.61,2.09,3.12,3.6
		c-0.36-0.17-2.35-1.51-3.6-3.6c-0.14-1.01-0.26-1.2-1.68-1.2l-7.2-5.76L115,46.2h-4.51v2.11h-2.16v-2.16h-4.32v2.16h-2.16v-2.16
		h-4.08v6.42l3.12,0.06l-1.92,11.52c0,0-3.67-2.66-3.84-2.88h-0.72c0.24,0.94,3.43,4.27,4.22,4.68l-0.88,4.5
		c0,0.05-0.08-0.06-2.38-0.06L92.73,56c0.34-0.14,0.6,0,0.96,0c0.74,0,4.08,2.16,5.52,4.08c0,0-4.52-3.15-4.52-3.94l-0.04-5.42
		h-3.36c0,0.79-0.02,1.03,0,1.68c-0.86,0.05-0.5,0.05-1.68,0v-1.68h-3.36v1.68h-2.16v-1.94h-4.8l2.88-0.22c0,0,0.05-0.84,0-1.92
		c0.36,0.07,0.6,0.05,0.96,0c-1.03-0.86-0.46-0.19-0.96,0c0.1-2.18,0-1.61,0-4.56H77.5c0,0-0.04,0.72-0.37,0.72
		c-0.22,0-2.06-1.44-5.04-2.4v0.96h0.72c0.86,0.24,3.91,1.8,4.8,2.88h-2.4L75.25,44l-4.84,0v2.16l-2.16,0V44h-5.04v6.24h3.84
		L64.89,65.6l-3.6-22.32h4.8v-7.92c-0.74-0.53-4.08-0.96-4.08-0.96s-5.23-2.16-7.2-2.16h-1.2c-0.02,0,0.34-0.72-1.68-0.72v0.72
		c0.6,0.05,0.55,0,1.2,0c0.05,0,2.76,1.54,8.16,2.88h-1.44c-0.65,0.82-0.48,2.64-0.48,2.64h-2.88c0,0,0.38-2.93-1.2-2.64h-3.12
		c-0.53-0.17-1.06-0.34-1.92-0.48v1.2c-0.36,0.02-0.6,0-0.96,0c-1.66,0-6.82-2.4-8.4-2.4h-1.68c-0.26,0,0.26-0.72,0-0.72
		c-1.85,0-1.7-0.94-2.88-1.44h1.92V32c0.31,0.26,1.7,1.2,3.84,1.2c0.53,0,0.67,0.96,1.44,0.96c0.38,0,3.38,0.26,4.32,1.2h1.68
		c-0.36-0.46-1.54-1.2-2.64-1.2c-0.05,0-0.41-0.26-1.2,0v-0.72c1.06,0.1,1.97,0.67,3.12,0l0.72,0.72l0.48-0.48
		c-0.77-0.6-3.48-1.68-4.32-1.68c-0.58,0-0.31-0.72-2.64-0.72h-0.96c-0.1,0,0.1-0.96-1.92-0.96h-0.72c0,0-0.02-0.29-0.72-0.72h3.6
		c0,0,3.12,1.66,3.12,1.68c0,1.68,3.29,0,3.36,0c0,0,0.05,0.38,1.2,0.96v-0.72c-1.54-0.53-2.76-1.2-4.32-1.2c0,0,0.5-0.72-1.92-0.72
		h-1.68c-0.19,0,0.48-0.72-1.2-0.72h-1.68c0,0,0.67-0.65-1.68-0.96c-0.34-0.02-0.62,0-0.96,0c0.89-0.19,1.99-0.24,4.32-0.24
		c0.29,0-0.77,0.72,1.2,0.72h1.92c0.17,0-0.96,0.72,0.72,0.72c0.05,0,2.14,1.2,4.08,1.2c1.68,0,2.64-0.19,4.32,0V29.6
		c-0.72-0.6,0.31-0.19-7.44-2.4h0.72c1.2,0,1.8,0.12,2.64,0.72h0.96v-0.96h-0.72c-3.22-0.62-3.6-0.58-5.04-1.44h-0.72L43.77,26
		c-1.2-1.46-0.94-0.67-1.68-0.48c0.29-0.17,2.78,0,9.36,0c0.86,0-0.98,0.72,1.2,0.72c0.62,0-0.79,0.62,1.44,0
		c-0.29-0.46-0.46-0.72-0.96-0.72h-1.2c0,0-1.66-0.82-2.16-1.2c-0.19-0.43-0.34-0.72-0.72-0.72c-0.24,0-0.65-0.72-2.16-0.72
		c0,0-1.13-1.2-4.32-1.2c-0.02,0-0.43-0.72-1.92-0.72c0,0-0.19-0.58-1.68-0.96c2.54-0.17,7.46,1.92,8.16,1.92
		c0.86,0,0.55-0.17,0.96-0.96c0.6,0.12,1.06,0.07,1.68,0v-1.2c0.34-0.02,3.6-0.05,4.08,0v-0.72c-0.36-0.14-0.41,0.05-0.72,0
		l2.4-0.48c0.07,0-0.12,0.72,1.44,0.72h1.2c0,0,0.1,0.46,1.2,0.96v-0.72c-1.08-0.77-2.78-1.49-4.32-2.4
		c3.31,0.91,5.71,2.81,7.44,3.6V20c-1.42-1.01-2.88-1.68-3.36-2.64c1.66,1.1,2.35,1.92,3.84,1.44c-0.1-0.05-3.91-2.62-6-3.6
		C57.4,15.24,65.37,17.64,65.37,18.08z M40.65,78.56c-0.24-0.34-0.67-0.72-0.96-1.2C40.07,77.67,40.45,78.05,40.65,78.56z
		 M37.05,75.44c-0.82-0.82-0.84-0.96-0.96-1.2C36.9,75.05,36.93,75.2,37.05,75.44z M31.77,72.8h0.72c0.36,0.31,0.65,0.67,0.72,1.2
		C32.77,73.42,32.32,73.23,31.77,72.8z M26.49,70.16c-0.25-0.25-0.54-0.48-0.96-0.72C25.53,69.44,26.14,69.5,26.49,70.16z
		 M114.57,66.56c0.17,1.37-0.05,0.12,0.72,1.92h-0.72C114.38,67.76,114.45,67.3,114.57,66.56z M119.13,66.8
		c-0.41-0.24-0.74-0.53-0.96-0.96L119.13,66.8z M130.65,64.16c-0.43-0.43-0.46-0.96-0.96-0.96c-0.46,0-0.96-0.79-1.2-1.44
		C129.74,61.95,130.48,62.91,130.65,64.16z M24.57,61.52h0.72c0.98,1.32,3.02,1.39,3.6,3.6C27.85,63.56,25.65,62.38,24.57,61.52z
		 M23.61,60.56l0.24,0.48h-0.72L23.61,60.56z M116.49,63.2c0.43,0,1.03,0.62,1.2,1.92c-1.25-2.09-2.04-0.19-4.8-4.8
		C114.66,60.89,115.55,63.2,116.49,63.2z M120.09,60.8c-1.32-0.96-2.38-2.09-2.88-3.12C119.37,59.84,119.63,60.03,120.09,60.8z
		 M18.81,56.96c0,0,1.34,1.25,2.64,2.4c-0.36-0.14-0.96,0-1.2,0c-1.01,0,0-0.96,0-0.96s-0.86-0.38-1.92-1.2L18.81,56.96z
		 M25.05,58.4c-0.96-0.84-1.82-0.86-1.92-1.92C23.63,57.08,24.66,56.81,25.05,58.4z M119.37,63.2c-1.1-0.72-6.79-5.16-7.2-7.2
		L119.37,63.2z M37.53,53.12h0.72c0.55,0.48,0.65,0.53,0.96,0.72c-0.96-0.24-0.89-0.46-1.68,0V53.12z M80.25,51.33v4.43h2.88
		l-1.75,10.49l-3.17-15.64L80.25,51.33z M115.29,50.48c0,0,3.12,2.57,3.12,3.12c0,0,6.96,6.77,6.96,7.44c0,0.31,0.55-0.12,0.96,1.44
		c0,0-3.07-3.77-3.12-3.84c-0.89,0.79-0.96,0.84-0.96,1.2c0,0.46,0.72,0.72,1.44,1.68c-1.66-0.53-6.19-5.81-10.08-8.16
		c0.38,1.46,1.49,2.26,2.88,3.36c-0.34-0.17-3.36-2.14-3.36-2.88c0-0.17-0.65-0.07-1.44-0.96v-0.72c0.74,0.05,3.56,0,3.56,0
		S115.29,49.97,115.29,50.48z M30.57,49.04c0.1,0-0.58,0.17,1.68,1.44h-0.72c-1.22-0.86-2.26-1.13-3.84-1.44H30.57z M25.05,48.8
		c0,0,0.22,0.14,1.44,1.2c-0.6-0.36-0.98-0.72-1.68-0.72c-0.26,0-0.46-0.05-0.72,0C24.45,49.11,24.64,48.8,25.05,48.8z
		 M119.61,47.36c0.43,0.79,0.05,0.22,0,0.72h0.72C120.06,48.01,119.8,48.03,119.61,47.36z M25.77,47.84h-0.72
		c-0.41-0.24-1.08-0.6-1.68-0.96C24.57,47.02,24.57,47.17,25.77,47.84z M117.45,45.92c0.43,0.29,0.74,0.48,1.2,0.72
		c-0.79-0.24-0.94-0.05-1.2,0V45.92z M102.57,44.72l-0.24,0.48l-0.24-0.24L102.57,44.72z M26.73,44.48
		c5.54,3.31,6.38,3.46,6.96,2.88c-2.95-1.75-2.66-1.18-3.6-2.4c0,0,5.23,2.64,5.28,2.64c0.05,0,9.17,7.28,9.25,7.48l-3.73,22.29
		c-0.02,0-3.77-4.8-6-4.8c0,0,0.24,0-1.2-0.96h-0.96c0.26,0.46,0.29,0.36,0.48,0.96c-0.34-0.53-2.26-1.8-5.52-4.08
		c1.9,0.89,2.02,1.56,3.6,1.68c-0.21-0.42-0.25-0.58-0.33-0.68c-0.24-0.28-0.89-0.22-6.63-4.12c2.14,0.41,3.84,2.11,3.84,2.16
		c0,0.1,0.84,0.36,2.16,0.96v-0.72c-0.72-0.58-1.22-0.98-1.68-1.44c2.06,1.22,1.46,1.44,2.4,1.44l4.08,3.12c0,0,0-0.17,1.2-0.48
		c-0.74-2.23-1.25-0.58-1.44-2.4h-0.96c0,0-13.78-11.66-13.92-12.24c0.41-0.05,0.77,0.02,1.2,0c-1.2-2.59-1.03-0.36-2.4-2.64h0.72
		c1.7,1.34,2.95,1.32,7.92,4.56c3.31,2.16,3.7,4.8,6.72,4.8c0.22,0-0.05,0.46,0,0.72h0.96V62c-2.06-2.28-2.16-1.15-2.16-2.4
		c0-0.67-1.13-1.08-1.44-1.2v-0.72c0.84-0.84,0.41-0.17,0.72-1.2c-0.65-0.46-0.94-1.2-1.68-1.2c0,0-2.38-1.3-2.88-1.92
		c0.79,0.34,1.3,0.72,2.16,0.72c0,0,5.59,5.06,8.16,4.56c-1.51-2.54-2.64-1.27-2.64-1.68c0-0.46-0.02-0.74,0-1.2h-0.72h0.96v-0.72
		l0.24-0.48c-0.82-0.05-5.06-1.94-5.76-3.12v-0.72c0.74,0.07,1.18,0,1.92,0c0,0,2.66,2.16,4.08,2.16c0.36,0,1.85-1.51,3.36,0v-0.72
		c-0.12-1.46,0.38-1.44-0.96-1.44c0,0-2.09-0.96-2.64-0.96c-0.6,0-1.7,1.37-2.4-0.72c-1.92-1.54-1.97-0.98-2.64-0.96
		c0.26,0.36,0.58,0.7,0.72,1.2c-3.67-2.64-6.05-4.32-6.72-4.8H26.73z M116.25,45.44c-0.19-0.29-0.38-0.55-0.72-0.96
		C115.89,44.74,116.1,45.01,116.25,45.44z M89.85,45.2c-0.12-0.31-0.24-0.55-0.24-0.96h0.24V45.2z M46.63,43.08l-0.48,2.88
		c-2.38-2.38-2.09-2.69-2.38-2.88H46.63z M24.81,42.8c-0.44,0.07-0.54,0.12-0.54,0.15c0.01,0.05,0.43,0-0.42-0.15H24.81z
		 M113.13,42.32h-0.72l0.24-0.72C112.7,41.91,113.01,42.17,113.13,42.32z M87.75,43.82c0.74,0.1,0.77,0.19,1.2,0.48
		c-0.02,0-2.98-1.1-3.84-2.4C87.08,43.2,87.42,42.84,87.75,43.82z M38.25,37.28c0.55,0.26,0.7,0.17,1.2,0V38
		c-0.43-0.1-0.77-0.12-1.2,0V37.28z M70.89,36.8h0.72c0.62,0.05,3.94,1.15,4.56,2.64c-0.53-0.62-0.94-0.46-1.2-1.2
		c-1.1,0.19-1.68-0.6-3.12-0.96C71.63,36.97,71.25,36.87,70.89,36.8z M47.37,36.56h0.72c0.72,0.58,1.32,0.84,2.16,1.2h-2.88
		C47.34,37.49,47.34,37.13,47.37,36.56z M26.73,36.56c-0.22,0.14-0.5,0.12-0.72,0H26.73z M79.53,36.56c-0.14-0.02-0.48-0.05-0.72,0
		C79.1,36.46,79.29,36.46,79.53,36.56z M41.13,36.08c0.07,1.1,0.05,1.2-0.24,1.92c-0.12-1.49-0.02-1.25-1.68-1.68
		C39.88,36.29,40.33,36.44,41.13,36.08z M109.53,35.84c0.24,0.19,0.38,0.41,0.72,0.48c-0.36-0.02-0.65-0.02-0.96,0L109.53,35.84z
		 M117.21,38c-0.43-1.13-0.86-1.68-1.2-2.4C117.86,36.97,117.3,37.06,117.21,38z M26.25,35.36c0.74,0.07,1.18,0,1.92,0
		c0,0,1.99,1.44,3.6,1.44c0.14,0,0.22,0.72,1.92,0.72c0.34,0,1.34,1.68,4.08,1.68c0,0,3.22,1.25,3.6,1.68v1.44
		c-0.82-0.29-1.3-0.72-2.16-0.72l-5.28-2.88c-1.58,0-4.87-2.64-6.96-2.64c0,0-0.14-0.19-0.72,0V35.36z M104.73,35.36
		c0,0,3.36,2.16,4.08,3.6c-0.12-0.24-0.05-0.46,0-0.72h-0.72c0,0-3.31-2.74-4.08-2.4c-0.24-0.96-0.05-0.43-0.72-1.2
		C104.8,35.65,103.74,35.36,104.73,35.36z M40.65,33.68c0.05,0,0.43,0.96,2.16,0.96c0.22,0,0.34,0.31,0.72,0.48h-0.96
		c-1.13-0.58-1.87-0.96-2.64-1.2C40.33,33.92,40.33,33.68,40.65,33.68z M104.49,32.72l-0.24,0.48c0-0.07-0.19-0.02-0.24,0
		L104.49,32.72z M71.37,33.2c-0.55-0.12-0.94-0.19-1.44,0C70.89,32.65,70.22,32.91,71.37,33.2z M41.61,31.52
		c1.18,0.38-0.05-0.26,2.4,0.96h-1.92c0,0-0.34-0.22-1.44-0.96H41.61z M76.41,31.52c-0.79-0.34-0.19-0.19-0.72,0
		C75.9,31.4,76.22,31.37,76.41,31.52z M65.85,30.8l0.24,0.48c-0.26-0.1-0.58-0.05-0.72,0L65.85,30.8z M64.17,30.56h0.72l-0.48,0.24
		L64.17,30.56z M37.53,29.36c0,0,0.29,0.43,0.96,0.96c-1.37,0-2.33-0.53-3.12-0.72C36.73,29.5,37.53,29.36,37.53,29.36z
		 M72.03,25.53c1.87,0.94,2.26,0.5,2.88,1.68c-0.72-0.62-1.44-0.72-2.4-0.72l-1.44-0.96H72.03z M32.01,27.92
		c0,0,0.17,0.48,1.92,0.72h-0.72c-0.79-0.14-2.59-0.67-2.88-0.72C31.26,27.94,31.43,27.92,32.01,27.92z M106.41,27.92h-0.96
		c0.45-0.16,0.49-0.23,0.48-0.24C105.92,27.68,105.85,27.77,106.41,27.92z M34.17,26.24c-0.31,0.53-0.36,0.12,0,0.72
		c-1.39-0.31-0.5-0.38-1.68,0v-0.72C33.13,26.31,33.52,26.33,34.17,26.24z M40.41,26c0.05,0-0.7,0.55,2.64,1.2
		c-1.97,0.12-2.14-0.96-5.76-1.2H40.41z M85.53,24.8c0.07,0.02,0.77,0.19,1.44,1.2c-0.19,0-0.34,0.14-0.48,0.24
		c0-0.05-0.05-0.43-0.48-0.72c-0.43-0.07-0.19,0.12-0.48,0.24C85.6,25.57,85.74,25.25,85.53,24.8z M27.21,24.56
		c1.27,0.34,0.6,0.43,1.68,0v0.72c-1.46-0.31-0.65-0.34-1.68,0V24.56z M30.57,24.08c0,0,4.06,1.3,5.04,1.68
		c-0.36-0.02-1.34,0-1.92,0c-0.02,0-0.67-0.96-2.64-0.96c-0.22,0-2.11-1.01-3.6-1.2C30.11,23.6,28.19,24.08,30.57,24.08z
		 M97.53,22.64v0.72c-0.46-0.22,0.02,0.38-0.96-0.72C97.74,23.81,97.02,22.85,97.53,22.64z M82.89,22.64l-0.24,0.48
		c0-0.07-0.19-0.02-0.24,0L82.89,22.64z M55.05,22.64c-1.18,0.67-1.49,0.22-2.64,0C53.29,22.64,53.85,23,55.05,22.64z M64.41,22.4
		c0.05,0,0.19,1.08,1.2,0.72c0.79,1.2,0.67,0.5,1.2,0.48c-0.22,0.05-1.39,0.24-1.68,0.24l-2.88-1.44
		C62.85,22.35,63.18,22.4,64.41,22.4z M58.41,22.4v0.24h-0.72V22.4H58.41z M59.61,22.4c-0.17-0.02-0.34-0.05-0.48-0.24L59.61,22.4z
		 M98.25,21.44c1.18,0.46,1.37,0.5,1.68,1.44C99.11,21.89,99.06,22.16,98.25,21.44z M55.05,21.2c0.14,0,0.24,0.65,1.44,0.72
		c-1.08,0.22-1.1,0.24-2.16,0.24c0,0-0.17-0.36-1.2-0.72C54.04,21.37,55.05,21.2,55.05,21.2z M84.33,21.2c0,0,0.55,0.41,1.68,1.2
		c-1.08-0.77-1.44-0.82-2.4-1.2C83.9,21.25,84.21,21.2,84.33,21.2z M52.65,20.96c-0.96,0.26-1.34,0.1-1.92,0.48
		C51.23,21.29,52.43,21.01,52.65,20.96z M45.45,20c-0.36,0.07-0.62,0.1-0.96,0C44.7,20,45.06,20.02,45.45,20z M86.49,17.84
		c0.62,0.62,0.34,0.05,0,0.72V17.84z M49.29,17.36v0.72c-0.65-0.38-1.03-0.65-1.92-0.72C47.73,17.38,48.54,17.45,49.29,17.36z
		 M79.05,16.88c0.53,0.29,0.24,0.24,0.72,0v0.72h-0.72V16.88z M74.01,15.68c-0.89-0.29-0.98-0.26-1.44-0.96
		C73.02,14.98,73.36,15.17,74.01,15.68z M576.82,85.39H43.64v1.18h533.18V85.39z"/>
	<path class="st3" d="M50.23,76.36l-0.77-2.75c-0.33,0.01-0.66,0.01-1,0.01c-0.19,0-0.52,0-0.99-0.01c-0.29,0.76-0.66,1.67-1.1,2.72
		l-1.41,3.39c-0.5,1.21-0.94,2.23-1.31,3.05c0.45-0.01,0.76-0.01,0.93-0.01l0.88,0.01c0.4-1.11,0.8-2.19,1.22-3.26h2.83
		c0.13,0.42,0.29,0.97,0.47,1.64c0.18,0.68,0.32,1.21,0.41,1.61c0.44-0.01,0.75-0.01,0.94-0.01l0.8,0.01l-0.23-0.74L50.23,76.36z
		 M47.16,78.13l0.78-1.98l0.43-1.13l0.85,3.11H47.16z M60.16,73.63l0.78-0.01l-0.17,3.24l-0.11,2.57c-0.03,0.6-0.08,1.05-0.15,1.34
		c-0.06,0.25-0.14,0.47-0.24,0.68c-0.1,0.19-0.22,0.36-0.36,0.5c-0.18,0.19-0.39,0.36-0.63,0.5c-0.27,0.16-0.55,0.27-0.85,0.34
		c-0.42,0.1-0.84,0.15-1.28,0.15c-0.45,0-0.87-0.05-1.27-0.15c-0.34-0.09-0.65-0.23-0.93-0.42c-0.28-0.19-0.5-0.4-0.67-0.63
		c-0.13-0.19-0.24-0.42-0.32-0.71c-0.09-0.31-0.13-0.66-0.13-1.05c0-0.13,0-0.31,0.01-0.52c0.01-0.21,0.02-0.49,0.04-0.82l0.05-0.95
		c0.02-0.3,0.04-0.73,0.06-1.3l0.05-1.46c0.01-0.4,0.03-0.84,0.04-1.32c0.42,0.01,0.7,0.01,0.84,0.01c0.18,0,0.45,0,0.81-0.01
		l-0.25,5.42c0,0.06-0.01,0.13-0.01,0.2c0,0.6,0.07,1.06,0.21,1.36c0.14,0.3,0.34,0.53,0.61,0.66c0.27,0.14,0.57,0.21,0.92,0.21
		c0.22,0,0.43-0.03,0.62-0.09c0.16-0.05,0.31-0.13,0.44-0.22c0.11-0.08,0.2-0.17,0.29-0.28c0.1-0.13,0.18-0.28,0.24-0.45
		c0.07-0.17,0.12-0.35,0.15-0.56c0.05-0.32,0.09-0.87,0.13-1.66l0.11-2.34c0.03-0.68,0.04-1.43,0.06-2.25
		C59.67,73.62,59.97,73.63,60.16,73.63z M68.24,75.55c-0.52,0.82-1.02,1.62-1.49,2.42c0.49,1.03,1.31,2.63,2.46,4.82
		c-0.42-0.01-0.72-0.01-0.91-0.01c-0.31,0-0.64,0-0.99,0.01c-0.2-0.44-0.47-0.97-0.8-1.6c-0.34-0.63-0.6-1.14-0.8-1.54
		c-0.2,0.35-0.5,0.83-0.9,1.45s-0.75,1.18-1.05,1.69c-0.39-0.01-0.69-0.01-0.89-0.01c-0.23,0-0.54,0-0.93,0.01l0.4-0.61
		c0.13-0.19,0.34-0.52,0.64-1.01l1.46-2.34l0.46-0.78l-0.66-1.35l-1.6-3.08c0.35,0.01,0.69,0.01,1.01,0.01c0.26,0,0.55,0,0.89-0.01
		c0.19,0.53,0.42,1.08,0.67,1.64c0.25,0.57,0.44,1.03,0.57,1.4c0.22-0.38,0.54-0.87,0.94-1.49c0.41-0.62,0.73-1.13,0.96-1.55
		c0.29,0.01,0.59,0.01,0.89,0.01c0.19,0,0.49,0,0.89-0.01C69.17,74.08,68.77,74.73,68.24,75.55z M71.81,82.77
		c-0.13,0-0.44,0-0.94,0.01c0.09-1.54,0.15-3.12,0.21-4.74s0.08-2.85,0.08-3.71l-0.01-0.72l0.9,0.01c0.05,0,0.32,0,0.82-0.01
		c-0.15,2.35-0.24,5.41-0.28,9.16L71.81,82.77z M80.05,82.78c-0.94-0.01-1.75-0.01-2.42-0.01l-1.69,0.01l-1.01,0.01
		c0.11-1.35,0.19-2.85,0.26-4.5c0.06-1.65,0.1-3.21,0.11-4.66c0.37,0.01,0.67,0.01,0.91,0.01c0.17,0,0.43,0,0.79-0.01
		c-0.05,0.81-0.09,1.72-0.13,2.75l-0.11,2.69c-0.03,0.77-0.06,1.54-0.07,2.3l0.93,0.01c0.87,0,1.44,0,1.71-0.01s0.54-0.02,0.81-0.04
		C80.11,81.76,80.08,82.25,80.05,82.78z M82.71,82.77c-0.13,0-0.44,0-0.94,0.01c0.09-1.54,0.15-3.12,0.21-4.74s0.08-2.85,0.08-3.71
		l-0.01-0.72l0.9,0.01c0.05,0,0.32,0,0.82-0.01c-0.15,2.35-0.24,5.41-0.28,9.16L82.71,82.77z M91.23,81.17
		c0.18,0.68,0.32,1.21,0.41,1.61c0.44-0.01,0.75-0.01,0.94-0.01l0.8,0.01l-0.23-0.74l-1.67-5.68l-0.77-2.75
		c-0.33,0.01-0.66,0.01-1,0.01c-0.19,0-0.52,0-0.99-0.01c-0.29,0.76-0.66,1.67-1.1,2.72l-1.41,3.39c-0.5,1.21-0.94,2.23-1.31,3.05
		c0.45-0.01,0.76-0.01,0.93-0.01l0.88,0.01c0.4-1.11,0.8-2.19,1.22-3.26h2.83C90.89,79.94,91.04,80.49,91.23,81.17z M88.41,78.13
		l0.78-1.98l0.43-1.13l0.85,3.11H88.41z M96.67,82.78l-0.83-0.01c-0.13,0-0.4,0-0.81,0.01c0.11-1.33,0.19-2.87,0.24-4.6
		c0.05-1.73,0.08-3.25,0.08-4.57c0.43,0.01,0.79,0.01,1.08,0.01c0.31,0,0.62-0.01,0.92-0.02c0.3-0.01,0.61-0.02,0.95-0.02
		c0.42,0,0.79,0.03,1.11,0.09c0.33,0.06,0.62,0.19,0.87,0.4c0.25,0.21,0.44,0.47,0.57,0.77c0.12,0.3,0.19,0.65,0.19,1.05
		c0,0.25-0.02,0.49-0.07,0.71c-0.05,0.23-0.12,0.44-0.21,0.64c-0.09,0.2-0.2,0.37-0.33,0.52c-0.13,0.15-0.25,0.27-0.37,0.36
		c-0.12,0.09-0.26,0.16-0.42,0.22c-0.16,0.06-0.37,0.14-0.63,0.23l0.37,0.89c0.12,0.28,0.34,0.79,0.67,1.52l0.54,1.19
		c0.03,0.06,0.11,0.27,0.26,0.61c-0.44-0.01-0.73-0.01-0.87-0.01c-0.17,0-0.48,0-0.91,0.01l-0.6-1.79c-0.1-0.27-0.23-0.59-0.38-0.97
		l-0.65-1.63c-0.06-0.15-0.15-0.38-0.27-0.69c0.24,0.05,0.46,0.08,0.66,0.08c0.31,0,0.59-0.06,0.84-0.19
		c0.25-0.12,0.45-0.32,0.59-0.58c0.14-0.26,0.2-0.55,0.2-0.86c0-0.19-0.03-0.36-0.09-0.52c-0.06-0.16-0.16-0.3-0.3-0.41
		c-0.14-0.11-0.31-0.18-0.5-0.21c-0.19-0.03-0.39-0.05-0.58-0.05c-0.11,0-0.25,0-0.44,0.01c-0.19,0-0.42,0.01-0.69,0.01l-0.1,2.76
		L96.67,82.78z M114.41,82.78c-0.35-0.01-0.6-0.01-0.73-0.01c-0.19,0-0.43,0-0.74,0.01c0.02-0.46,0.04-0.83,0.04-1.13l0.09-4
		c0.01-0.56,0.02-1.12,0.02-1.67l-0.01-0.54l-1.97,6.53l-0.23,0.8c-0.35-0.01-0.59-0.01-0.72-0.01c-0.16,0-0.42,0-0.76,0.01
		l-0.92-4.14c-0.03-0.15-0.11-0.46-0.23-0.93l-0.33-1.37c-0.03-0.13-0.06-0.24-0.07-0.32s-0.05-0.27-0.1-0.55l-0.07,0.86
		c-0.02,0.27-0.04,0.73-0.08,1.37l-0.21,4.16c-0.01,0.21-0.01,0.51-0.02,0.91l-0.69-0.01c-0.12,0-0.35,0-0.7,0.01l0.14-1.52
		l0.36-5.33l0.12-2.32c0.51,0.01,0.89,0.01,1.12,0.01c0.19,0,0.53,0,1.04-0.01c0.06,0.36,0.1,0.62,0.13,0.77s0.08,0.4,0.17,0.73
		c0.08,0.33,0.19,0.74,0.32,1.22c0.19,0.72,0.36,1.44,0.51,2.15l0.41,1.92l0.72-2.46l1.05-3.2c0.04-0.11,0.07-0.23,0.11-0.37
		c0.04-0.14,0.1-0.39,0.19-0.75c0.43,0.01,0.81,0.01,1.14,0.01c0.22,0,0.58,0,1.06-0.01c-0.05,1.29-0.09,2.71-0.11,4.27
		c-0.02,1.56-0.04,2.72-0.04,3.49C114.4,81.75,114.4,82.22,114.41,82.78z M124.23,82.78L124,82.04l-1.67-5.68l-0.77-2.75
		c-0.33,0.01-0.66,0.01-1,0.01c-0.19,0-0.52,0-0.99-0.01c-0.29,0.76-0.66,1.67-1.1,2.72l-1.41,3.39c-0.5,1.21-0.94,2.23-1.31,3.05
		c0.45-0.01,0.76-0.01,0.93-0.01l0.88,0.01c0.4-1.11,0.8-2.19,1.22-3.26h2.83c0.13,0.42,0.29,0.97,0.47,1.64
		c0.18,0.68,0.32,1.21,0.41,1.61c0.44-0.01,0.75-0.01,0.94-0.01L124.23,82.78z M119.26,78.13l0.78-1.98l0.43-1.13l0.85,3.11H119.26z
		 M130.62,81.89c-0.15-0.29-0.46-0.9-0.94-1.83c-0.32-0.61-0.71-1.39-1.18-2.34c-0.35-0.7-0.65-1.31-0.89-1.83
		c-0.03,0.72-0.07,2.07-0.13,4.04c-0.02,0.8-0.04,1.75-0.06,2.84c-0.34-0.01-0.58-0.01-0.73-0.01c-0.12,0-0.38,0-0.79,0.01
		c0.07-0.8,0.12-1.7,0.16-2.7l0.12-3.29c0.04-1.19,0.06-2.25,0.06-3.18c0.42,0.01,0.77,0.01,1.06,0.01c0.21,0,0.53,0,0.94-0.01
		c0.4,0.88,0.96,2.03,1.68,3.45s1.29,2.59,1.73,3.53l0.2-6.23c0-0.15,0.01-0.4,0.01-0.75c0.34,0.01,0.59,0.01,0.76,0.01
		c0.07,0,0.32,0,0.75-0.01l-0.13,2.46l-0.17,4.22l-0.06,2.48c-0.37-0.01-0.69-0.01-0.95-0.01c-0.21,0-0.54,0-1.01,0.01
		C130.85,82.38,130.71,82.09,130.62,81.89z M136.62,73.63c0.05,0,0.32,0,0.82-0.01c-0.15,2.35-0.24,5.41-0.28,9.16l-0.79-0.01
		c-0.13,0-0.44,0-0.94,0.01c0.09-1.54,0.15-3.12,0.21-4.74s0.08-2.85,0.08-3.71l-0.01-0.72L136.62,73.63z M143.91,78.64
		c-0.41,0.23-0.86,0.35-1.36,0.35c-0.24,0-0.5-0.03-0.78-0.09c-0.08-0.46-0.17-0.9-0.27-1.31c0.22,0.06,0.44,0.09,0.66,0.09
		c0.3,0,0.55-0.06,0.77-0.17c0.22-0.11,0.39-0.29,0.52-0.55s0.19-0.54,0.19-0.86c0-0.19-0.03-0.36-0.08-0.52
		c-0.05-0.16-0.13-0.28-0.23-0.38c-0.1-0.09-0.21-0.16-0.34-0.19c-0.12-0.03-0.3-0.05-0.53-0.05c-0.2,0-0.4,0-0.61,0.01
		S141.48,75,141.32,75c-0.04,0.88-0.07,1.72-0.1,2.52l-0.06,2.56c-0.02,0.91-0.03,1.58-0.03,2c0,0.16,0,0.39,0.01,0.7l-0.78-0.01
		c-0.1,0-0.37,0-0.81,0.01l0.1-1.59l0.13-3.53l0.06-2.56c0-0.23,0.01-0.47,0.01-0.71c0-0.17,0-0.44-0.01-0.79
		c0.46,0.01,0.83,0.01,1.12,0.01c0.23,0,0.55-0.01,0.96-0.02c0.41-0.01,0.73-0.02,0.97-0.02c0.49,0,0.86,0.04,1.09,0.13
		c0.25,0.1,0.46,0.25,0.65,0.46s0.33,0.46,0.42,0.76c0.11,0.33,0.16,0.69,0.16,1.07c0,0.58-0.12,1.1-0.35,1.57
		C144.64,78.06,144.32,78.41,143.91,78.64z M153.27,73.63l0.78-0.01l-0.17,3.24l-0.11,2.57c-0.03,0.6-0.08,1.05-0.15,1.34
		c-0.06,0.25-0.14,0.47-0.24,0.68c-0.1,0.19-0.22,0.36-0.36,0.5c-0.18,0.19-0.39,0.36-0.63,0.5c-0.27,0.16-0.55,0.27-0.85,0.34
		c-0.42,0.1-0.84,0.15-1.28,0.15c-0.45,0-0.87-0.05-1.27-0.15c-0.34-0.09-0.65-0.23-0.93-0.42c-0.28-0.19-0.5-0.4-0.67-0.63
		c-0.13-0.19-0.24-0.42-0.32-0.71c-0.09-0.31-0.13-0.66-0.13-1.05c0-0.13,0-0.31,0.01-0.52c0.01-0.21,0.02-0.49,0.04-0.82l0.05-0.95
		c0.02-0.3,0.04-0.73,0.06-1.3l0.05-1.46c0.01-0.4,0.03-0.84,0.04-1.32c0.42,0.01,0.7,0.01,0.84,0.01c0.18,0,0.45,0,0.81-0.01
		l-0.25,5.42c0,0.06-0.01,0.13-0.01,0.2c0,0.6,0.07,1.06,0.21,1.36c0.14,0.3,0.34,0.53,0.61,0.66c0.27,0.14,0.57,0.21,0.92,0.21
		c0.22,0,0.43-0.03,0.62-0.09c0.16-0.05,0.31-0.13,0.44-0.22c0.11-0.08,0.2-0.17,0.29-0.28c0.1-0.13,0.18-0.28,0.24-0.45
		c0.07-0.17,0.12-0.35,0.15-0.56c0.05-0.32,0.09-0.87,0.13-1.66l0.11-2.34c0.03-0.68,0.04-1.43,0.06-2.25
		C152.77,73.62,153.07,73.63,153.27,73.63z M160.4,81.36c0.27-0.01,0.54-0.02,0.81-0.04c-0.03,0.44-0.06,0.92-0.09,1.46
		c-0.94-0.01-1.75-0.01-2.42-0.01l-1.69,0.01L156,82.78c0.11-1.35,0.19-2.85,0.26-4.5c0.06-1.65,0.1-3.21,0.11-4.66
		c0.37,0.01,0.67,0.01,0.91,0.01c0.17,0,0.43,0,0.79-0.01c-0.05,0.81-0.09,1.72-0.13,2.75l-0.11,2.69c-0.03,0.77-0.06,1.54-0.07,2.3
		l0.93,0.01C159.55,81.37,160.12,81.37,160.4,81.36z M168.43,76.36l-0.77-2.75c-0.33,0.01-0.66,0.01-1,0.01
		c-0.19,0-0.52,0-0.99-0.01c-0.29,0.76-0.66,1.67-1.1,2.72l-1.41,3.39c-0.5,1.21-0.94,2.23-1.31,3.05c0.45-0.01,0.76-0.01,0.93-0.01
		l0.88,0.01c0.4-1.11,0.8-2.19,1.22-3.26h2.83c0.13,0.42,0.29,0.97,0.47,1.64c0.18,0.68,0.32,1.21,0.41,1.61
		c0.44-0.01,0.75-0.01,0.94-0.01l0.8,0.01l-0.23-0.74L168.43,76.36z M165.36,78.13l0.78-1.98l0.43-1.13l0.85,3.11H165.36z
		 M178.88,75.55c-0.13-0.32-0.29-0.6-0.48-0.86c-0.2-0.26-0.43-0.48-0.7-0.65c-0.27-0.17-0.58-0.29-0.94-0.35
		c-0.36-0.06-0.75-0.09-1.17-0.09c-0.31,0-0.68,0.01-1.11,0.02c-0.43,0.01-0.77,0.02-1.03,0.02c-0.35,0-0.73,0-1.12-0.01
		c0,0.54,0,0.88-0.01,1l-0.07,2.91l-0.11,2.92l-0.14,2.34c0.57-0.01,0.91-0.01,1.03-0.01l1.83,0.01c0.65,0,1.23-0.06,1.75-0.19
		c0.51-0.13,0.98-0.42,1.4-0.88c0.42-0.45,0.74-1.03,0.95-1.72c0.21-0.7,0.32-1.43,0.32-2.2c0-0.4-0.03-0.8-0.1-1.18
		C179.11,76.21,179.01,75.86,178.88,75.55z M177.53,78.94c-0.07,0.35-0.17,0.67-0.3,0.96s-0.29,0.54-0.5,0.76
		c-0.2,0.22-0.4,0.37-0.6,0.46c-0.2,0.09-0.44,0.15-0.72,0.19c-0.28,0.04-0.58,0.06-0.91,0.06c-0.29,0-0.58-0.01-0.87-0.03
		l0.22-6.34c0.52-0.02,0.99-0.03,1.39-0.03c0.62,0,1.08,0.1,1.38,0.29c0.3,0.19,0.54,0.5,0.72,0.93s0.27,0.98,0.27,1.66
		C177.63,78.22,177.6,78.59,177.53,78.94z M188.18,74.63c-0.38-0.41-0.81-0.71-1.31-0.9c-0.49-0.18-1-0.27-1.54-0.27
		c-0.62,0-1.19,0.11-1.73,0.33c-0.54,0.22-1,0.54-1.4,0.97c-0.4,0.42-0.7,0.96-0.91,1.61c-0.21,0.65-0.31,1.33-0.31,2.04
		c0,0.65,0.08,1.25,0.25,1.81c0.16,0.56,0.44,1.05,0.82,1.48c0.38,0.43,0.84,0.75,1.36,0.95c0.53,0.2,1.08,0.3,1.65,0.3
		c0.6,0,1.18-0.11,1.73-0.33c0.55-0.22,1.02-0.56,1.4-1.01c0.38-0.45,0.67-1,0.85-1.62s0.27-1.29,0.27-1.98
		c0-0.73-0.1-1.38-0.29-1.93S188.56,75.04,188.18,74.63z M187.51,79.44c-0.12,0.44-0.29,0.81-0.53,1.12
		c-0.23,0.31-0.51,0.54-0.84,0.69s-0.66,0.23-1.02,0.23c-0.47,0-0.91-0.13-1.31-0.39c-0.4-0.26-0.7-0.63-0.9-1.12
		c-0.2-0.49-0.29-1.03-0.29-1.61c0-0.63,0.1-1.21,0.3-1.75c0.2-0.54,0.5-0.96,0.9-1.28c0.4-0.31,0.87-0.47,1.41-0.47
		c0.34,0,0.67,0.07,0.99,0.21c0.31,0.14,0.58,0.36,0.8,0.65c0.22,0.29,0.39,0.64,0.49,1.05c0.11,0.41,0.16,0.83,0.16,1.28
		C187.69,78.55,187.63,79,187.51,79.44z M197.04,74.84c0.12,0.3,0.19,0.65,0.19,1.05c0,0.25-0.02,0.49-0.07,0.71
		c-0.05,0.23-0.12,0.44-0.21,0.64c-0.09,0.2-0.2,0.37-0.33,0.52c-0.13,0.15-0.25,0.27-0.37,0.36c-0.12,0.09-0.26,0.16-0.42,0.22
		c-0.16,0.06-0.37,0.14-0.63,0.23l0.37,0.89c0.12,0.28,0.34,0.79,0.67,1.52l0.54,1.19c0.03,0.06,0.11,0.27,0.26,0.61
		c-0.44-0.01-0.73-0.01-0.87-0.01c-0.17,0-0.48,0-0.91,0.01l-0.6-1.79c-0.1-0.27-0.23-0.59-0.38-0.97l-0.65-1.63
		c-0.06-0.15-0.15-0.38-0.27-0.69c0.24,0.05,0.46,0.08,0.66,0.08c0.31,0,0.59-0.06,0.84-0.19c0.25-0.12,0.45-0.32,0.59-0.58
		c0.14-0.26,0.2-0.55,0.2-0.86c0-0.19-0.03-0.36-0.09-0.52c-0.06-0.16-0.16-0.3-0.3-0.41c-0.14-0.11-0.31-0.18-0.5-0.21
		c-0.19-0.03-0.39-0.05-0.58-0.05c-0.11,0-0.25,0-0.44,0.01c-0.19,0-0.42,0.01-0.69,0.01l-0.1,2.76l-0.1,5.04l-0.83-0.01
		c-0.13,0-0.4,0-0.81,0.01c0.11-1.33,0.19-2.87,0.24-4.6c0.05-1.73,0.08-3.25,0.08-4.57c0.43,0.01,0.79,0.01,1.08,0.01
		c0.31,0,0.62-0.01,0.92-0.02c0.3-0.01,0.61-0.02,0.95-0.02c0.42,0,0.79,0.03,1.11,0.09c0.33,0.06,0.62,0.19,0.87,0.4
		C196.73,74.29,196.92,74.54,197.04,74.84z M206.32,82.04l-1.67-5.68l-0.77-2.75c-0.33,0.01-0.66,0.01-1,0.01
		c-0.19,0-0.52,0-0.99-0.01c-0.29,0.76-0.66,1.67-1.1,2.72l-1.41,3.39c-0.5,1.21-0.94,2.23-1.31,3.05c0.45-0.01,0.76-0.01,0.93-0.01
		l0.88,0.01c0.4-1.11,0.8-2.19,1.22-3.26h2.83c0.13,0.42,0.29,0.97,0.47,1.64c0.18,0.68,0.32,1.21,0.41,1.61
		c0.44-0.01,0.75-0.01,0.94-0.01l0.8,0.01L206.32,82.04z M201.58,78.13l0.78-1.98l0.43-1.13l0.85,3.11H201.58z M51.53,92.06
		c-0.13-0.32-0.29-0.6-0.48-0.86c-0.2-0.26-0.43-0.48-0.7-0.65c-0.27-0.17-0.58-0.29-0.94-0.35c-0.36-0.06-0.75-0.09-1.17-0.09
		c-0.31,0-0.68,0.01-1.11,0.02c-0.43,0.01-0.77,0.02-1.03,0.02c-0.35,0-0.73,0-1.12-0.01c0,0.54,0,0.88-0.01,1l-0.07,2.91
		l-0.11,2.92l-0.14,2.34c0.57-0.01,0.91-0.01,1.03-0.01l1.83,0.01c0.65,0,1.23-0.06,1.75-0.19c0.51-0.13,0.98-0.42,1.4-0.88
		c0.42-0.45,0.74-1.03,0.95-1.72c0.21-0.7,0.32-1.43,0.32-2.2c0-0.4-0.03-0.8-0.1-1.18C51.75,92.73,51.65,92.38,51.53,92.06z
		 M50.17,95.46c-0.07,0.35-0.17,0.67-0.3,0.96s-0.29,0.54-0.5,0.76c-0.2,0.22-0.4,0.37-0.6,0.46c-0.2,0.09-0.44,0.15-0.72,0.19
		c-0.28,0.04-0.58,0.06-0.91,0.06c-0.29,0-0.58-0.01-0.87-0.03l0.22-6.34c0.52-0.02,0.99-0.03,1.39-0.03c0.62,0,1.08,0.1,1.38,0.29
		c0.3,0.19,0.54,0.5,0.72,0.93s0.27,0.98,0.27,1.66C50.28,94.74,50.24,95.1,50.17,95.46z M57.94,90.14l1.55-0.01l-0.06,1.45
		l-0.51-0.03c-0.14-0.01-0.33-0.02-0.58-0.02c-0.25,0-0.5-0.01-0.76-0.01c-0.56,0-0.92,0-1.08,0c-0.16,0-0.41,0.01-0.74,0.02
		l-0.09,2.38c0.49,0.01,0.98,0.02,1.48,0.02c0.34,0,0.92-0.01,1.74-0.04c-0.03,0.41-0.05,0.9-0.08,1.46
		c-0.96-0.01-1.5-0.02-1.64-0.02c-0.42,0-0.95,0.01-1.58,0.04l-0.09,2.51l0.59,0.01c0.17,0,0.57,0,1.18-0.01l1.17-0.03l0.78-0.05
		c-0.04,0.52-0.06,1.01-0.08,1.47c-0.93-0.01-1.77-0.01-2.52-0.01l-1.77,0.01l-1.06,0.01l0.16-2.57l0.11-2.97l0.07-2.71v-0.91
		c0.88,0.01,1.81,0.01,2.77,0.01L57.94,90.14z M65.77,97.88c0.27-0.01,0.54-0.02,0.81-0.04c-0.03,0.44-0.06,0.92-0.09,1.46
		c-0.94-0.01-1.75-0.01-2.42-0.01l-1.69,0.01l-1.01,0.01c0.11-1.35,0.19-2.85,0.26-4.5c0.06-1.65,0.1-3.21,0.11-4.66
		c0.37,0.01,0.67,0.01,0.91,0.01c0.17,0,0.43,0,0.79-0.01c-0.05,0.81-0.09,1.72-0.13,2.75l-0.11,2.69c-0.03,0.77-0.06,1.54-0.07,2.3
		l0.93,0.01C64.93,97.89,65.5,97.89,65.77,97.88z M73.12,93.5c-0.15,0.45-0.22,0.92-0.22,1.41c0,0.58,0.09,1.1,0.27,1.56
		s0.47,0.83,0.86,1.12c0.4,0.29,0.89,0.43,1.47,0.43c0.54,0,1.19-0.13,1.94-0.4c-0.08,0.52-0.15,1.06-0.2,1.6
		c-0.41,0.09-0.78,0.15-1.12,0.19s-0.63,0.05-0.88,0.05c-0.54,0-1.05-0.09-1.54-0.28c-0.49-0.19-0.93-0.48-1.32-0.89
		c-0.39-0.4-0.68-0.9-0.85-1.47c-0.18-0.58-0.26-1.21-0.26-1.89c0-0.74,0.11-1.43,0.32-2.06s0.51-1.16,0.91-1.6
		c0.4-0.43,0.86-0.76,1.4-0.97c0.54-0.21,1.1-0.32,1.69-0.32c0.58,0,1.21,0.08,1.9,0.25c0.01,0.4,0.02,0.68,0.03,0.85l0.04,0.72
		c-0.4-0.13-0.74-0.23-1.01-0.28s-0.52-0.07-0.77-0.07c-0.38,0-0.75,0.07-1.1,0.22c-0.35,0.15-0.66,0.38-0.93,0.69
		C73.48,92.67,73.27,93.05,73.12,93.5z M85.07,92.88l-0.77-2.75c-0.33,0.01-0.66,0.01-1,0.01c-0.19,0-0.52,0-0.99-0.01
		c-0.29,0.76-0.66,1.67-1.1,2.72l-1.41,3.39c-0.5,1.21-0.94,2.23-1.31,3.05c0.45-0.01,0.76-0.01,0.93-0.01l0.88,0.01
		c0.4-1.11,0.8-2.19,1.22-3.26h2.83c0.13,0.42,0.29,0.97,0.47,1.64c0.18,0.68,0.32,1.21,0.41,1.61c0.44-0.01,0.75-0.01,0.94-0.01
		l0.8,0.01l-0.23-0.74L85.07,92.88z M82,94.65l0.78-1.98l0.43-1.13l0.85,3.11H82z M94.44,91.36c0.12,0.3,0.19,0.65,0.19,1.05
		c0,0.25-0.02,0.49-0.07,0.71c-0.05,0.23-0.12,0.44-0.21,0.64c-0.09,0.2-0.2,0.37-0.33,0.52c-0.13,0.15-0.25,0.27-0.37,0.36
		c-0.12,0.09-0.26,0.16-0.42,0.22c-0.16,0.06-0.37,0.14-0.63,0.23l0.37,0.89c0.12,0.28,0.34,0.79,0.67,1.52l0.54,1.19
		c0.03,0.06,0.11,0.27,0.26,0.61c-0.44-0.01-0.73-0.01-0.87-0.01c-0.17,0-0.48,0-0.91,0.01l-0.6-1.79c-0.1-0.27-0.23-0.59-0.38-0.97
		l-0.65-1.63c-0.06-0.15-0.15-0.38-0.27-0.69c0.24,0.05,0.46,0.08,0.66,0.08c0.31,0,0.59-0.06,0.84-0.19
		c0.25-0.12,0.45-0.32,0.59-0.58c0.14-0.26,0.2-0.55,0.2-0.86c0-0.19-0.03-0.36-0.09-0.52c-0.06-0.16-0.16-0.3-0.3-0.41
		c-0.14-0.11-0.31-0.18-0.5-0.21c-0.19-0.03-0.39-0.05-0.58-0.05c-0.11,0-0.25,0-0.44,0.01c-0.19,0-0.42,0.01-0.69,0.01l-0.1,2.76
		l-0.1,5.04l-0.83-0.01c-0.13,0-0.4,0-0.81,0.01c0.11-1.33,0.19-2.87,0.24-4.6c0.05-1.73,0.08-3.25,0.08-4.57
		c0.43,0.01,0.79,0.01,1.08,0.01c0.31,0,0.62-0.01,0.92-0.02c0.3-0.01,0.61-0.02,0.95-0.02c0.42,0,0.79,0.03,1.11,0.09
		c0.33,0.06,0.62,0.19,0.87,0.4C94.12,90.81,94.31,91.06,94.44,91.36z M101.24,90.14l1.03-0.01c-0.04,0.64-0.05,1.13-0.05,1.47
		c-0.65-0.04-1.27-0.06-1.86-0.06h-0.41l-0.06,1.23l-0.15,4.72l-0.01,0.79c0,0.33-0.01,0.67-0.01,1.02l-0.82-0.01
		c-0.09,0-0.38,0-0.88,0.01l0.12-1.96l0.12-2.92l0.08-2.87h-0.38l-0.35,0.01l-0.33,0.01l-1.24,0.05c0.03-0.64,0.04-1.13,0.05-1.47
		c1.03,0.01,2.11,0.01,3.24,0.01L101.24,90.14z M108.35,89.28c-0.19-0.01-0.38-0.01-0.58-0.01c-0.18,0-0.36,0-0.55,0.01l0.2-0.62
		c0.04-0.13,0.09-0.29,0.15-0.48s0.11-0.37,0.17-0.53c0.29,0.01,0.56,0.01,0.8,0.01c0.2,0,0.47,0,0.81-0.01
		c-0.24,0.37-0.42,0.66-0.54,0.87L108.35,89.28z M110.67,91.14c-0.38-0.41-0.81-0.71-1.31-0.9c-0.49-0.18-1-0.27-1.54-0.27
		c-0.62,0-1.19,0.11-1.73,0.33c-0.54,0.22-1,0.54-1.4,0.97c-0.4,0.42-0.7,0.96-0.91,1.61c-0.21,0.65-0.31,1.33-0.31,2.04
		c0,0.65,0.08,1.25,0.25,1.81c0.16,0.56,0.44,1.05,0.82,1.48c0.38,0.43,0.84,0.75,1.36,0.95c0.53,0.2,1.08,0.3,1.65,0.3
		c0.6,0,1.18-0.11,1.73-0.33c0.55-0.22,1.02-0.56,1.4-1.01c0.38-0.45,0.67-1,0.85-1.62s0.27-1.29,0.27-1.98
		c0-0.73-0.1-1.38-0.29-1.93S111.05,91.56,110.67,91.14z M110.01,95.96c-0.12,0.44-0.29,0.81-0.53,1.12
		c-0.23,0.31-0.51,0.54-0.84,0.69s-0.66,0.23-1.02,0.23c-0.47,0-0.91-0.13-1.31-0.39c-0.4-0.26-0.7-0.63-0.9-1.12
		c-0.2-0.49-0.29-1.03-0.29-1.61c0-0.63,0.1-1.21,0.3-1.75c0.2-0.54,0.5-0.96,0.9-1.28c0.4-0.31,0.87-0.47,1.41-0.47
		c0.34,0,0.67,0.07,0.99,0.21c0.31,0.14,0.58,0.36,0.8,0.65c0.22,0.29,0.39,0.64,0.49,1.05c0.11,0.41,0.16,0.83,0.16,1.28
		C110.18,95.07,110.13,95.52,110.01,95.96z M120.43,90.15c0.07,0,0.32,0,0.75-0.01l-0.13,2.46l-0.17,4.22l-0.06,2.48
		c-0.37-0.01-0.69-0.01-0.95-0.01c-0.21,0-0.54,0-1.01,0.01c-0.18-0.4-0.32-0.69-0.41-0.89c-0.15-0.29-0.46-0.9-0.94-1.83
		c-0.32-0.61-0.71-1.39-1.18-2.34c-0.35-0.7-0.65-1.31-0.89-1.83c-0.03,0.72-0.07,2.07-0.13,4.04c-0.02,0.8-0.04,1.75-0.06,2.84
		c-0.34-0.01-0.58-0.01-0.73-0.01c-0.12,0-0.38,0-0.79,0.01c0.07-0.8,0.12-1.7,0.16-2.7l0.12-3.29c0.04-1.19,0.06-2.25,0.06-3.18
		c0.42,0.01,0.77,0.01,1.06,0.01c0.21,0,0.53,0,0.94-0.01c0.4,0.88,0.96,2.03,1.68,3.45s1.29,2.59,1.73,3.53l0.2-6.23
		c0-0.15,0.01-0.4,0.01-0.75C120,90.14,120.26,90.15,120.43,90.15z M124.22,97.99c0.13,0,0.39,0,0.79-0.01
		c-0.14,0.3-0.29,0.62-0.45,0.94c-0.16,0.32-0.32,0.66-0.49,1.02c-0.17,0.36-0.32,0.68-0.45,0.95c-0.23-0.01-0.4-0.01-0.51-0.01
		c-0.14,0-0.31,0.01-0.53,0.02c0.24-0.84,0.51-1.81,0.81-2.91C123.78,97.99,124.06,97.99,124.22,97.99z M133.74,97.04
		c0.02,0.12,0.03,0.24,0.03,0.38c0,0.31-0.06,0.6-0.17,0.87c-0.11,0.27-0.28,0.5-0.49,0.67s-0.45,0.3-0.7,0.37s-0.52,0.1-0.81,0.1
		c-0.19,0-0.41-0.02-0.65-0.06s-0.58-0.12-0.98-0.23c-0.02-0.56-0.05-1.01-0.09-1.36c0.57,0.33,1.1,0.49,1.56,0.49
		c0.19,0,0.36-0.04,0.53-0.11c0.16-0.07,0.28-0.17,0.36-0.3c0.08-0.13,0.12-0.28,0.12-0.44c0-0.12-0.02-0.24-0.06-0.33
		c-0.06-0.14-0.15-0.28-0.28-0.42c-0.17-0.2-0.47-0.53-0.9-0.99c-0.21-0.22-0.35-0.38-0.42-0.48c-0.18-0.21-0.31-0.4-0.4-0.56
		s-0.16-0.33-0.2-0.5s-0.06-0.34-0.06-0.53c0-0.34,0.08-0.67,0.23-0.97c0.15-0.3,0.38-0.54,0.69-0.71c0.31-0.17,0.69-0.25,1.16-0.25
		c0.42,0,0.89,0.06,1.42,0.19c0.01,0.38,0.04,0.82,0.09,1.31c-0.46-0.22-0.88-0.33-1.26-0.33c-0.29,0-0.52,0.08-0.7,0.24
		c-0.18,0.16-0.27,0.35-0.27,0.57c0,0.06,0.01,0.12,0.02,0.18s0.03,0.13,0.06,0.19c0.03,0.06,0.07,0.14,0.14,0.24
		c0.07,0.1,0.16,0.21,0.29,0.34c0.13,0.13,0.23,0.24,0.32,0.32l0.54,0.62c0.14,0.14,0.26,0.28,0.37,0.42
		c0.11,0.14,0.2,0.27,0.28,0.39c0.08,0.12,0.14,0.24,0.18,0.36C133.69,96.81,133.72,96.92,133.74,97.04z M136.11,97.83
		c0.06,0,0.25,0,0.58-0.01c-0.01,0.27-0.03,0.54-0.04,0.81l-0.03,0.67l-0.58-0.01c-0.02,0-0.24,0-0.65,0.01
		c0.01-0.26,0.03-0.76,0.05-1.48L136.11,97.83z M142.06,98.14c0.22,0,0.44-0.02,0.66-0.03c-0.03,0.36-0.05,0.76-0.07,1.19
		c-0.77-0.01-1.43-0.01-1.98-0.01l-1.38,0l-0.83,0.01c0.09-1.1,0.16-2.33,0.21-3.68c0.05-1.35,0.08-2.62,0.09-3.81
		c0.3,0.01,0.55,0.01,0.75,0.01c0.14,0,0.35,0,0.65-0.01c-0.04,0.66-0.07,1.41-0.11,2.25l-0.09,2.2c-0.03,0.63-0.05,1.26-0.06,1.88
		l0.76,0.01C141.37,98.15,141.84,98.14,142.06,98.14z M144.71,97.83c0.06,0,0.25,0,0.58-0.01c-0.01,0.27-0.03,0.54-0.04,0.81
		l-0.03,0.67l-0.58-0.01c-0.02,0-0.24,0-0.65,0.01c0.01-0.26,0.03-0.76,0.05-1.48L144.71,97.83z"/>
	<g id="LOGO_ECO_1_">
	</g>
</g>
</svg>
