<?xml version="1.0" encoding="utf-8"?>
<!-- Generator: Adobe Illustrator 28.0.0, SVG Export Plug-In . SVG Version: 6.00 Build 0)  -->
<svg version="1.1" xmlns="http://www.w3.org/2000/svg" xmlns:xlink="http://www.w3.org/1999/xlink" x="0px" y="0px"
	 viewBox="0 0 121.9 155.61" style="enable-background:new 0 0 121.9 155.61;" xml:space="preserve">
<style type="text/css">
	.st0{fill:#E8E8E8;}
	.st1{fill:#FB3449;}
	.st2{fill:#A4A9AD;}
	.st3{fill:#D1D3D3;}
</style>
<g id="Capa_1">
</g>
<g id="Layer_1">
	<g>
		<polygon class="st0" points="95.97,0 0,0 0,155.61 121.9,155.61 121.9,25.93 		"/>
		<path class="st1" d="M101.2,76.95c-1.87-3.33-8.33-4.38-11.29-4.85c-2.34-0.37-4.72-0.48-7.08-0.48
			c-1.86-0.01-3.68,0.08-5.49,0.18c-0.67,0.04-1.32,0.1-1.98,0.16c-0.67-0.7-1.33-1.42-1.96-2.16c-4.01-4.75-7.25-10.14-9.89-15.74
			c0.7-2.71,1.26-5.53,1.6-8.46c0.62-5.35,0.83-11.45-1.17-16.55c-0.69-1.76-2.54-3.9-4.67-2.84c-2.45,1.23-3.14,4.71-3.34,7.17
			c-0.16,1.99-0.05,3.99,0.29,5.95c0.34,1.97,0.89,3.85,1.49,5.72c0.56,1.72,1.17,3.42,1.84,5.1c-0.42,1.33-0.88,2.63-1.35,3.9
			c-1.1,2.9-2.3,5.65-3.45,8.29c-0.61,1.31-1.2,2.6-1.78,3.85c-1.84,4.03-3.83,7.99-6.06,11.81C41.68,79.86,37,82,33.11,84.5
			c-2.09,1.35-3.93,2.81-5.46,4.42c-1.45,1.52-2.92,3.48-3.05,5.66c-0.07,1.23,0.41,2.42,1.42,3.15c1.38,1.03,3.22,0.97,4.82,0.63
			c5.26-1.1,9.3-5.63,12.74-9.44c2.37-2.63,5.07-5.96,7.89-9.99c0.01-0.01,0.01-0.02,0.02-0.03c4.84-1.5,10.11-2.77,15.69-3.7
			c2.55-0.42,5.17-0.77,7.85-1.01c1.88,1.76,3.91,3.36,6.13,4.7c1.73,1.06,3.56,1.96,5.48,2.63c1.94,0.63,3.9,1.15,5.92,1.48
			c1.02,0.15,2.06,0.21,3.13,0.17c2.38-0.09,5.79-1,6.01-3.89C101.77,78.41,101.58,77.63,101.2,76.95z M44.29,82.24
			c-1.11,1.72-2.19,3.28-3.2,4.64c-2.48,3.37-5.31,7.37-9.4,8.87c-0.78,0.28-1.8,0.58-2.88,0.51c-0.96-0.06-1.91-0.48-1.87-1.57
			c0.02-0.57,0.3-1.3,0.73-2.02c0.47-0.79,1.05-1.51,1.68-2.17c1.35-1.42,3.06-2.79,5.02-4.06c3.01-1.95,6.6-3.71,10.61-5.28
			C44.75,81.53,44.52,81.89,44.29,82.24z M58.27,39c-0.31-1.8-0.36-3.63-0.17-5.39c0.09-0.88,0.27-1.74,0.53-2.54
			c0.22-0.68,0.69-2.35,1.45-2.56c1.25-0.35,1.63,2.32,1.77,3.08c0.8,4.31,0.1,9.1-0.87,13.33c-0.15,0.67-0.32,1.33-0.5,1.99
			c-0.3-0.82-0.58-1.65-0.85-2.47C59.08,42.62,58.56,40.79,58.27,39z M66.83,73.02c-4.69,0.76-9.14,1.75-13.33,2.93
			c0.5-0.14,2.81-4.51,3.32-5.42c2.42-4.27,4.41-8.75,5.83-13.45c2.51,4.97,5.57,9.73,9.32,13.97c0.35,0.38,0.7,0.76,1.05,1.14
			C70.92,72.42,68.85,72.69,66.83,73.02z M98.52,79.02c-0.17,0.93-2.15,1.46-3.07,1.6c-2.73,0.43-5.61,0.09-8.23-0.79
			c-1.79-0.6-3.52-1.42-5.16-2.41c-1.63-0.99-3.16-2.15-4.59-3.42c1.76-0.11,3.54-0.18,5.33-0.14c1.79,0.02,3.59,0.11,5.38,0.34
			c3.34,0.37,7.09,1.52,9.72,3.69C98.41,78.31,98.58,78.69,98.52,79.02z"/>
		<polygon class="st1" points="99.98,12.97 0,12.97 0,0 95.97,0 		"/>
		<g>
			<path class="st2" d="M48.24,123.77c0,2.75-0.81,4.88-2.43,6.37c-1.62,1.5-3.93,2.25-6.91,2.25h-1.87v8.17h-6.65v-24.62h8.52
				c3.11,0,5.45,0.68,7.01,2.04C47.46,119.33,48.24,121.26,48.24,123.77z M37.03,126.97h1.21c1,0,1.79-0.28,2.38-0.84
				c0.59-0.56,0.88-1.34,0.88-2.32c0-1.66-0.92-2.49-2.76-2.49h-1.72C37.03,121.31,37.03,126.97,37.03,126.97z"/>
			<path class="st2" d="M73.07,127.73c0,4.11-1.13,7.28-3.39,9.5c-2.26,2.22-5.44,3.34-9.54,3.34h-7.97v-24.62h8.52
				c3.95,0,7,1.01,9.15,3.03C72,120.99,73.07,123.91,73.07,127.73z M66.17,127.96c0-2.26-0.45-3.93-1.34-5.02
				c-0.89-1.09-2.25-1.63-4.07-1.63h-1.94v13.79h1.48c2.02,0,3.5-0.59,4.45-1.76C65.69,132.17,66.17,130.38,66.17,127.96z"/>
			<path class="st2" d="M84.04,140.56h-6.55v-24.62h14.55v5.34h-8v4.7h7.38v5.34h-7.38L84.04,140.56L84.04,140.56z"/>
		</g>
		<polygon class="st3" points="95.97,25.93 121.9,25.93 95.97,0 		"/>
	</g>
</g>
</svg>
