{
	"asset":{
		"generator":"Khronos glTF Blender I/O v3.6.27",
		"version":"2.0"
	},
	"extensionsUsed":[
		"KHR_materials_specular",
		"KHR_materials_ior"
	],
	"scene":0,
	"scenes":[
		{
			"name":"Scene",
			"nodes":[
				0
			]
		}
	],
	"nodes":[
		{
			"mesh":0,
			"name":"TQ_ARD-node"
		}
	],
	"materials":[
		{
			"doubleSided":true,
			"extensions":{
				"KHR_materials_specular":{
					"specularColorFactor":[
						0,
						0,
						0
					]
				},
				"KHR_materials_ior":{
					"ior":0
				}
			},
			"name":"TQ_ARD_front.001",
			"pbrMetallicRoughness":{
				"baseColorTexture":{
					"index":0
				},
				"metallicFactor":0
			}
		},
		{
			"doubleSided":true,
			"extensions":{
				"KHR_materials_specular":{
					"specularColorFactor":[
						0,
						0,
						0
					]
				},
				"KHR_materials_ior":{
					"ior":0
				}
			},
			"name":"TQ_ARD_back.001",
			"pbrMetallicRoughness":{
				"baseColorTexture":{
					"index":1
				},
				"metallicFactor":0,
				"roughnessFactor":0.5
			}
		},
		{
			"doubleSided":true,
			"extensions":{
				"KHR_materials_specular":{
					"specularColorFactor":[
						0,
						0,
						0
					]
				},
				"KHR_materials_ior":{
					"ior":0
				}
			},
			"name":"TQ_ARD_edge.001",
			"pbrMetallicRoughness":{
				"baseColorTexture":{
					"index":2
				},
				"metallicFactor":0,
				"roughnessFactor":0.5
			}
		}
	],
	"meshes":[
		{
			"name":"TQ_ARD-geom.001",
			"primitives":[
				{
					"attributes":{
						"POSITION":0,
						"NORMAL":1,
						"TEXCOORD_0":2
					},
					"indices":3,
					"material":0
				},
				{
					"attributes":{
						"POSITION":4,
						"NORMAL":5,
						"TEXCOORD_0":6
					},
					"indices":7,
					"material":1
				},
				{
					"attributes":{
						"POSITION":8,
						"NORMAL":9,
						"TEXCOORD_0":10
					},
					"indices":11,
					"material":2
				}
			]
		}
	],
	"textures":[
		{
			"sampler":0,
			"source":0
		},
		{
			"sampler":0,
			"source":1
		},
		{
			"sampler":0,
			"source":2
		}
	],
	"images":[
		{
			"bufferView":4,
			"mimeType":"image/jpeg",
			"name":"1"
		},
		{
			"bufferView":9,
			"mimeType":"image/png",
			"name":"TQ_ARD-I2"
		},
		{
			"bufferView":14,
			"mimeType":"image/png",
			"name":"TQ_ARD-I1.png"
		}
	],
	"accessors":[
		{
			"bufferView":0,
			"componentType":5126,
			"count":472,
			"max":[
				0.15135380625724792,
				0.19646230340003967,
				0.2009449154138565
			],
			"min":[
				-0.1758529245853424,
				0.003693617880344391,
				-0.20626485347747803
			],
			"type":"VEC3"
		},
		{
			"bufferView":1,
			"componentType":5126,
			"count":472,
			"type":"VEC3"
		},
		{
			"bufferView":2,
			"componentType":5126,
			"count":472,
			"type":"VEC2"
		},
		{
			"bufferView":3,
			"componentType":5123,
			"count":2046,
			"type":"SCALAR"
		},
		{
			"bufferView":5,
			"componentType":5126,
			"count":559,
			"max":[
				0.1491590291261673,
				0.19196505844593048,
				0.1987600475549698
			],
			"min":[
				-0.17365792393684387,
				0.005987100303173065,
				-0.20407944917678833
			],
			"type":"VEC3"
		},
		{
			"bufferView":6,
			"componentType":5126,
			"count":559,
			"type":"VEC3"
		},
		{
			"bufferView":7,
			"componentType":5126,
			"count":559,
			"type":"VEC2"
		},
		{
			"bufferView":8,
			"componentType":5123,
			"count":2046,
			"type":"SCALAR"
		},
		{
			"bufferView":10,
			"componentType":5126,
			"count":529,
			"max":[
				0.15007367730140686,
				0.19646230340003967,
				0.19976843893527985
			],
			"min":[
				-0.17585283517837524,
				0.0037074387073516846,
				-0.20497873425483704
			],
			"type":"VEC3"
		},
		{
			"bufferView":11,
			"componentType":5126,
			"count":529,
			"type":"VEC3"
		},
		{
			"bufferView":12,
			"componentType":5126,
			"count":529,
			"type":"VEC2"
		},
		{
			"bufferView":13,
			"componentType":5123,
			"count":864,
			"type":"SCALAR"
		}
	],
	"bufferViews":[
		{
			"buffer":0,
			"byteLength":5664,
			"byteOffset":0,
			"target":34962
		},
		{
			"buffer":0,
			"byteLength":5664,
			"byteOffset":5664,
			"target":34962
		},
		{
			"buffer":0,
			"byteLength":3776,
			"byteOffset":11328,
			"target":34962
		},
		{
			"buffer":0,
			"byteLength":4092,
			"byteOffset":15104,
			"target":34963
		},
		{
			"buffer":0,
			"byteLength":546245,
			"byteOffset":19196
		},
		{
			"buffer":0,
			"byteLength":6708,
			"byteOffset":565444,
			"target":34962
		},
		{
			"buffer":0,
			"byteLength":6708,
			"byteOffset":572152,
			"target":34962
		},
		{
			"buffer":0,
			"byteLength":4472,
			"byteOffset":578860,
			"target":34962
		},
		{
			"buffer":0,
			"byteLength":4092,
			"byteOffset":583332,
			"target":34963
		},
		{
			"buffer":0,
			"byteLength":242658,
			"byteOffset":587424
		},
		{
			"buffer":0,
			"byteLength":6348,
			"byteOffset":830084,
			"target":34962
		},
		{
			"buffer":0,
			"byteLength":6348,
			"byteOffset":836432,
			"target":34962
		},
		{
			"buffer":0,
			"byteLength":4232,
			"byteOffset":842780,
			"target":34962
		},
		{
			"buffer":0,
			"byteLength":1728,
			"byteOffset":847012,
			"target":34963
		},
		{
			"buffer":0,
			"byteLength":223603,
			"byteOffset":848740
		}
	],
	"samplers":[
		{
			"magFilter":9729,
			"minFilter":9987
		}
	],
	"buffers":[
		{
			"byteLength":1072344,
			"uri":"data:application/octet-stream;base64,"
		}
	]
}
