{"extensionsUsed" : ["KHR_materials_specular", "KHR_materials_ior"], "accessors" : [{"bufferView" : 0, "byteOffset" : 0, "componentType" : 5123, "count" : 4032, "type" : "SCALAR", "max" : [3437], "min" : [0]}, {"bufferView" : 1, "byteOffset" : 0, "componentType" : 5126, "count" : 3438, "type" : "VEC3", "max" : [0.805691659450531, 1.371254324913025, 0.5274404287338257], "min" : [-0.5906433463096619, 0.00822293758392334, -0.5283034443855286], "name" : "POSITION"}, {"bufferView" : 1, "byteOffset" : 12, "componentType" : 5126, "count" : 3438, "type" : "VEC3", "max" : [1.0000044107437134, 1.0000044107437134, 1.0000044107437134], "min" : [-0.9528038501739502, -0.7245283126831055, -0.8225904107093811], "name" : "NORMAL"}, {"bufferView" : 1, "byteOffset" : 24, "componentType" : 5126, "count" : 3438, "type" : "VEC2", "max" : [1, 0.9999364018440247], "min" : [6.359558756230399E-05, 6.35981559753418E-05], "name" : "TEXCOORD_0"}, {"bufferView" : 0, "byteOffset" : 8064, "componentType" : 5123, "count" : 7224, "type" : "SCALAR", "max" : [6019], "min" : [0]}, {"bufferView" : 2, "byteOffset" : 0, "componentType" : 5126, "count" : 6020, "type" : "VEC3", "max" : [0.805691659450531, 1.371254324913025, 0.5274404287338257], "min" : [-0.5906433463096619, 0.00822293758392334, -0.530428946018219], "name" : "POSITION"}, {"bufferView" : 2, "byteOffset" : 12, "componentType" : 5126, "count" : 6020, "type" : "VEC3", "max" : [1.0000044107437134, 1.0000044107437134, 1.0000044107437134], "min" : [-1.0000044107437134, -1.0000044107437134, -1.0000044107437134], "name" : "NORMAL"}, {"bufferView" : 2, "byteOffset" : 24, "componentType" : 5126, "count" : 6020, "type" : "VEC2", "max" : [14.910562515258789, 1], "min" : [-13.207721710205078, 0], "name" : "TEXCOORD_0"}, {"bufferView" : 0, "byteOffset" : 22512, "componentType" : 5123, "count" : 3036, "type" : "SCALAR", "max" : [2479], "min" : [0]}, {"bufferView" : 3, "byteOffset" : 0, "componentType" : 5126, "count" : 2480, "type" : "VEC3", "max" : [0.805691659450531, 1.371254324913025, 0.5252290368080139], "min" : [-0.5905702710151672, 0.00822293758392334, -0.530428946018219], "name" : "POSITION"}, {"bufferView" : 3, "byteOffset" : 12, "componentType" : 5126, "count" : 2480, "type" : "VEC3", "max" : [0.9528038501739502, -0, 0.8196206092834473], "min" : [-1.0000044107437134, -1.0000044107437134, -1.0000044107437134], "name" : "NORMAL"}, {"bufferView" : 3, "byteOffset" : 24, "componentType" : 5126, "count" : 2480, "type" : "VEC2", "max" : [1, 1], "min" : [0, 6.35385513305664E-05], "name" : "TEXCOORD_0"}], "asset" : {"generator" : "Aspose.3D 23.11.1", "version" : "2.0"}, "buffers" : [{"uri" : "data:application/octet-stream;base64,", "byteLength" : 485944}], "bufferViews" : [{"buffer" : 0, "byteOffset" : 0, "byteLength" : 28584, "target" : 34963}, {"buffer" : 0, "byteOffset" : 28588, "byteLength" : 129024, "byteStride" : 32, "target" : 34962}, {"buffer" : 0, "byteOffset" : 157616, "byteLength" : 231168, "byteStride" : 32, "target" : 34962}, {"buffer" : 0, "byteOffset" : 388788, "byteLength" : 97152, "byteStride" : 32, "target" : 34962}], "images" : [{"uri" : "data:image/png;base64,"}], "materials" : [{"name" : "back-dil", "extensions" : {"KHR_materials_specular" : {"specularFactor" : 0}, "KHR_materials_ior" : {"ior" : 0}}, "pbrMetallicRoughness" : {"baseColorFactor" : [0.7467782497406006, 0.49284493923187256, 0.25764700770378113, 1], "metallicFactor" : 1, "roughnessFactor" : 0.5}, "emissiveFactor" : [0, 0, 0], "alphaMode" : "OPAQUE", "doubleSided" : true}, {"name" : "Material.001", "pbrMetallicRoughness" : {"baseColorFactor" : [1, 1, 1, 1], "baseColorTexture" : {"index" : 0, "texCoord" : 0}, "metallicFactor" : 0, "roughnessFactor" : 0.5}, "emissiveFactor" : [0, 0, 0], "alphaMode" : "OPAQUE", "doubleSided" : true}, {"name" : "Material.002", "extensions" : {"KHR_materials_specular" : {"specularFactor" : 0}, "KHR_materials_ior" : {"ior" : 0}}, "pbrMetallicRoughness" : {"baseColorFactor" : [0.7467876672744751, 0.4904869794845581, 0.28357750177383423, 1], "metallicFactor" : 1, "roughnessFactor" : 0.5}, "emissiveFactor" : [0, 0, 0], "alphaMode" : "OPAQUE", "doubleSided" : true}], "meshes" : [{"primitives" : [{"attributes" : {"POSITION" : 1, "NORMAL" : 2, "TEXCOORD_0" : 3}, "indices" : 0, "material" : 0, "mode" : 4}, {"attributes" : {"POSITION" : 5, "NORMAL" : 6, "TEXCOORD_0" : 7}, "indices" : 4, "material" : 1, "mode" : 4}, {"attributes" : {"POSITION" : 9, "NORMAL" : 10, "TEXCOORD_0" : 11}, "indices" : 8, "material" : 2, "mode" : 4}]}], "nodes" : [{"mesh" : 0, "name" : "Curve.035"}], "samplers" : [{"magFilter" : 9729, "minFilter" : 9987, "wrapS" : 10497, "wrapT" : 10497}], "scene" : 0, "scenes" : [{"nodes" : [0]}], "textures" : [{"sampler" : 0, "source" : 0, "name" : ""}]}