{
    "asset" : {
        "generator" : "Khronos glTF Blender I/O v3.4.50",
        "version" : "2.0"
    },
    "extensionsUsed" : [
        "KHR_materials_specular",
        "KHR_materials_ior"
    ],
    "scene" : 0,
    "scenes" : [
        {
            "name" : "Scene",
            "nodes" : [
                0,
                1,
                2,
                3,
                4,
                5,
                6
            ]
        }
    ],
    "nodes" : [
        {
            "mesh" : 0,
            "name" : "Plano.001"
        },
        {
            "mesh" : 1,
            "name" : "Plano.002"
        },
        {
            "mesh" : 2,
            "name" : "Plano.003"
        },
        {
            "mesh" : 3,
            "name" : "Texto",
            "rotation" : [
                0.5,
                0.5,
                -0.4999999403953552,
                0.5000000596046448
            ],
            "translation" : [
                0.7115529775619507,
                0.0005055428482592106,
                0.08354674279689789
            ]
        },
        {
            "mesh" : 4,
            "name" : "Texto.001",
            "rotation" : [
                0.5,
                0.5,
                -0.4999999403953552,
                0.5000000596046448
            ],
            "translation" : [
                -0.007539898157119751,
                0.0005057752132415771,
                0.7066317796707153
            ]
        },
        {
            "mesh" : 5,
            "name" : "Texto.002",
            "rotation" : [
                0.7071068286895752,
                0,
                0,
                0.7071068286895752
            ],
            "translation" : [
                0.6203151345252991,
                0.16624057292938232,
                -0.4816701114177704
            ]
        },
        {
            "mesh" : 6,
            "name" : "_1X0304_ARD-node"
        }
    ],
    "materials" : [
        {
            "doubleSided" : true,
            "name" : "Material.001",
            "pbrMetallicRoughness" : {
                "baseColorFactor" : [
                    0.4902293384075165,
                    0.021092573180794716,
                    0,
                    1
                ],
                "metallicFactor" : 0
            }
        },
        {
            "doubleSided" : true,
            "extensions" : {
                "KHR_materials_specular" : {
                    "specularColorFactor" : [
                        0,
                        0,
                        0
                    ]
                },
                "KHR_materials_ior" : {
                    "ior" : 0
                }
            },
            "name" : "back-dil",
            "pbrMetallicRoughness" : {
                "baseColorFactor" : [
                    0.5936051607131958,
                    0.3625999093055725,
                    0.11702477186918259,
                    1
                ],
                "metallicFactor" : 0
            }
        },
        {
            "doubleSided" : true,
            "extensions" : {
                "KHR_materials_specular" : {
                    "specularColorFactor" : [
                        0,
                        0,
                        0
                    ]
                },
                "KHR_materials_ior" : {
                    "ior" : 0
                }
            },
            "name" : "back-dil.001",
            "pbrMetallicRoughness" : {
                "baseColorFactor" : [
                    1,
                    0.6785867214202881,
                    0.32504355907440186,
                    1
                ],
                "metallicFactor" : 0
            }
        },
        {
            "doubleSided" : true,
            "extensions" : {
                "KHR_materials_specular" : {
                    "specularColorFactor" : [
                        0,
                        0,
                        0
                    ]
                },
                "KHR_materials_ior" : {
                    "ior" : 0
                }
            },
            "name" : "_1X0304_ARD_edge",
            "pbrMetallicRoughness" : {
                "baseColorTexture" : {
                    "index" : 0
                },
                "metallicFactor" : 0,
                "roughnessFactor" : 0.5
            }
        }
    ],
    "meshes" : [
        {
            "name" : "Plano",
            "primitives" : [
                {
                    "attributes" : {
                        "POSITION" : 0,
                        "TEXCOORD_0" : 1,
                        "NORMAL" : 2
                    },
                    "indices" : 3,
                    "material" : 0
                }
            ]
        },
        {
            "name" : "Plano.001",
            "primitives" : [
                {
                    "attributes" : {
                        "POSITION" : 4,
                        "TEXCOORD_0" : 5,
                        "NORMAL" : 6
                    },
                    "indices" : 7,
                    "material" : 0
                }
            ]
        },
        {
            "name" : "Plano.002",
            "primitives" : [
                {
                    "attributes" : {
                        "POSITION" : 8,
                        "TEXCOORD_0" : 9,
                        "NORMAL" : 10
                    },
                    "indices" : 11,
                    "material" : 0
                }
            ]
        },
        {
            "name" : "Texto",
            "primitives" : [
                {
                    "attributes" : {
                        "POSITION" : 12,
                        "TEXCOORD_0" : 13,
                        "NORMAL" : 14
                    },
                    "indices" : 15,
                    "material" : 0
                }
            ]
        },
        {
            "name" : "Texto.001",
            "primitives" : [
                {
                    "attributes" : {
                        "POSITION" : 16,
                        "TEXCOORD_0" : 17,
                        "NORMAL" : 18
                    },
                    "indices" : 19,
                    "material" : 0
                }
            ]
        },
        {
            "name" : "Texto.002",
            "primitives" : [
                {
                    "attributes" : {
                        "POSITION" : 20,
                        "TEXCOORD_0" : 21,
                        "NORMAL" : 22
                    },
                    "indices" : 23,
                    "material" : 0
                }
            ]
        },
        {
            "name" : "_1X0304_ARD-geom",
            "primitives" : [
                {
                    "attributes" : {
                        "POSITION" : 24,
                        "TEXCOORD_0" : 25,
                        "NORMAL" : 26
                    },
                    "indices" : 27,
                    "material" : 1
                },
                {
                    "attributes" : {
                        "POSITION" : 28,
                        "TEXCOORD_0" : 29,
                        "NORMAL" : 30
                    },
                    "indices" : 31,
                    "material" : 2
                },
                {
                    "attributes" : {
                        "POSITION" : 32,
                        "TEXCOORD_0" : 33,
                        "NORMAL" : 34
                    },
                    "indices" : 35,
                    "material" : 3
                }
            ]
        }
    ],
    "textures" : [
        {
            "sampler" : 0,
            "source" : 0
        }
    ],
    "images" : [
        {
            "bufferView" : 36,
            "mimeType" : "image/png",
            "name" : "_1X0304_ARD-I1"
        }
    ],
    "accessors" : [
        {
            "bufferView" : 0,
            "componentType" : 5126,
            "count" : 144,
            "max" : [
                0.6629261374473572,
                0.0017309514805674553,
                0.49618569016456604
            ],
            "min" : [
                0.5968748927116394,
                -2.852175384759903e-09,
                -0.514830470085144
            ],
            "type" : "VEC3"
        },
        {
            "bufferView" : 1,
            "componentType" : 5126,
            "count" : 144,
            "type" : "VEC2"
        },
        {
            "bufferView" : 2,
            "componentType" : 5126,
            "count" : 144,
            "type" : "VEC3"
        },
        {
            "bufferView" : 3,
            "componentType" : 5123,
            "count" : 216,
            "type" : "SCALAR"
        },
        {
            "bufferView" : 4,
            "componentType" : 5126,
            "count" : 144,
            "max" : [
                0.5830748081207275,
                0.001730951713398099,
                0.582004964351654
            ],
            "min" : [
                -0.5899538993835449,
                -2.852175384759903e-09,
                0.5159537196159363
            ],
            "type" : "VEC3"
        },
        {
            "bufferView" : 5,
            "componentType" : 5126,
            "count" : 144,
            "type" : "VEC2"
        },
        {
            "bufferView" : 6,
            "componentType" : 5126,
            "count" : 144,
            "type" : "VEC3"
        },
        {
            "bufferView" : 7,
            "componentType" : 5123,
            "count" : 216,
            "type" : "SCALAR"
        },
        {
            "bufferView" : 8,
            "componentType" : 5126,
            "count" : 144,
            "max" : [
                0.6629261374473572,
                0.1300233155488968,
                -0.5128182768821716
            ],
            "min" : [
                0.5968749523162842,
                -7.753260433673859e-08,
                -0.5145492553710938
            ],
            "type" : "VEC3"
        },
        {
            "bufferView" : 9,
            "componentType" : 5126,
            "count" : 144,
            "type" : "VEC2"
        },
        {
            "bufferView" : 10,
            "componentType" : 5126,
            "count" : 144,
            "type" : "VEC3"
        },
        {
            "bufferView" : 11,
            "componentType" : 5123,
            "count" : 216,
            "type" : "SCALAR"
        },
        {
            "bufferView" : 12,
            "componentType" : 5126,
            "count" : 724,
            "max" : [
                0.1106577217578888,
                0.0010000000474974513,
                0.0005055429064668715
            ],
            "min" : [
                0.011346629820764065,
                -0.0010000000474974513,
                -0.03881446272134781
            ],
            "type" : "VEC3"
        },
        {
            "bufferView" : 13,
            "componentType" : 5126,
            "count" : 724,
            "type" : "VEC2"
        },
        {
            "bufferView" : 14,
            "componentType" : 5126,
            "count" : 724,
            "type" : "VEC3"
        },
        {
            "bufferView" : 15,
            "componentType" : 5123,
            "count" : 1284,
            "type" : "SCALAR"
        },
        {
            "bufferView" : 16,
            "componentType" : 5126,
            "count" : 1206,
            "max" : [
                0.10886023193597794,
                0.0010000000474974513,
                0.0005055429064668715
            ],
            "min" : [
                0.011346629820764065,
                -0.0010000000474974513,
                -0.03881446272134781
            ],
            "type" : "VEC3"
        },
        {
            "bufferView" : 17,
            "componentType" : 5126,
            "count" : 1206,
            "type" : "VEC2"
        },
        {
            "bufferView" : 18,
            "componentType" : 5126,
            "count" : 1206,
            "type" : "VEC3"
        },
        {
            "bufferView" : 19,
            "componentType" : 5123,
            "count" : 2148,
            "type" : "SCALAR"
        },
        {
            "bufferView" : 20,
            "componentType" : 5126,
            "count" : 1654,
            "max" : [
                0.08257200568914413,
                0.0010000000474974513,
                0.0005055429064668715
            ],
            "min" : [
                0.011346629820764065,
                -0.0010000000474974513,
                -0.03881446272134781
            ],
            "type" : "VEC3"
        },
        {
            "bufferView" : 21,
            "componentType" : 5126,
            "count" : 1654,
            "type" : "VEC2"
        },
        {
            "bufferView" : 22,
            "componentType" : 5126,
            "count" : 1654,
            "type" : "VEC3"
        },
        {
            "bufferView" : 23,
            "componentType" : 5123,
            "count" : 2940,
            "type" : "SCALAR"
        },
        {
            "bufferView" : 24,
            "componentType" : 5126,
            "count" : 1845,
            "max" : [
                0.5830016732215881,
                0.1358547955751419,
                0.501704752445221
            ],
            "min" : [
                -0.5901735424995422,
                0.0026797130703926086,
                -0.5164702534675598
            ],
            "type" : "VEC3"
        },
        {
            "bufferView" : 25,
            "componentType" : 5126,
            "count" : 1845,
            "type" : "VEC2"
        },
        {
            "bufferView" : 26,
            "componentType" : 5126,
            "count" : 1845,
            "type" : "VEC3"
        },
        {
            "bufferView" : 27,
            "componentType" : 5123,
            "count" : 2967,
            "type" : "SCALAR"
        },
        {
            "bufferView" : 28,
            "componentType" : 5126,
            "count" : 1724,
            "max" : [
                0.5824141502380371,
                0.1342674195766449,
                0.49965226650238037
            ],
            "min" : [
                -0.5895859599113464,
                0.0027669817209243774,
                -0.514417827129364
            ],
            "type" : "VEC3"
        },
        {
            "bufferView" : 29,
            "componentType" : 5126,
            "count" : 1724,
            "type" : "VEC2"
        },
        {
            "bufferView" : 30,
            "componentType" : 5126,
            "count" : 1724,
            "type" : "VEC3"
        },
        {
            "bufferView" : 31,
            "componentType" : 5123,
            "count" : 2967,
            "type" : "SCALAR"
        },
        {
            "bufferView" : 32,
            "componentType" : 5126,
            "count" : 2117,
            "max" : [
                0.5830016136169434,
                0.1358547955751419,
                0.501704752445221
            ],
            "min" : [
                -0.5901734828948975,
                0.0026797130703926086,
                -0.5164702534675598
            ],
            "type" : "VEC3"
        },
        {
            "bufferView" : 33,
            "componentType" : 5126,
            "count" : 2117,
            "type" : "VEC2"
        },
        {
            "bufferView" : 34,
            "componentType" : 5126,
            "count" : 2117,
            "type" : "VEC3"
        },
        {
            "bufferView" : 35,
            "componentType" : 5123,
            "count" : 4338,
            "type" : "SCALAR"
        }
    ],
    "bufferViews" : [
        {
            "buffer" : 0,
            "byteLength" : 1728,
            "byteOffset" : 0,
            "target" : 34962
        },
        {
            "buffer" : 0,
            "byteLength" : 1152,
            "byteOffset" : 1728,
            "target" : 34962
        },
        {
            "buffer" : 0,
            "byteLength" : 1728,
            "byteOffset" : 2880,
            "target" : 34962
        },
        {
            "buffer" : 0,
            "byteLength" : 432,
            "byteOffset" : 4608,
            "target" : 34963
        },
        {
            "buffer" : 0,
            "byteLength" : 1728,
            "byteOffset" : 5040,
            "target" : 34962
        },
        {
            "buffer" : 0,
            "byteLength" : 1152,
            "byteOffset" : 6768,
            "target" : 34962
        },
        {
            "buffer" : 0,
            "byteLength" : 1728,
            "byteOffset" : 7920,
            "target" : 34962
        },
        {
            "buffer" : 0,
            "byteLength" : 432,
            "byteOffset" : 9648,
            "target" : 34963
        },
        {
            "buffer" : 0,
            "byteLength" : 1728,
            "byteOffset" : 10080,
            "target" : 34962
        },
        {
            "buffer" : 0,
            "byteLength" : 1152,
            "byteOffset" : 11808,
            "target" : 34962
        },
        {
            "buffer" : 0,
            "byteLength" : 1728,
            "byteOffset" : 12960,
            "target" : 34962
        },
        {
            "buffer" : 0,
            "byteLength" : 432,
            "byteOffset" : 14688,
            "target" : 34963
        },
        {
            "buffer" : 0,
            "byteLength" : 8688,
            "byteOffset" : 15120,
            "target" : 34962
        },
        {
            "buffer" : 0,
            "byteLength" : 5792,
            "byteOffset" : 23808,
            "target" : 34962
        },
        {
            "buffer" : 0,
            "byteLength" : 8688,
            "byteOffset" : 29600,
            "target" : 34962
        },
        {
            "buffer" : 0,
            "byteLength" : 2568,
            "byteOffset" : 38288,
            "target" : 34963
        },
        {
            "buffer" : 0,
            "byteLength" : 14472,
            "byteOffset" : 40856,
            "target" : 34962
        },
        {
            "buffer" : 0,
            "byteLength" : 9648,
            "byteOffset" : 55328,
            "target" : 34962
        },
        {
            "buffer" : 0,
            "byteLength" : 14472,
            "byteOffset" : 64976,
            "target" : 34962
        },
        {
            "buffer" : 0,
            "byteLength" : 4296,
            "byteOffset" : 79448,
            "target" : 34963
        },
        {
            "buffer" : 0,
            "byteLength" : 19848,
            "byteOffset" : 83744,
            "target" : 34962
        },
        {
            "buffer" : 0,
            "byteLength" : 13232,
            "byteOffset" : 103592,
            "target" : 34962
        },
        {
            "buffer" : 0,
            "byteLength" : 19848,
            "byteOffset" : 116824,
            "target" : 34962
        },
        {
            "buffer" : 0,
            "byteLength" : 5880,
            "byteOffset" : 136672,
            "target" : 34963
        },
        {
            "buffer" : 0,
            "byteLength" : 22140,
            "byteOffset" : 142552,
            "target" : 34962
        },
        {
            "buffer" : 0,
            "byteLength" : 14760,
            "byteOffset" : 164692,
            "target" : 34962
        },
        {
            "buffer" : 0,
            "byteLength" : 22140,
            "byteOffset" : 179452,
            "target" : 34962
        },
        {
            "buffer" : 0,
            "byteLength" : 5934,
            "byteOffset" : 201592,
            "target" : 34963
        },
        {
            "buffer" : 0,
            "byteLength" : 20688,
            "byteOffset" : 207528,
            "target" : 34962
        },
        {
            "buffer" : 0,
            "byteLength" : 13792,
            "byteOffset" : 228216,
            "target" : 34962
        },
        {
            "buffer" : 0,
            "byteLength" : 20688,
            "byteOffset" : 242008,
            "target" : 34962
        },
        {
            "buffer" : 0,
            "byteLength" : 5934,
            "byteOffset" : 262696,
            "target" : 34963
        },
        {
            "buffer" : 0,
            "byteLength" : 25404,
            "byteOffset" : 268632,
            "target" : 34962
        },
        {
            "buffer" : 0,
            "byteLength" : 16936,
            "byteOffset" : 294036,
            "target" : 34962
        },
        {
            "buffer" : 0,
            "byteLength" : 25404,
            "byteOffset" : 310972,
            "target" : 34962
        },
        {
            "buffer" : 0,
            "byteLength" : 8676,
            "byteOffset" : 336376,
            "target" : 34963
        },
        {
            "buffer" : 0,
            "byteLength" : 767,
            "byteOffset" : 345052
        }
    ],
    "samplers" : [
        {
            "magFilter" : 9729,
            "minFilter" : 9987
        }
    ],
    "buffers" : [
        {
            "byteLength" : 345820,
            "uri" : "data:application/octet-stream;base64,"
        }
    ]
}
