{
	"asset":{
		"generator":"Khronos glTF Blender I/O v3.6.27",
		"version":"2.0"
	},
	"extensionsUsed":[
		"KHR_materials_specular",
		"KHR_materials_ior"
	],
	"scene":0,
	"scenes":[
		{
			"name":"Scene",
			"nodes":[
				0,
				1,
				2
			]
		}
	],
	"nodes":[
		{
			"mesh":0,
			"name":"_2C0439-2C0440_ARD-node"
		},
		{
			"mesh":1,
			"name":"_2C0439-2C0440_ARD_D2-node"
		},
		{
			"mesh":2,
			"name":"Plane.002",
			"rotation":[
				0,
				-1,
				0,
				7.549790126404332e-08
			],
			"scale":[
				0.031382832676172256,
				0.031382832676172256,
				0.031382832676172256
			],
			"translation":[
				-0.5688943862915039,
				0.19326309859752655,
				0.17207331955432892
			]
		}
	],
	"materials":[
		{
			"doubleSided":true,
			"extensions":{
				"KHR_materials_specular":{
					"specularColorFactor":[
						0,
						0,
						0
					]
				},
				"KHR_materials_ior":{
					"ior":0
				}
			},
			"name":"_2C0439-2C0440_ARD_front",
			"pbrMetallicRoughness":{
				"baseColorFactor":[
					0.9921568632125854,
					0.800000011920929,
					0.5372549295425415,
					1
				],
				"metallicFactor":0,
				"roughnessFactor":0.5
			}
		},
		{
			"doubleSided":true,
			"extensions":{
				"KHR_materials_specular":{
					"specularColorFactor":[
						0,
						0,
						0
					]
				},
				"KHR_materials_ior":{
					"ior":0
				}
			},
			"name":"_2C0439-2C0440_ARD_back",
			"pbrMetallicRoughness":{
				"baseColorFactor":[
					0.996078372001648,
					0.9019607901573181,
					0.6627451181411743,
					1
				],
				"metallicFactor":0,
				"roughnessFactor":0.5
			}
		},
		{
			"doubleSided":true,
			"extensions":{
				"KHR_materials_specular":{
					"specularColorFactor":[
						0,
						0,
						0
					]
				},
				"KHR_materials_ior":{
					"ior":0
				}
			},
			"name":"_2C0439-2C0440_ARD_edge",
			"pbrMetallicRoughness":{
				"baseColorTexture":{
					"index":0
				},
				"metallicFactor":0,
				"roughnessFactor":0.5
			}
		},
		{
			"doubleSided":true,
			"extensions":{
				"KHR_materials_specular":{
					"specularColorFactor":[
						0,
						0,
						0
					]
				},
				"KHR_materials_ior":{
					"ior":0
				}
			},
			"name":"_2C0439-2C0440_ARD_D2_front",
			"pbrMetallicRoughness":{
				"metallicFactor":0,
				"roughnessFactor":0.5
			}
		},
		{
			"doubleSided":true,
			"extensions":{
				"KHR_materials_specular":{
					"specularColorFactor":[
						0,
						0,
						0
					]
				},
				"KHR_materials_ior":{
					"ior":0
				}
			},
			"name":"_2C0439-2C0440_ARD_D2_back",
			"pbrMetallicRoughness":{
				"baseColorFactor":[
					0.996078372001648,
					0.9019607901573181,
					0.6627451181411743,
					1
				],
				"metallicFactor":0,
				"roughnessFactor":0.5
			}
		},
		{
			"doubleSided":true,
			"extensions":{
				"KHR_materials_specular":{
					"specularColorFactor":[
						0,
						0,
						0
					]
				},
				"KHR_materials_ior":{
					"ior":0
				}
			},
			"name":"_2C0439-2C0440_ARD_D2_edge",
			"pbrMetallicRoughness":{
				"baseColorTexture":{
					"index":1
				},
				"metallicFactor":0,
				"roughnessFactor":0.5
			}
		},
		{
			"doubleSided":true,
			"name":"Material",
			"pbrMetallicRoughness":{
				"baseColorFactor":[
					1,
					0.5906503796577454,
					0,
					1
				],
				"roughnessFactor":0.5
			}
		}
	],
	"meshes":[
		{
			"name":"_2C0439-2C0440_ARD-geom",
			"primitives":[
				{
					"attributes":{
						"POSITION":0,
						"NORMAL":1,
						"TEXCOORD_0":2
					},
					"indices":3,
					"material":0
				},
				{
					"attributes":{
						"POSITION":4,
						"NORMAL":5,
						"TEXCOORD_0":6
					},
					"indices":7,
					"material":1
				},
				{
					"attributes":{
						"POSITION":8,
						"NORMAL":9,
						"TEXCOORD_0":10
					},
					"indices":11,
					"material":2
				}
			]
		},
		{
			"name":"_2C0439-2C0440_ARD_D2-geom",
			"primitives":[
				{
					"attributes":{
						"POSITION":12,
						"NORMAL":13,
						"TEXCOORD_0":14
					},
					"indices":15,
					"material":3
				},
				{
					"attributes":{
						"POSITION":16,
						"NORMAL":17,
						"TEXCOORD_0":18
					},
					"indices":19,
					"material":4
				},
				{
					"attributes":{
						"POSITION":20,
						"NORMAL":21,
						"TEXCOORD_0":22
					},
					"indices":23,
					"material":5
				}
			]
		},
		{
			"name":"Plane.001",
			"primitives":[
				{
					"attributes":{
						"POSITION":24,
						"NORMAL":25,
						"TEXCOORD_0":26
					},
					"indices":27,
					"material":6
				}
			]
		}
	],
	"textures":[
		{
			"sampler":0,
			"source":0
		},
		{
			"sampler":0,
			"source":1
		}
	],
	"images":[
		{
			"bufferView":12,
			"mimeType":"image/png",
			"name":"_2C0439-2C0440_ARD-I1"
		},
		{
			"bufferView":25,
			"mimeType":"image/png",
			"name":"_2C0439-2C0440_ARD_D2-I2"
		}
	],
	"accessors":[
		{
			"bufferView":0,
			"componentType":5126,
			"count":463,
			"max":[
				0.7161837220191956,
				0.23196253180503845,
				0.19975577294826508
			],
			"min":[
				-0.737097442150116,
				0.005320467054843903,
				-0.20353063941001892
			],
			"type":"VEC3"
		},
		{
			"bufferView":1,
			"componentType":5126,
			"count":463,
			"type":"VEC3"
		},
		{
			"bufferView":2,
			"componentType":5126,
			"count":463,
			"type":"VEC2"
		},
		{
			"bufferView":3,
			"componentType":5123,
			"count":1557,
			"type":"SCALAR"
		},
		{
			"bufferView":4,
			"componentType":5126,
			"count":592,
			"max":[
				0.7143229842185974,
				0.23196253180503845,
				0.1973358541727066
			],
			"min":[
				-0.7352368235588074,
				0.007739849388599396,
				-0.20111070573329926
			],
			"type":"VEC3"
		},
		{
			"bufferView":5,
			"componentType":5126,
			"count":592,
			"type":"VEC3"
		},
		{
			"bufferView":6,
			"componentType":5126,
			"count":592,
			"type":"VEC2"
		},
		{
			"bufferView":7,
			"componentType":5123,
			"count":1557,
			"type":"SCALAR"
		},
		{
			"bufferView":8,
			"componentType":5126,
			"count":740,
			"max":[
				0.7161837220191956,
				0.23196253180503845,
				0.19975577294826508
			],
			"min":[
				-0.737097442150116,
				0.005320467054843903,
				-0.20353063941001892
			],
			"type":"VEC3"
		},
		{
			"bufferView":9,
			"componentType":5126,
			"count":740,
			"type":"VEC3"
		},
		{
			"bufferView":10,
			"componentType":5126,
			"count":740,
			"type":"VEC2"
		},
		{
			"bufferView":11,
			"componentType":5123,
			"count":1662,
			"type":"SCALAR"
		},
		{
			"bufferView":13,
			"componentType":5126,
			"count":510,
			"max":[
				0.725477397441864,
				0.7859979271888733,
				0.21181964874267578
			],
			"min":[
				-0.7428048849105835,
				0.5563571453094482,
				-0.21646486222743988
			],
			"type":"VEC3"
		},
		{
			"bufferView":14,
			"componentType":5126,
			"count":510,
			"type":"VEC3"
		},
		{
			"bufferView":15,
			"componentType":5126,
			"count":510,
			"type":"VEC2"
		},
		{
			"bufferView":16,
			"componentType":5123,
			"count":1557,
			"type":"SCALAR"
		},
		{
			"bufferView":17,
			"componentType":5126,
			"count":637,
			"max":[
				0.7236167192459106,
				0.7835779786109924,
				0.2093997299671173
			],
			"min":[
				-0.7409442067146301,
				0.5563571453094482,
				-0.21404500305652618
			],
			"type":"VEC3"
		},
		{
			"bufferView":18,
			"componentType":5126,
			"count":637,
			"type":"VEC3"
		},
		{
			"bufferView":19,
			"componentType":5126,
			"count":637,
			"type":"VEC2"
		},
		{
			"bufferView":20,
			"componentType":5123,
			"count":1557,
			"type":"SCALAR"
		},
		{
			"bufferView":21,
			"componentType":5126,
			"count":740,
			"max":[
				0.725477397441864,
				0.7859979271888733,
				0.21181964874267578
			],
			"min":[
				-0.7428048849105835,
				0.5563571453094482,
				-0.21646486222743988
			],
			"type":"VEC3"
		},
		{
			"bufferView":22,
			"componentType":5126,
			"count":740,
			"type":"VEC3"
		},
		{
			"bufferView":23,
			"componentType":5126,
			"count":740,
			"type":"VEC2"
		},
		{
			"bufferView":24,
			"componentType":5123,
			"count":1656,
			"type":"SCALAR"
		},
		{
			"bufferView":26,
			"componentType":5126,
			"count":3840,
			"max":[
				0.8791601061820984,
				17.203636169433594,
				12.08719539642334
			],
			"min":[
				-36.230587005615234,
				-4.724848747253418,
				-1.4373224973678589
			],
			"type":"VEC3"
		},
		{
			"bufferView":27,
			"componentType":5126,
			"count":3840,
			"type":"VEC3"
		},
		{
			"bufferView":28,
			"componentType":5126,
			"count":3840,
			"type":"VEC2"
		},
		{
			"bufferView":29,
			"componentType":5123,
			"count":5760,
			"type":"SCALAR"
		}
	],
	"bufferViews":[
		{
			"buffer":0,
			"byteLength":5556,
			"byteOffset":0,
			"target":34962
		},
		{
			"buffer":0,
			"byteLength":5556,
			"byteOffset":5556,
			"target":34962
		},
		{
			"buffer":0,
			"byteLength":3704,
			"byteOffset":11112,
			"target":34962
		},
		{
			"buffer":0,
			"byteLength":3114,
			"byteOffset":14816,
			"target":34963
		},
		{
			"buffer":0,
			"byteLength":7104,
			"byteOffset":17932,
			"target":34962
		},
		{
			"buffer":0,
			"byteLength":7104,
			"byteOffset":25036,
			"target":34962
		},
		{
			"buffer":0,
			"byteLength":4736,
			"byteOffset":32140,
			"target":34962
		},
		{
			"buffer":0,
			"byteLength":3114,
			"byteOffset":36876,
			"target":34963
		},
		{
			"buffer":0,
			"byteLength":8880,
			"byteOffset":39992,
			"target":34962
		},
		{
			"buffer":0,
			"byteLength":8880,
			"byteOffset":48872,
			"target":34962
		},
		{
			"buffer":0,
			"byteLength":5920,
			"byteOffset":57752,
			"target":34962
		},
		{
			"buffer":0,
			"byteLength":3324,
			"byteOffset":63672,
			"target":34963
		},
		{
			"buffer":0,
			"byteLength":710,
			"byteOffset":66996
		},
		{
			"buffer":0,
			"byteLength":6120,
			"byteOffset":67708,
			"target":34962
		},
		{
			"buffer":0,
			"byteLength":6120,
			"byteOffset":73828,
			"target":34962
		},
		{
			"buffer":0,
			"byteLength":4080,
			"byteOffset":79948,
			"target":34962
		},
		{
			"buffer":0,
			"byteLength":3114,
			"byteOffset":84028,
			"target":34963
		},
		{
			"buffer":0,
			"byteLength":7644,
			"byteOffset":87144,
			"target":34962
		},
		{
			"buffer":0,
			"byteLength":7644,
			"byteOffset":94788,
			"target":34962
		},
		{
			"buffer":0,
			"byteLength":5096,
			"byteOffset":102432,
			"target":34962
		},
		{
			"buffer":0,
			"byteLength":3114,
			"byteOffset":107528,
			"target":34963
		},
		{
			"buffer":0,
			"byteLength":8880,
			"byteOffset":110644,
			"target":34962
		},
		{
			"buffer":0,
			"byteLength":8880,
			"byteOffset":119524,
			"target":34962
		},
		{
			"buffer":0,
			"byteLength":5920,
			"byteOffset":128404,
			"target":34962
		},
		{
			"buffer":0,
			"byteLength":3312,
			"byteOffset":134324,
			"target":34963
		},
		{
			"buffer":0,
			"byteLength":710,
			"byteOffset":137636
		},
		{
			"buffer":0,
			"byteLength":46080,
			"byteOffset":138348,
			"target":34962
		},
		{
			"buffer":0,
			"byteLength":46080,
			"byteOffset":184428,
			"target":34962
		},
		{
			"buffer":0,
			"byteLength":30720,
			"byteOffset":230508,
			"target":34962
		},
		{
			"buffer":0,
			"byteLength":11520,
			"byteOffset":261228,
			"target":34963
		}
	],
	"samplers":[
		{
			"magFilter":9729,
			"minFilter":9987
		}
	],
	"buffers":[
		{
			"byteLength":272748,
			"uri":"data:application/octet-stream;base64,"
		}
	]
}
