{
	"asset":{
		"generator":"Khronos glTF Blender I/O v3.6.27",
		"version":"2.0"
	},
	"extensionsUsed":[
		"KHR_materials_specular",
		"KHR_materials_ior"
	],
	"scene":0,
	"scenes":[
		{
			"name":"Scene",
			"nodes":[
				0
			]
		}
	],
	"nodes":[
		{
			"mesh":0,
			"name":"_1L0024_ARD-node"
		}
	],
	"materials":[
		{
			"doubleSided":true,
			"extensions":{
				"KHR_materials_specular":{
					"specularColorFactor":[
						0,
						0,
						0
					]
				},
				"KHR_materials_ior":{
					"ior":0
				}
			},
			"name":"_1L0024_ARD_front",
			"pbrMetallicRoughness":{
				"baseColorFactor":[
					0.9960784912109375,
					0.9960784912109375,
					0.9960784912109375,
					1
				],
				"metallicFactor":0,
				"roughnessFactor":0.5
			}
		},
		{
			"doubleSided":true,
			"extensions":{
				"KHR_materials_specular":{
					"specularColorFactor":[
						0,
						0,
						0
					]
				},
				"KHR_materials_ior":{
					"ior":0
				}
			},
			"name":"back-dil",
			"pbrMetallicRoughness":{
				"baseColorFactor":[
					0.620919942855835,
					0.4354613721370697,
					0.30291399359703064,
					1
				],
				"metallicFactor":0
			}
		},
		{
			"doubleSided":true,
			"extensions":{
				"KHR_materials_specular":{
					"specularColorFactor":[
						0,
						0,
						0
					]
				},
				"KHR_materials_ior":{
					"ior":0
				}
			},
			"name":"_1L0024_ARD_edge",
			"pbrMetallicRoughness":{
				"baseColorTexture":{
					"index":0
				},
				"metallicFactor":0,
				"roughnessFactor":0.5
			}
		}
	],
	"meshes":[
		{
			"name":"_1L0024_ARD-geom",
			"primitives":[
				{
					"attributes":{
						"POSITION":0,
						"NORMAL":1,
						"TEXCOORD_0":2
					},
					"indices":3,
					"material":0
				},
				{
					"attributes":{
						"POSITION":4,
						"NORMAL":5,
						"TEXCOORD_0":6
					},
					"indices":7,
					"material":1
				},
				{
					"attributes":{
						"POSITION":8,
						"NORMAL":9,
						"TEXCOORD_0":10
					},
					"indices":11,
					"material":2
				}
			]
		}
	],
	"textures":[
		{
			"sampler":0,
			"source":0
		}
	],
	"images":[
		{
			"bufferView":12,
			"mimeType":"image/png",
			"name":"_1L0024_ARD-I1"
		}
	],
	"accessors":[
		{
			"bufferView":0,
			"componentType":5126,
			"count":705,
			"max":[
				0.16077931225299835,
				0.1085885614156723,
				0.24455469846725464
			],
			"min":[
				-0.16239336133003235,
				-5.587935447692871e-08,
				-0.24561946094036102
			],
			"type":"VEC3"
		},
		{
			"bufferView":1,
			"componentType":5126,
			"count":705,
			"type":"VEC3"
		},
		{
			"bufferView":2,
			"componentType":5126,
			"count":705,
			"type":"VEC2"
		},
		{
			"bufferView":3,
			"componentType":5123,
			"count":1962,
			"type":"SCALAR"
		},
		{
			"bufferView":4,
			"componentType":5126,
			"count":651,
			"max":[
				0.16019372642040253,
				0.10700098425149918,
				0.24250225722789764
			],
			"min":[
				-0.16180773079395294,
				-5.587935447692871e-08,
				-0.24356697499752045
			],
			"type":"VEC3"
		},
		{
			"bufferView":5,
			"componentType":5126,
			"count":651,
			"type":"VEC3"
		},
		{
			"bufferView":6,
			"componentType":5126,
			"count":651,
			"type":"VEC2"
		},
		{
			"bufferView":7,
			"componentType":5123,
			"count":1962,
			"type":"SCALAR"
		},
		{
			"bufferView":8,
			"componentType":5126,
			"count":950,
			"max":[
				0.16077929735183716,
				0.1085885614156723,
				0.24455469846725464
			],
			"min":[
				-0.16239330172538757,
				-5.587935447692871e-08,
				-0.24561946094036102
			],
			"type":"VEC3"
		},
		{
			"bufferView":9,
			"componentType":5126,
			"count":950,
			"type":"VEC3"
		},
		{
			"bufferView":10,
			"componentType":5126,
			"count":950,
			"type":"VEC2"
		},
		{
			"bufferView":11,
			"componentType":5123,
			"count":1968,
			"type":"SCALAR"
		}
	],
	"bufferViews":[
		{
			"buffer":0,
			"byteLength":8460,
			"byteOffset":0,
			"target":34962
		},
		{
			"buffer":0,
			"byteLength":8460,
			"byteOffset":8460,
			"target":34962
		},
		{
			"buffer":0,
			"byteLength":5640,
			"byteOffset":16920,
			"target":34962
		},
		{
			"buffer":0,
			"byteLength":3924,
			"byteOffset":22560,
			"target":34963
		},
		{
			"buffer":0,
			"byteLength":7812,
			"byteOffset":26484,
			"target":34962
		},
		{
			"buffer":0,
			"byteLength":7812,
			"byteOffset":34296,
			"target":34962
		},
		{
			"buffer":0,
			"byteLength":5208,
			"byteOffset":42108,
			"target":34962
		},
		{
			"buffer":0,
			"byteLength":3924,
			"byteOffset":47316,
			"target":34963
		},
		{
			"buffer":0,
			"byteLength":11400,
			"byteOffset":51240,
			"target":34962
		},
		{
			"buffer":0,
			"byteLength":11400,
			"byteOffset":62640,
			"target":34962
		},
		{
			"buffer":0,
			"byteLength":7600,
			"byteOffset":74040,
			"target":34962
		},
		{
			"buffer":0,
			"byteLength":3936,
			"byteOffset":81640,
			"target":34963
		},
		{
			"buffer":0,
			"byteLength":767,
			"byteOffset":85576
		}
	],
	"samplers":[
		{
			"magFilter":9729,
			"minFilter":9987
		}
	],
	"buffers":[
		{
			"byteLength":86344,
			"uri":"data:application/octet-stream;base64,"
		}
	]
}
