{
	"asset":{
		"generator":"Khronos glTF Blender I/O v3.6.27",
		"version":"2.0"
	},
	"extensionsUsed":[
		"KHR_materials_specular",
		"KHR_materials_ior"
	],
	"scene":0,
	"scenes":[
		{
			"name":"Scene",
			"nodes":[
				0
			]
		}
	],
	"nodes":[
		{
			"mesh":0,
			"name":"TQ_ARD-node"
		}
	],
	"materials":[
		{
			"doubleSided":true,
			"extensions":{
				"KHR_materials_specular":{
					"specularColorFactor":[
						0,
						0,
						0
					]
				},
				"KHR_materials_ior":{
					"ior":0
				}
			},
			"name":"TQ_ARD_front",
			"pbrMetallicRoughness":{
				"baseColorFactor":[
					0.800000011920929,
					0.800000011920929,
					0.800000011920929,
					1
				],
				"metallicFactor":0,
				"roughnessFactor":0.5
			}
		},
		{
			"doubleSided":true,
			"extensions":{
				"KHR_materials_specular":{
					"specularColorFactor":[
						0,
						0,
						0
					]
				},
				"KHR_materials_ior":{
					"ior":0
				}
			},
			"name":"TQ_ARD_back",
			"pbrMetallicRoughness":{
				"baseColorFactor":[
					0.996078372001648,
					0.9019607901573181,
					0.6627451181411743,
					1
				],
				"metallicFactor":0,
				"roughnessFactor":0.5
			}
		},
		{
			"doubleSided":true,
			"extensions":{
				"KHR_materials_specular":{
					"specularColorFactor":[
						0,
						0,
						0
					]
				},
				"KHR_materials_ior":{
					"ior":0
				}
			},
			"name":"TQ_ARD_edge",
			"pbrMetallicRoughness":{
				"baseColorTexture":{
					"index":0
				},
				"metallicFactor":0,
				"roughnessFactor":0.5
			}
		},
		{
			"doubleSided":true,
			"extensions":{
				"KHR_materials_specular":{
					"specularColorFactor":[
						0,
						0,
						0
					]
				},
				"KHR_materials_ior":{
					"ior":0
				}
			},
			"name":"TQ_ARD_front.001",
			"pbrMetallicRoughness":{
				"baseColorFactor":[
					0.800000011920929,
					0.800000011920929,
					0.800000011920929,
					1
				],
				"metallicFactor":0,
				"roughnessFactor":0.5
			}
		},
		{
			"doubleSided":true,
			"extensions":{
				"KHR_materials_specular":{
					"specularColorFactor":[
						0,
						0,
						0
					]
				},
				"KHR_materials_ior":{
					"ior":0
				}
			},
			"name":"TQ_ARD_back.001",
			"pbrMetallicRoughness":{
				"baseColorFactor":[
					0.5359365940093994,
					0.371378630399704,
					0.16935306787490845,
					1
				],
				"metallicFactor":0
			}
		},
		{
			"doubleSided":true,
			"extensions":{
				"KHR_materials_specular":{
					"specularColorFactor":[
						0,
						0,
						0
					]
				},
				"KHR_materials_ior":{
					"ior":0
				}
			},
			"name":"TQ_ARD_edge.001",
			"pbrMetallicRoughness":{
				"baseColorTexture":{
					"index":1
				},
				"metallicFactor":0,
				"roughnessFactor":0.5
			}
		}
	],
	"meshes":[
		{
			"name":"TQ_ARD-geom",
			"primitives":[
				{
					"attributes":{
						"POSITION":0,
						"NORMAL":1,
						"TEXCOORD_0":2
					},
					"indices":3,
					"material":0
				},
				{
					"attributes":{
						"POSITION":4,
						"NORMAL":5,
						"TEXCOORD_0":6
					},
					"indices":7,
					"material":1
				},
				{
					"attributes":{
						"POSITION":8,
						"NORMAL":9,
						"TEXCOORD_0":10
					},
					"indices":11,
					"material":2
				},
				{
					"attributes":{
						"POSITION":12,
						"NORMAL":13,
						"TEXCOORD_0":14
					},
					"indices":15,
					"material":3
				},
				{
					"attributes":{
						"POSITION":16,
						"NORMAL":17,
						"TEXCOORD_0":18
					},
					"indices":19,
					"material":4
				},
				{
					"attributes":{
						"POSITION":20,
						"NORMAL":21,
						"TEXCOORD_0":22
					},
					"indices":23,
					"material":5
				}
			]
		}
	],
	"textures":[
		{
			"sampler":0,
			"source":0
		},
		{
			"sampler":0,
			"source":0
		}
	],
	"images":[
		{
			"bufferView":12,
			"mimeType":"image/png",
			"name":"TQ_ARD-I1"
		}
	],
	"accessors":[
		{
			"bufferView":0,
			"componentType":5126,
			"count":966,
			"max":[
				0.04728204011917114,
				0.134504497051239,
				-0.06973706930875778
			],
			"min":[
				-0.15589383244514465,
				0.0033275983296334743,
				-0.28491032123565674
			],
			"type":"VEC3"
		},
		{
			"bufferView":1,
			"componentType":5126,
			"count":966,
			"type":"VEC3"
		},
		{
			"bufferView":2,
			"componentType":5126,
			"count":966,
			"type":"VEC2"
		},
		{
			"bufferView":3,
			"componentType":5123,
			"count":2790,
			"type":"SCALAR"
		},
		{
			"bufferView":4,
			"componentType":5126,
			"count":896,
			"max":[
				0.04719385504722595,
				0.13300183415412903,
				-0.07178952544927597
			],
			"min":[
				-0.15406981110572815,
				0.003419326152652502,
				-0.28285783529281616
			],
			"type":"VEC3"
		},
		{
			"bufferView":5,
			"componentType":5126,
			"count":896,
			"type":"VEC3"
		},
		{
			"bufferView":6,
			"componentType":5126,
			"count":896,
			"type":"VEC2"
		},
		{
			"bufferView":7,
			"componentType":5123,
			"count":2790,
			"type":"SCALAR"
		},
		{
			"bufferView":8,
			"componentType":5126,
			"count":1627,
			"max":[
				0.04728202521800995,
				0.134504497051239,
				-0.06973706930875778
			],
			"min":[
				-0.15589383244514465,
				0.0033275983296334743,
				-0.28491032123565674
			],
			"type":"VEC3"
		},
		{
			"bufferView":9,
			"componentType":5126,
			"count":1627,
			"type":"VEC3"
		},
		{
			"bufferView":10,
			"componentType":5126,
			"count":1627,
			"type":"VEC2"
		},
		{
			"bufferView":11,
			"componentType":5123,
			"count":3348,
			"type":"SCALAR"
		},
		{
			"bufferView":13,
			"componentType":5126,
			"count":1043,
			"max":[
				0.1993166208267212,
				0.3685802221298218,
				0.3395843505859375
			],
			"min":[
				-0.17381888628005981,
				0.0035435608588159084,
				-0.012342818081378937
			],
			"type":"VEC3"
		},
		{
			"bufferView":14,
			"componentType":5126,
			"count":1043,
			"type":"VEC3"
		},
		{
			"bufferView":15,
			"componentType":5126,
			"count":1043,
			"type":"VEC2"
		},
		{
			"bufferView":16,
			"componentType":5123,
			"count":2790,
			"type":"SCALAR"
		},
		{
			"bufferView":17,
			"componentType":5126,
			"count":962,
			"max":[
				0.1979837417602539,
				0.36622074246406555,
				0.3376305103302002
			],
			"min":[
				-0.17328765988349915,
				0.0036352924071252346,
				-0.009667538106441498
			],
			"type":"VEC3"
		},
		{
			"bufferView":18,
			"componentType":5126,
			"count":962,
			"type":"VEC3"
		},
		{
			"bufferView":19,
			"componentType":5126,
			"count":962,
			"type":"VEC2"
		},
		{
			"bufferView":20,
			"componentType":5123,
			"count":2790,
			"type":"SCALAR"
		},
		{
			"bufferView":21,
			"componentType":5126,
			"count":1803,
			"max":[
				0.1993166208267212,
				0.3685802221298218,
				0.3395843505859375
			],
			"min":[
				-0.17381888628005981,
				0.0035435608588159084,
				-0.012342818081378937
			],
			"type":"VEC3"
		},
		{
			"bufferView":22,
			"componentType":5126,
			"count":1803,
			"type":"VEC3"
		},
		{
			"bufferView":23,
			"componentType":5126,
			"count":1803,
			"type":"VEC2"
		},
		{
			"bufferView":24,
			"componentType":5123,
			"count":3348,
			"type":"SCALAR"
		}
	],
	"bufferViews":[
		{
			"buffer":0,
			"byteLength":11592,
			"byteOffset":0,
			"target":34962
		},
		{
			"buffer":0,
			"byteLength":11592,
			"byteOffset":11592,
			"target":34962
		},
		{
			"buffer":0,
			"byteLength":7728,
			"byteOffset":23184,
			"target":34962
		},
		{
			"buffer":0,
			"byteLength":5580,
			"byteOffset":30912,
			"target":34963
		},
		{
			"buffer":0,
			"byteLength":10752,
			"byteOffset":36492,
			"target":34962
		},
		{
			"buffer":0,
			"byteLength":10752,
			"byteOffset":47244,
			"target":34962
		},
		{
			"buffer":0,
			"byteLength":7168,
			"byteOffset":57996,
			"target":34962
		},
		{
			"buffer":0,
			"byteLength":5580,
			"byteOffset":65164,
			"target":34963
		},
		{
			"buffer":0,
			"byteLength":19524,
			"byteOffset":70744,
			"target":34962
		},
		{
			"buffer":0,
			"byteLength":19524,
			"byteOffset":90268,
			"target":34962
		},
		{
			"buffer":0,
			"byteLength":13016,
			"byteOffset":109792,
			"target":34962
		},
		{
			"buffer":0,
			"byteLength":6696,
			"byteOffset":122808,
			"target":34963
		},
		{
			"buffer":0,
			"byteLength":767,
			"byteOffset":129504
		},
		{
			"buffer":0,
			"byteLength":12516,
			"byteOffset":130272,
			"target":34962
		},
		{
			"buffer":0,
			"byteLength":12516,
			"byteOffset":142788,
			"target":34962
		},
		{
			"buffer":0,
			"byteLength":8344,
			"byteOffset":155304,
			"target":34962
		},
		{
			"buffer":0,
			"byteLength":5580,
			"byteOffset":163648,
			"target":34963
		},
		{
			"buffer":0,
			"byteLength":11544,
			"byteOffset":169228,
			"target":34962
		},
		{
			"buffer":0,
			"byteLength":11544,
			"byteOffset":180772,
			"target":34962
		},
		{
			"buffer":0,
			"byteLength":7696,
			"byteOffset":192316,
			"target":34962
		},
		{
			"buffer":0,
			"byteLength":5580,
			"byteOffset":200012,
			"target":34963
		},
		{
			"buffer":0,
			"byteLength":21636,
			"byteOffset":205592,
			"target":34962
		},
		{
			"buffer":0,
			"byteLength":21636,
			"byteOffset":227228,
			"target":34962
		},
		{
			"buffer":0,
			"byteLength":14424,
			"byteOffset":248864,
			"target":34962
		},
		{
			"buffer":0,
			"byteLength":6696,
			"byteOffset":263288,
			"target":34963
		}
	],
	"samplers":[
		{
			"magFilter":9729,
			"minFilter":9987
		}
	],
	"buffers":[
		{
			"byteLength":269984,
			"uri":"data:application/octet-stream;base64,"
		}
	]
}
