{
	"asset":{
		"generator":"Khronos glTF Blender I/O v3.6.27",
		"version":"2.0"
	},
	"extensionsUsed":[
		"KHR_materials_specular",
		"KHR_materials_ior"
	],
	"scene":0,
	"scenes":[
		{
			"name":"Scene",
			"nodes":[
				0,
				1,
				2,
				3
			]
		}
	],
	"nodes":[
		{
			"camera":0,
			"name":"Camera",
			"rotation":[
				-0.09397295117378235,
				0.8861815333366394,
				0.20600932836532593,
				0.40424197912216187
			],
			"translation":[
				2.1251251697540283,
				2.178229808807373,
				-1.992463231086731
			]
		},
		{
			"mesh":0,
			"name":"CABALLETE_01_ARD-node"
		},
		{
			"mesh":1,
			"name":"Plano.001"
		},
		{
			"mesh":2,
			"name":"CABALLETE_01_ARD-node.001"
		}
	],
	"cameras":[
		{
			"name":"Camera",
			"perspective":{
				"aspectRatio":1,
				"yfov":0.6911112070083618,
				"zfar":100,
				"znear":0.10000000149011612
			},
			"type":"perspective"
		}
	],
	"materials":[
		{
			"doubleSided":true,
			"extensions":{
				"KHR_materials_specular":{
					"specularColorFactor":[
						0,
						0,
						0
					]
				},
				"KHR_materials_ior":{
					"ior":0
				}
			},
			"name":"CABALLETE_01_ARD_front",
			"pbrMetallicRoughness":{
				"metallicFactor":0,
				"roughnessFactor":0.5
			}
		},
		{
			"doubleSided":true,
			"extensions":{
				"KHR_materials_specular":{
					"specularColorFactor":[
						0,
						0,
						0
					]
				},
				"KHR_materials_ior":{
					"ior":0
				}
			},
			"name":"CABALLETE_01_ARD_back",
			"pbrMetallicRoughness":{
				"baseColorFactor":[
					0.4773285388946533,
					0.37719327211380005,
					0.19783474504947662,
					1
				],
				"metallicFactor":0
			}
		},
		{
			"doubleSided":true,
			"extensions":{
				"KHR_materials_specular":{
					"specularColorFactor":[
						0,
						0,
						0
					]
				},
				"KHR_materials_ior":{
					"ior":0
				}
			},
			"name":"CABALLETE_01_ARD_edge",
			"pbrMetallicRoughness":{
				"baseColorTexture":{
					"index":0
				},
				"metallicFactor":0,
				"roughnessFactor":0.5
			}
		},
		{
			"doubleSided":true,
			"extensions":{
				"KHR_materials_specular":{
					"specularColorFactor":[
						0,
						0,
						0
					]
				},
				"KHR_materials_ior":{
					"ior":0
				}
			},
			"name":"back-dil",
			"pbrMetallicRoughness":{
				"baseColorFactor":[
					0.4773285388946533,
					0.37719327211380005,
					0.19783474504947662,
					1
				],
				"metallicFactor":0
			}
		}
	],
	"meshes":[
		{
			"name":"CABALLETE_01_ARD-geom",
			"primitives":[
				{
					"attributes":{
						"POSITION":0,
						"NORMAL":1,
						"TEXCOORD_0":2
					},
					"indices":3,
					"material":0
				},
				{
					"attributes":{
						"POSITION":4,
						"NORMAL":5,
						"TEXCOORD_0":6
					},
					"indices":7,
					"material":1
				},
				{
					"attributes":{
						"POSITION":8,
						"NORMAL":9,
						"TEXCOORD_0":10
					},
					"indices":11,
					"material":2
				}
			]
		},
		{
			"name":"Plano.001",
			"primitives":[
				{
					"attributes":{
						"POSITION":12,
						"NORMAL":13,
						"TEXCOORD_0":14
					},
					"indices":15,
					"material":3
				},
				{
					"attributes":{
						"POSITION":16,
						"NORMAL":17,
						"TEXCOORD_0":18
					},
					"indices":19,
					"material":2
				},
				{
					"attributes":{
						"POSITION":20,
						"NORMAL":21,
						"TEXCOORD_0":22
					},
					"indices":23,
					"material":0
				}
			]
		},
		{
			"name":"CABALLETE_01_ARD-geom.001",
			"primitives":[
				{
					"attributes":{
						"POSITION":24,
						"NORMAL":25,
						"TEXCOORD_0":26
					},
					"indices":27,
					"material":0
				},
				{
					"attributes":{
						"POSITION":28,
						"NORMAL":29,
						"TEXCOORD_0":30
					},
					"indices":31,
					"material":1
				},
				{
					"attributes":{
						"POSITION":32,
						"NORMAL":33,
						"TEXCOORD_0":34
					},
					"indices":35,
					"material":2
				}
			]
		}
	],
	"textures":[
		{
			"sampler":0,
			"source":0
		}
	],
	"images":[
		{
			"bufferView":12,
			"mimeType":"image/png",
			"name":"CABALLETE_01_ARD-I1"
		}
	],
	"accessors":[
		{
			"bufferView":0,
			"componentType":5126,
			"count":1023,
			"max":[
				0.6292428374290466,
				1.4945225715637207,
				0.18118560314178467
			],
			"min":[
				0.338007390499115,
				0.005241215229034424,
				-0.1515117883682251
			],
			"type":"VEC3"
		},
		{
			"bufferView":1,
			"componentType":5126,
			"count":1023,
			"type":"VEC3"
		},
		{
			"bufferView":2,
			"componentType":5126,
			"count":1023,
			"type":"VEC2"
		},
		{
			"bufferView":3,
			"componentType":5123,
			"count":1794,
			"type":"SCALAR"
		},
		{
			"bufferView":4,
			"componentType":5126,
			"count":984,
			"max":[
				0.6292428374290466,
				1.493887186050415,
				0.18118560314178467
			],
			"min":[
				0.338007390499115,
				0.005132794380187988,
				-0.14642010629177094
			],
			"type":"VEC3"
		},
		{
			"bufferView":5,
			"componentType":5126,
			"count":984,
			"type":"VEC3"
		},
		{
			"bufferView":6,
			"componentType":5126,
			"count":984,
			"type":"VEC2"
		},
		{
			"bufferView":7,
			"componentType":5123,
			"count":1794,
			"type":"SCALAR"
		},
		{
			"bufferView":8,
			"componentType":5126,
			"count":1637,
			"max":[
				0.6292428374290466,
				1.4945225715637207,
				0.18118560314178467
			],
			"min":[
				0.338007390499115,
				0.005132794380187988,
				-0.1515117883682251
			],
			"type":"VEC3"
		},
		{
			"bufferView":9,
			"componentType":5126,
			"count":1637,
			"type":"VEC3"
		},
		{
			"bufferView":10,
			"componentType":5126,
			"count":1637,
			"type":"VEC2"
		},
		{
			"bufferView":11,
			"componentType":5123,
			"count":3612,
			"type":"SCALAR"
		},
		{
			"bufferView":13,
			"componentType":5126,
			"count":8,
			"max":[
				-0.22123432159423828,
				1.5554211139678955,
				0.2496570348739624
			],
			"min":[
				-0.42025190591812134,
				0.003797754645347595,
				-0.7503429651260376
			],
			"type":"VEC3"
		},
		{
			"bufferView":14,
			"componentType":5126,
			"count":8,
			"type":"VEC3"
		},
		{
			"bufferView":15,
			"componentType":5126,
			"count":8,
			"type":"VEC2"
		},
		{
			"bufferView":16,
			"componentType":5123,
			"count":12,
			"type":"SCALAR"
		},
		{
			"bufferView":17,
			"componentType":5126,
			"count":12,
			"max":[
				-0.22123432159423828,
				1.5562810897827148,
				0.2496570348739624
			],
			"min":[
				-0.42025190591812134,
				0.003797754645347595,
				-0.7503429651260376
			],
			"type":"VEC3"
		},
		{
			"bufferView":18,
			"componentType":5126,
			"count":12,
			"type":"VEC3"
		},
		{
			"bufferView":19,
			"componentType":5126,
			"count":12,
			"type":"VEC2"
		},
		{
			"bufferView":20,
			"componentType":5123,
			"count":18,
			"type":"SCALAR"
		},
		{
			"bufferView":21,
			"componentType":5126,
			"count":4,
			"max":[
				-0.22818130254745483,
				1.5562810897827148,
				0.2496570348739624
			],
			"min":[
				-0.42025190591812134,
				0.00465768575668335,
				-0.7503429651260376
			],
			"type":"VEC3"
		},
		{
			"bufferView":22,
			"componentType":5126,
			"count":4,
			"type":"VEC3"
		},
		{
			"bufferView":23,
			"componentType":5126,
			"count":4,
			"type":"VEC2"
		},
		{
			"bufferView":24,
			"componentType":5123,
			"count":6,
			"type":"SCALAR"
		},
		{
			"bufferView":25,
			"componentType":5126,
			"count":955,
			"max":[
				-0.07574722170829773,
				1.4945225715637207,
				-0.09667837619781494
			],
			"min":[
				-0.4084446132183075,
				0.005241215229034424,
				-0.3879137933254242
			],
			"type":"VEC3"
		},
		{
			"bufferView":26,
			"componentType":5126,
			"count":955,
			"type":"VEC3"
		},
		{
			"bufferView":27,
			"componentType":5126,
			"count":955,
			"type":"VEC2"
		},
		{
			"bufferView":28,
			"componentType":5123,
			"count":1794,
			"type":"SCALAR"
		},
		{
			"bufferView":29,
			"componentType":5126,
			"count":936,
			"max":[
				-0.07574722170829773,
				1.493887186050415,
				-0.09667837619781494
			],
			"min":[
				-0.40335291624069214,
				0.005132794380187988,
				-0.3879137933254242
			],
			"type":"VEC3"
		},
		{
			"bufferView":30,
			"componentType":5126,
			"count":936,
			"type":"VEC3"
		},
		{
			"bufferView":31,
			"componentType":5126,
			"count":936,
			"type":"VEC2"
		},
		{
			"bufferView":32,
			"componentType":5123,
			"count":1794,
			"type":"SCALAR"
		},
		{
			"bufferView":33,
			"componentType":5126,
			"count":1672,
			"max":[
				-0.07574722170829773,
				1.4945225715637207,
				-0.09667837619781494
			],
			"min":[
				-0.4084446132183075,
				0.005132794380187988,
				-0.3879137933254242
			],
			"type":"VEC3"
		},
		{
			"bufferView":34,
			"componentType":5126,
			"count":1672,
			"type":"VEC3"
		},
		{
			"bufferView":35,
			"componentType":5126,
			"count":1672,
			"type":"VEC2"
		},
		{
			"bufferView":36,
			"componentType":5123,
			"count":3612,
			"type":"SCALAR"
		}
	],
	"bufferViews":[
		{
			"buffer":0,
			"byteLength":12276,
			"byteOffset":0,
			"target":34962
		},
		{
			"buffer":0,
			"byteLength":12276,
			"byteOffset":12276,
			"target":34962
		},
		{
			"buffer":0,
			"byteLength":8184,
			"byteOffset":24552,
			"target":34962
		},
		{
			"buffer":0,
			"byteLength":3588,
			"byteOffset":32736,
			"target":34963
		},
		{
			"buffer":0,
			"byteLength":11808,
			"byteOffset":36324,
			"target":34962
		},
		{
			"buffer":0,
			"byteLength":11808,
			"byteOffset":48132,
			"target":34962
		},
		{
			"buffer":0,
			"byteLength":7872,
			"byteOffset":59940,
			"target":34962
		},
		{
			"buffer":0,
			"byteLength":3588,
			"byteOffset":67812,
			"target":34963
		},
		{
			"buffer":0,
			"byteLength":19644,
			"byteOffset":71400,
			"target":34962
		},
		{
			"buffer":0,
			"byteLength":19644,
			"byteOffset":91044,
			"target":34962
		},
		{
			"buffer":0,
			"byteLength":13096,
			"byteOffset":110688,
			"target":34962
		},
		{
			"buffer":0,
			"byteLength":7224,
			"byteOffset":123784,
			"target":34963
		},
		{
			"buffer":0,
			"byteLength":2655,
			"byteOffset":131008
		},
		{
			"buffer":0,
			"byteLength":96,
			"byteOffset":133664,
			"target":34962
		},
		{
			"buffer":0,
			"byteLength":96,
			"byteOffset":133760,
			"target":34962
		},
		{
			"buffer":0,
			"byteLength":64,
			"byteOffset":133856,
			"target":34962
		},
		{
			"buffer":0,
			"byteLength":24,
			"byteOffset":133920,
			"target":34963
		},
		{
			"buffer":0,
			"byteLength":144,
			"byteOffset":133944,
			"target":34962
		},
		{
			"buffer":0,
			"byteLength":144,
			"byteOffset":134088,
			"target":34962
		},
		{
			"buffer":0,
			"byteLength":96,
			"byteOffset":134232,
			"target":34962
		},
		{
			"buffer":0,
			"byteLength":36,
			"byteOffset":134328,
			"target":34963
		},
		{
			"buffer":0,
			"byteLength":48,
			"byteOffset":134364,
			"target":34962
		},
		{
			"buffer":0,
			"byteLength":48,
			"byteOffset":134412,
			"target":34962
		},
		{
			"buffer":0,
			"byteLength":32,
			"byteOffset":134460,
			"target":34962
		},
		{
			"buffer":0,
			"byteLength":12,
			"byteOffset":134492,
			"target":34963
		},
		{
			"buffer":0,
			"byteLength":11460,
			"byteOffset":134504,
			"target":34962
		},
		{
			"buffer":0,
			"byteLength":11460,
			"byteOffset":145964,
			"target":34962
		},
		{
			"buffer":0,
			"byteLength":7640,
			"byteOffset":157424,
			"target":34962
		},
		{
			"buffer":0,
			"byteLength":3588,
			"byteOffset":165064,
			"target":34963
		},
		{
			"buffer":0,
			"byteLength":11232,
			"byteOffset":168652,
			"target":34962
		},
		{
			"buffer":0,
			"byteLength":11232,
			"byteOffset":179884,
			"target":34962
		},
		{
			"buffer":0,
			"byteLength":7488,
			"byteOffset":191116,
			"target":34962
		},
		{
			"buffer":0,
			"byteLength":3588,
			"byteOffset":198604,
			"target":34963
		},
		{
			"buffer":0,
			"byteLength":20064,
			"byteOffset":202192,
			"target":34962
		},
		{
			"buffer":0,
			"byteLength":20064,
			"byteOffset":222256,
			"target":34962
		},
		{
			"buffer":0,
			"byteLength":13376,
			"byteOffset":242320,
			"target":34962
		},
		{
			"buffer":0,
			"byteLength":7224,
			"byteOffset":255696,
			"target":34963
		}
	],
	"samplers":[
		{
			"magFilter":9729,
			"minFilter":9987
		}
	],
	"buffers":[
		{
			"byteLength":262920,
			"uri":"data:application/octet-stream;base64,"
		}
	]
}
