{
	"asset":{
		"generator":"Khronos glTF Blender I/O v3.6.27",
		"version":"2.0"
	},
	"extensionsUsed":[
		"KHR_lights_punctual",
		"KHR_materials_specular",
		"KHR_materials_ior"
	],
	"extensionsRequired":[
		"KHR_lights_punctual"
	],
	"extensions":{
		"KHR_lights_punctual":{
			"lights":[
				{
					"color":[
						1,
						1,
						1
					],
					"intensity":20794.849312067756,
					"type":"point",
					"name":"Light"
				}
			]
		}
	},
	"scene":0,
	"scenes":[
		{
			"name":"Scene",
			"nodes":[
				0,
				1,
				2
			]
		}
	],
	"nodes":[
		{
			"mesh":0,
			"name":"Plano"
		},
		{
			"extensions":{
				"KHR_lights_punctual":{
					"light":0
				}
			},
			"name":"Light",
			"rotation":[
				-0.28416627645492554,
				0.7269423007965088,
				0.34203392267227173,
				0.5232754945755005
			],
			"translation":[
				-0.24753546714782715,
				2.0338621139526367,
				-0.9662877321243286
			]
		},
		{
			"mesh":1,
			"name":"TQ_ARD-node",
			"rotation":[
				-0.5,
				0.4999999403953552,
				-0.5,
				0.5000000596046448
			],
			"translation":[
				0,
				0.1624853014945984,
				0
			]
		}
	],
	"materials":[
		{
			"doubleSided":true,
			"extensions":{
				"KHR_materials_specular":{
					"specularColorFactor":[
						0,
						0,
						0
					]
				},
				"KHR_materials_ior":{
					"ior":0
				}
			},
			"name":"TQ_ARD_front",
			"pbrMetallicRoughness":{
				"baseColorFactor":[
					0.188323974609375,
					0.10436828434467316,
					0.05224842205643654,
					1
				],
				"metallicFactor":0,
				"roughnessFactor":0.5
			}
		},
		{
			"doubleSided":true,
			"extensions":{
				"KHR_materials_specular":{
					"specularColorFactor":[
						0,
						0,
						0
					]
				},
				"KHR_materials_ior":{
					"ior":0
				}
			},
			"name":"TQ_ARD_back",
			"pbrMetallicRoughness":{
				"baseColorFactor":[
					0.4713444411754608,
					0.34452518820762634,
					0.2022777646780014,
					1
				],
				"metallicFactor":0,
				"roughnessFactor":0.5
			}
		},
		{
			"doubleSided":true,
			"extensions":{
				"KHR_materials_specular":{
					"specularColorFactor":[
						0,
						0,
						0
					]
				},
				"KHR_materials_ior":{
					"ior":0
				}
			},
			"name":"TQ_ARD_edge",
			"pbrMetallicRoughness":{
				"baseColorTexture":{
					"index":0
				},
				"metallicFactor":0,
				"roughnessFactor":0.5
			}
		}
	],
	"meshes":[
		{
			"name":"Plano",
			"primitives":[
				{
					"attributes":{
						"POSITION":0,
						"NORMAL":1,
						"TEXCOORD_0":2
					},
					"indices":3
				}
			]
		},
		{
			"name":"TQ_ARD-geom",
			"primitives":[
				{
					"attributes":{
						"POSITION":4,
						"NORMAL":5,
						"TEXCOORD_0":6
					},
					"indices":7,
					"material":0
				},
				{
					"attributes":{
						"POSITION":8,
						"NORMAL":9,
						"TEXCOORD_0":10
					},
					"indices":11,
					"material":1
				},
				{
					"attributes":{
						"POSITION":12,
						"NORMAL":13,
						"TEXCOORD_0":14
					},
					"indices":15,
					"material":2
				}
			]
		}
	],
	"textures":[
		{
			"sampler":0,
			"source":0
		}
	],
	"images":[
		{
			"bufferView":16,
			"mimeType":"image/png",
			"name":"TQ_ARD-I1"
		}
	],
	"accessors":[
		{
			"bufferView":0,
			"componentType":5126,
			"count":4,
			"max":[
				0.5,
				0,
				0.5
			],
			"min":[
				-0.5,
				0,
				-0.5
			],
			"type":"VEC3"
		},
		{
			"bufferView":1,
			"componentType":5126,
			"count":4,
			"type":"VEC3"
		},
		{
			"bufferView":2,
			"componentType":5126,
			"count":4,
			"type":"VEC2"
		},
		{
			"bufferView":3,
			"componentType":5123,
			"count":6,
			"type":"SCALAR"
		},
		{
			"bufferView":4,
			"componentType":5126,
			"count":2024,
			"max":[
				0.1613755226135254,
				0.15167082846164703,
				0.04722572863101959
			],
			"min":[
				-0.0900534838438034,
				-0.15091665089130402,
				-0.04636178910732269
			],
			"type":"VEC3"
		},
		{
			"bufferView":5,
			"componentType":5126,
			"count":2024,
			"type":"VEC3"
		},
		{
			"bufferView":6,
			"componentType":5126,
			"count":2024,
			"type":"VEC2"
		},
		{
			"bufferView":7,
			"componentType":5123,
			"count":5193,
			"type":"SCALAR"
		},
		{
			"bufferView":8,
			"componentType":5126,
			"count":1847,
			"max":[
				0.1613755226135254,
				0.15064460039138794,
				0.04643116146326065
			],
			"min":[
				-0.09009863436222076,
				-0.14989042282104492,
				-0.045485205948352814
			],
			"type":"VEC3"
		},
		{
			"bufferView":9,
			"componentType":5126,
			"count":1847,
			"type":"VEC3"
		},
		{
			"bufferView":10,
			"componentType":5126,
			"count":1847,
			"type":"VEC2"
		},
		{
			"bufferView":11,
			"componentType":5123,
			"count":5193,
			"type":"SCALAR"
		},
		{
			"bufferView":12,
			"componentType":5126,
			"count":3008,
			"max":[
				0.1613755226135254,
				0.15167082846164703,
				0.04722572863101959
			],
			"min":[
				-0.09009863436222076,
				-0.15091665089130402,
				-0.04636178910732269
			],
			"type":"VEC3"
		},
		{
			"bufferView":13,
			"componentType":5126,
			"count":3008,
			"type":"VEC3"
		},
		{
			"bufferView":14,
			"componentType":5126,
			"count":3008,
			"type":"VEC2"
		},
		{
			"bufferView":15,
			"componentType":5123,
			"count":7296,
			"type":"SCALAR"
		}
	],
	"bufferViews":[
		{
			"buffer":0,
			"byteLength":48,
			"byteOffset":0,
			"target":34962
		},
		{
			"buffer":0,
			"byteLength":48,
			"byteOffset":48,
			"target":34962
		},
		{
			"buffer":0,
			"byteLength":32,
			"byteOffset":96,
			"target":34962
		},
		{
			"buffer":0,
			"byteLength":12,
			"byteOffset":128,
			"target":34963
		},
		{
			"buffer":0,
			"byteLength":24288,
			"byteOffset":140,
			"target":34962
		},
		{
			"buffer":0,
			"byteLength":24288,
			"byteOffset":24428,
			"target":34962
		},
		{
			"buffer":0,
			"byteLength":16192,
			"byteOffset":48716,
			"target":34962
		},
		{
			"buffer":0,
			"byteLength":10386,
			"byteOffset":64908,
			"target":34963
		},
		{
			"buffer":0,
			"byteLength":22164,
			"byteOffset":75296,
			"target":34962
		},
		{
			"buffer":0,
			"byteLength":22164,
			"byteOffset":97460,
			"target":34962
		},
		{
			"buffer":0,
			"byteLength":14776,
			"byteOffset":119624,
			"target":34962
		},
		{
			"buffer":0,
			"byteLength":10386,
			"byteOffset":134400,
			"target":34963
		},
		{
			"buffer":0,
			"byteLength":36096,
			"byteOffset":144788,
			"target":34962
		},
		{
			"buffer":0,
			"byteLength":36096,
			"byteOffset":180884,
			"target":34962
		},
		{
			"buffer":0,
			"byteLength":24064,
			"byteOffset":216980,
			"target":34962
		},
		{
			"buffer":0,
			"byteLength":14592,
			"byteOffset":241044,
			"target":34963
		},
		{
			"buffer":0,
			"byteLength":767,
			"byteOffset":255636
		}
	],
	"samplers":[
		{
			"magFilter":9729,
			"minFilter":9987
		}
	],
	"buffers":[
		{
			"byteLength":256404,
			"uri":"data:application/octet-stream;base64,"
		}
	]
}
