{"extensionsUsed" : ["KHR_materials_specular", "KHR_materials_ior"], "accessors" : [{"bufferView" : 0, "byteOffset" : 0, "componentType" : 5123, "count" : 2520, "type" : "SCALAR", "max" : [2099], "min" : [0]}, {"bufferView" : 1, "byteOffset" : 0, "componentType" : 5126, "count" : 2100, "type" : "VEC3", "max" : [0.0376470722258091, 0.3218425214290619, 0.0948001816868782], "min" : [-0.03655628487467766, 0.003942355513572693, -0.10020247846841812], "name" : "POSITION"}, {"bufferView" : 1, "byteOffset" : 12, "componentType" : 5126, "count" : 2100, "type" : "VEC3", "max" : [0.999987006187439, 1.0000044107437134, 0.9999915361404419], "min" : [-1.000002384185791, -0.9999006986618042, -0.9999542236328125], "name" : "NORMAL"}, {"bufferView" : 1, "byteOffset" : 24, "componentType" : 5126, "count" : 2100, "type" : "VEC2", "max" : [1, 1], "min" : [0, 0], "name" : "TEXCOORD_0"}, {"bufferView" : 0, "byteOffset" : 5040, "componentType" : 5123, "count" : 4908, "type" : "SCALAR", "max" : [4111], "min" : [0]}, {"bufferView" : 2, "byteOffset" : 0, "componentType" : 5126, "count" : 4112, "type" : "VEC3", "max" : [0.0376470722258091, 0.3218425214290619, 0.0948001816868782], "min" : [-0.03655628487467766, 0.003942355513572693, -0.10020247846841812], "name" : "POSITION"}, {"bufferView" : 2, "byteOffset" : 12, "componentType" : 5126, "count" : 4112, "type" : "VEC3", "max" : [1.0000044107437134, 1.0000044107437134, 1.0000044107437134], "min" : [-1.0000044107437134, -1.0000044107437134, -1.0000044107437134], "name" : "NORMAL"}, {"bufferView" : 2, "byteOffset" : 24, "componentType" : 5126, "count" : 4112, "type" : "VEC2", "max" : [9.934072494506836, 1], "min" : [-8.934072494506836, 0], "name" : "TEXCOORD_0"}, {"bufferView" : 0, "byteOffset" : 14856, "componentType" : 5123, "count" : 2520, "type" : "SCALAR", "max" : [2124], "min" : [0]}, {"bufferView" : 3, "byteOffset" : 0, "componentType" : 5126, "count" : 2125, "type" : "VEC3", "max" : [0.03606760874390602, 0.3197419047355652, 0.09330026060342789], "min" : [-0.03505627438426018, 0.005529433488845825, -0.09870240837335587], "name" : "POSITION"}, {"bufferView" : 3, "byteOffset" : 12, "componentType" : 5126, "count" : 2125, "type" : "VEC3", "max" : [1.000002384185791, 0.9998934268951416, 0.9999521970748901], "min" : [-0.999987006187439, -1.0000044107437134, -0.9999904632568359], "name" : "NORMAL"}, {"bufferView" : 3, "byteOffset" : 24, "componentType" : 5126, "count" : 2125, "type" : "VEC2", "max" : [1, 1], "min" : [0, 5.960464477539063E-08], "name" : "TEXCOORD_0"}], "asset" : {"generator" : "Aspose.3D 23.11.1", "version" : "2.0"}, "buffers" : [{"uri" : "data:application/octet-stream;base64,", "byteLength" : 338248}], "bufferViews" : [{"buffer" : 0, "byteOffset" : 0, "byteLength" : 19896, "target" : 34963}, {"buffer" : 0, "byteOffset" : 19900, "byteLength" : 80640, "byteStride" : 32, "target" : 34962}, {"buffer" : 0, "byteOffset" : 100544, "byteLength" : 157056, "byteStride" : 32, "target" : 34962}, {"buffer" : 0, "byteOffset" : 257604, "byteLength" : 80640, "byteStride" : 32, "target" : 34962}], "images" : [{"uri" : "data:image/png;base64,"}], "materials" : [{"name" : "back-dil", "extensions" : {"KHR_materials_specular" : {"specularFactor" : 0}, "KHR_materials_ior" : {"ior" : 0}}, "pbrMetallicRoughness" : {"baseColorFactor" : [1, 1, 1, 1], "metallicFactor" : 0, "roughnessFactor" : 1}, "emissiveFactor" : [0, 0, 0], "alphaMode" : "OPAQUE", "doubleSided" : true}, {"name" : "Material.001", "pbrMetallicRoughness" : {"baseColorFactor" : [1, 1, 1, 1], "baseColorTexture" : {"index" : 0, "texCoord" : 0}, "metallicFactor" : 0, "roughnessFactor" : 0.5}, "emissiveFactor" : [0, 0, 0], "alphaMode" : "OPAQUE", "doubleSided" : true}, {"name" : "back-dil.001", "extensions" : {"KHR_materials_specular" : {"specularFactor" : 0}, "KHR_materials_ior" : {"ior" : 0}}, "pbrMetallicRoughness" : {"baseColorFactor" : [0.3543729782104492, 0.19485172629356384, 0.08572247624397278, 1], "metallicFactor" : 0, "roughnessFactor" : 1}, "emissiveFactor" : [0, 0, 0], "alphaMode" : "OPAQUE", "doubleSided" : true}], "meshes" : [{"primitives" : [{"attributes" : {"POSITION" : 1, "NORMAL" : 2, "TEXCOORD_0" : 3}, "indices" : 0, "material" : 0, "mode" : 4}, {"attributes" : {"POSITION" : 5, "NORMAL" : 6, "TEXCOORD_0" : 7}, "indices" : 4, "material" : 1, "mode" : 4}, {"attributes" : {"POSITION" : 9, "NORMAL" : 10, "TEXCOORD_0" : 11}, "indices" : 8, "material" : 2, "mode" : 4}]}], "nodes" : [{"mesh" : 0, "name" : "Curve.001"}], "samplers" : [{"magFilter" : 9729, "minFilter" : 9987, "wrapS" : 10497, "wrapT" : 10497}], "scene" : 0, "scenes" : [{"nodes" : [0]}], "textures" : [{"sampler" : 0, "source" : 0, "name" : ""}]}