{
	"asset":{
		"generator":"Khronos glTF Blender I/O v3.6.27",
		"version":"2.0"
	},
	"extensionsUsed":[
		"KHR_lights_punctual",
		"KHR_materials_specular",
		"KHR_materials_ior"
	],
	"extensionsRequired":[
		"KHR_lights_punctual"
	],
	"extensions":{
		"KHR_lights_punctual":{
			"lights":[
				{
					"color":[
						1,
						1,
						1
					],
					"intensity":167804.5473918497,
					"type":"point",
					"name":"Light"
				}
			]
		}
	},
	"scene":0,
	"scenes":[
		{
			"name":"Scene",
			"nodes":[
				0,
				1,
				2
			]
		}
	],
	"nodes":[
		{
			"extensions":{
				"KHR_lights_punctual":{
					"light":0
				}
			},
			"name":"Light",
			"rotation":[
				-0.28416627645492554,
				0.7269423007965088,
				0.34203392267227173,
				0.5232754945755005
			],
			"translation":[
				-0.2415999174118042,
				4.7838616371154785,
				-0.4116322100162506
			]
		},
		{
			"mesh":0,
			"name":"TQ_ARD_D13-node"
		},
		{
			"mesh":1,
			"name":"TQ_ARD_D13-node.001"
		}
	],
	"materials":[
		{
			"doubleSided":true,
			"extensions":{
				"KHR_materials_specular":{
					"specularColorFactor":[
						0,
						0,
						0
					]
				},
				"KHR_materials_ior":{
					"ior":0
				}
			},
			"name":"a1.001",
			"pbrMetallicRoughness":{
				"baseColorFactor":[
					0.318538635969162,
					0.19185739755630493,
					0.05194927006959915,
					1
				],
				"metallicFactor":0,
				"roughnessFactor":0.5
			}
		},
		{
			"doubleSided":true,
			"extensions":{
				"KHR_materials_specular":{
					"specularColorFactor":[
						0,
						0,
						0
					]
				},
				"KHR_materials_ior":{
					"ior":0
				}
			},
			"name":"a2",
			"pbrMetallicRoughness":{
				"baseColorFactor":[
					0.28100940585136414,
					0.13795529305934906,
					0.03853278607130051,
					1
				],
				"metallicFactor":0,
				"roughnessFactor":0.5
			}
		},
		{
			"doubleSided":true,
			"extensions":{
				"KHR_materials_specular":{
					"specularColorFactor":[
						0,
						0,
						0
					]
				},
				"KHR_materials_ior":{
					"ior":0
				}
			},
			"name":"a3",
			"pbrMetallicRoughness":{
				"baseColorFactor":[
					0,
					0,
					0,
					1
				],
				"metallicFactor":0,
				"roughnessFactor":0.5
			}
		}
	],
	"meshes":[
		{
			"name":"TQ_ARD_D13-geom",
			"primitives":[
				{
					"attributes":{
						"POSITION":0,
						"NORMAL":1,
						"TEXCOORD_0":2,
						"TEXCOORD_1":3,
						"TEXCOORD_2":4,
						"TEXCOORD_3":5,
						"TEXCOORD_4":6,
						"TEXCOORD_5":7,
						"TEXCOORD_6":8,
						"TEXCOORD_7":9,
						"TEXCOORD_8":10,
						"TEXCOORD_9":11,
						"TEXCOORD_10":12,
						"TEXCOORD_11":13,
						"TEXCOORD_12":14
					},
					"indices":15,
					"material":0
				},
				{
					"attributes":{
						"POSITION":16,
						"NORMAL":17,
						"TEXCOORD_0":18,
						"TEXCOORD_1":19,
						"TEXCOORD_2":20,
						"TEXCOORD_3":21,
						"TEXCOORD_4":22,
						"TEXCOORD_5":23,
						"TEXCOORD_6":24,
						"TEXCOORD_7":25,
						"TEXCOORD_8":26,
						"TEXCOORD_9":27,
						"TEXCOORD_10":28,
						"TEXCOORD_11":29,
						"TEXCOORD_12":30
					},
					"indices":31,
					"material":1
				},
				{
					"attributes":{
						"POSITION":32,
						"NORMAL":33,
						"TEXCOORD_0":34,
						"TEXCOORD_1":35,
						"TEXCOORD_2":36,
						"TEXCOORD_3":37,
						"TEXCOORD_4":38,
						"TEXCOORD_5":39,
						"TEXCOORD_6":40,
						"TEXCOORD_7":41,
						"TEXCOORD_8":42,
						"TEXCOORD_9":43,
						"TEXCOORD_10":44,
						"TEXCOORD_11":45,
						"TEXCOORD_12":46
					},
					"indices":47,
					"material":2
				}
			]
		},
		{
			"name":"TQ_ARD_D13-geom.002",
			"primitives":[
				{
					"attributes":{
						"POSITION":48,
						"NORMAL":49,
						"TEXCOORD_0":50,
						"TEXCOORD_1":51,
						"TEXCOORD_2":52,
						"TEXCOORD_3":53,
						"TEXCOORD_4":54,
						"TEXCOORD_5":55,
						"TEXCOORD_6":56,
						"TEXCOORD_7":57,
						"TEXCOORD_8":58,
						"TEXCOORD_9":59,
						"TEXCOORD_10":60,
						"TEXCOORD_11":61,
						"TEXCOORD_12":62
					},
					"indices":63,
					"material":0
				},
				{
					"attributes":{
						"POSITION":64,
						"NORMAL":65,
						"TEXCOORD_0":66,
						"TEXCOORD_1":67,
						"TEXCOORD_2":68,
						"TEXCOORD_3":69,
						"TEXCOORD_4":70,
						"TEXCOORD_5":71,
						"TEXCOORD_6":72,
						"TEXCOORD_7":73,
						"TEXCOORD_8":74,
						"TEXCOORD_9":75,
						"TEXCOORD_10":76,
						"TEXCOORD_11":77,
						"TEXCOORD_12":78
					},
					"indices":79,
					"material":1
				},
				{
					"attributes":{
						"POSITION":80,
						"NORMAL":81,
						"TEXCOORD_0":82,
						"TEXCOORD_1":83,
						"TEXCOORD_2":84,
						"TEXCOORD_3":85,
						"TEXCOORD_4":86,
						"TEXCOORD_5":87,
						"TEXCOORD_6":88,
						"TEXCOORD_7":89,
						"TEXCOORD_8":90,
						"TEXCOORD_9":91,
						"TEXCOORD_10":92,
						"TEXCOORD_11":93,
						"TEXCOORD_12":94
					},
					"indices":95,
					"material":2
				}
			]
		}
	],
	"accessors":[
		{
			"bufferView":0,
			"componentType":5126,
			"count":2204,
			"max":[
				-0.2131224274635315,
				1.5272009372711182,
				0.2507902979850769
			],
			"min":[
				-0.9184818267822266,
				-0.45502105355262756,
				-0.23423677682876587
			],
			"type":"VEC3"
		},
		{
			"bufferView":1,
			"componentType":5126,
			"count":2204,
			"type":"VEC3"
		},
		{
			"bufferView":2,
			"componentType":5126,
			"count":2204,
			"type":"VEC2"
		},
		{
			"bufferView":3,
			"componentType":5126,
			"count":2204,
			"type":"VEC2"
		},
		{
			"bufferView":4,
			"componentType":5126,
			"count":2204,
			"type":"VEC2"
		},
		{
			"bufferView":5,
			"componentType":5126,
			"count":2204,
			"type":"VEC2"
		},
		{
			"bufferView":6,
			"componentType":5126,
			"count":2204,
			"type":"VEC2"
		},
		{
			"bufferView":7,
			"componentType":5126,
			"count":2204,
			"type":"VEC2"
		},
		{
			"bufferView":8,
			"componentType":5126,
			"count":2204,
			"type":"VEC2"
		},
		{
			"bufferView":9,
			"componentType":5126,
			"count":2204,
			"type":"VEC2"
		},
		{
			"bufferView":10,
			"componentType":5126,
			"count":2204,
			"type":"VEC2"
		},
		{
			"bufferView":11,
			"componentType":5126,
			"count":2204,
			"type":"VEC2"
		},
		{
			"bufferView":12,
			"componentType":5126,
			"count":2204,
			"type":"VEC2"
		},
		{
			"bufferView":13,
			"componentType":5126,
			"count":2204,
			"type":"VEC2"
		},
		{
			"bufferView":14,
			"componentType":5126,
			"count":2204,
			"type":"VEC2"
		},
		{
			"bufferView":15,
			"componentType":5123,
			"count":5664,
			"type":"SCALAR"
		},
		{
			"bufferView":16,
			"componentType":5126,
			"count":2257,
			"max":[
				-0.2131224274635315,
				1.5272009372711182,
				0.2507902979850769
			],
			"min":[
				-0.9184818267822266,
				-0.45502105355262756,
				-0.23423677682876587
			],
			"type":"VEC3"
		},
		{
			"bufferView":17,
			"componentType":5126,
			"count":2257,
			"type":"VEC3"
		},
		{
			"bufferView":18,
			"componentType":5126,
			"count":2257,
			"type":"VEC2"
		},
		{
			"bufferView":19,
			"componentType":5126,
			"count":2257,
			"type":"VEC2"
		},
		{
			"bufferView":20,
			"componentType":5126,
			"count":2257,
			"type":"VEC2"
		},
		{
			"bufferView":21,
			"componentType":5126,
			"count":2257,
			"type":"VEC2"
		},
		{
			"bufferView":22,
			"componentType":5126,
			"count":2257,
			"type":"VEC2"
		},
		{
			"bufferView":23,
			"componentType":5126,
			"count":2257,
			"type":"VEC2"
		},
		{
			"bufferView":24,
			"componentType":5126,
			"count":2257,
			"type":"VEC2"
		},
		{
			"bufferView":25,
			"componentType":5126,
			"count":2257,
			"type":"VEC2"
		},
		{
			"bufferView":26,
			"componentType":5126,
			"count":2257,
			"type":"VEC2"
		},
		{
			"bufferView":27,
			"componentType":5126,
			"count":2257,
			"type":"VEC2"
		},
		{
			"bufferView":28,
			"componentType":5126,
			"count":2257,
			"type":"VEC2"
		},
		{
			"bufferView":29,
			"componentType":5126,
			"count":2257,
			"type":"VEC2"
		},
		{
			"bufferView":30,
			"componentType":5126,
			"count":2257,
			"type":"VEC2"
		},
		{
			"bufferView":31,
			"componentType":5123,
			"count":5664,
			"type":"SCALAR"
		},
		{
			"bufferView":32,
			"componentType":5126,
			"count":6597,
			"max":[
				-0.2131224274635315,
				1.5272009372711182,
				0.2507902979850769
			],
			"min":[
				-0.9184818267822266,
				-0.45502105355262756,
				-0.23423677682876587
			],
			"type":"VEC3"
		},
		{
			"bufferView":33,
			"componentType":5126,
			"count":6597,
			"type":"VEC3"
		},
		{
			"bufferView":34,
			"componentType":5126,
			"count":6597,
			"type":"VEC2"
		},
		{
			"bufferView":35,
			"componentType":5126,
			"count":6597,
			"type":"VEC2"
		},
		{
			"bufferView":36,
			"componentType":5126,
			"count":6597,
			"type":"VEC2"
		},
		{
			"bufferView":37,
			"componentType":5126,
			"count":6597,
			"type":"VEC2"
		},
		{
			"bufferView":38,
			"componentType":5126,
			"count":6597,
			"type":"VEC2"
		},
		{
			"bufferView":39,
			"componentType":5126,
			"count":6597,
			"type":"VEC2"
		},
		{
			"bufferView":40,
			"componentType":5126,
			"count":6597,
			"type":"VEC2"
		},
		{
			"bufferView":41,
			"componentType":5126,
			"count":6597,
			"type":"VEC2"
		},
		{
			"bufferView":42,
			"componentType":5126,
			"count":6597,
			"type":"VEC2"
		},
		{
			"bufferView":43,
			"componentType":5126,
			"count":6597,
			"type":"VEC2"
		},
		{
			"bufferView":44,
			"componentType":5126,
			"count":6597,
			"type":"VEC2"
		},
		{
			"bufferView":45,
			"componentType":5126,
			"count":6597,
			"type":"VEC2"
		},
		{
			"bufferView":46,
			"componentType":5126,
			"count":6597,
			"type":"VEC2"
		},
		{
			"bufferView":47,
			"componentType":5123,
			"count":11262,
			"type":"SCALAR"
		},
		{
			"bufferView":48,
			"componentType":5126,
			"count":2406,
			"max":[
				0.7558550834655762,
				1.5272010564804077,
				0.3188317120075226
			],
			"min":[
				0.2708280086517334,
				-0.45502105355262756,
				-0.3865276277065277
			],
			"type":"VEC3"
		},
		{
			"bufferView":49,
			"componentType":5126,
			"count":2406,
			"type":"VEC3"
		},
		{
			"bufferView":50,
			"componentType":5126,
			"count":2406,
			"type":"VEC2"
		},
		{
			"bufferView":51,
			"componentType":5126,
			"count":2406,
			"type":"VEC2"
		},
		{
			"bufferView":52,
			"componentType":5126,
			"count":2406,
			"type":"VEC2"
		},
		{
			"bufferView":53,
			"componentType":5126,
			"count":2406,
			"type":"VEC2"
		},
		{
			"bufferView":54,
			"componentType":5126,
			"count":2406,
			"type":"VEC2"
		},
		{
			"bufferView":55,
			"componentType":5126,
			"count":2406,
			"type":"VEC2"
		},
		{
			"bufferView":56,
			"componentType":5126,
			"count":2406,
			"type":"VEC2"
		},
		{
			"bufferView":57,
			"componentType":5126,
			"count":2406,
			"type":"VEC2"
		},
		{
			"bufferView":58,
			"componentType":5126,
			"count":2406,
			"type":"VEC2"
		},
		{
			"bufferView":59,
			"componentType":5126,
			"count":2406,
			"type":"VEC2"
		},
		{
			"bufferView":60,
			"componentType":5126,
			"count":2406,
			"type":"VEC2"
		},
		{
			"bufferView":61,
			"componentType":5126,
			"count":2406,
			"type":"VEC2"
		},
		{
			"bufferView":62,
			"componentType":5126,
			"count":2406,
			"type":"VEC2"
		},
		{
			"bufferView":63,
			"componentType":5123,
			"count":5664,
			"type":"SCALAR"
		},
		{
			"bufferView":64,
			"componentType":5126,
			"count":2386,
			"max":[
				0.7558550834655762,
				1.5272010564804077,
				0.3188317120075226
			],
			"min":[
				0.2708280086517334,
				-0.45502105355262756,
				-0.3865276277065277
			],
			"type":"VEC3"
		},
		{
			"bufferView":65,
			"componentType":5126,
			"count":2386,
			"type":"VEC3"
		},
		{
			"bufferView":66,
			"componentType":5126,
			"count":2386,
			"type":"VEC2"
		},
		{
			"bufferView":67,
			"componentType":5126,
			"count":2386,
			"type":"VEC2"
		},
		{
			"bufferView":68,
			"componentType":5126,
			"count":2386,
			"type":"VEC2"
		},
		{
			"bufferView":69,
			"componentType":5126,
			"count":2386,
			"type":"VEC2"
		},
		{
			"bufferView":70,
			"componentType":5126,
			"count":2386,
			"type":"VEC2"
		},
		{
			"bufferView":71,
			"componentType":5126,
			"count":2386,
			"type":"VEC2"
		},
		{
			"bufferView":72,
			"componentType":5126,
			"count":2386,
			"type":"VEC2"
		},
		{
			"bufferView":73,
			"componentType":5126,
			"count":2386,
			"type":"VEC2"
		},
		{
			"bufferView":74,
			"componentType":5126,
			"count":2386,
			"type":"VEC2"
		},
		{
			"bufferView":75,
			"componentType":5126,
			"count":2386,
			"type":"VEC2"
		},
		{
			"bufferView":76,
			"componentType":5126,
			"count":2386,
			"type":"VEC2"
		},
		{
			"bufferView":77,
			"componentType":5126,
			"count":2386,
			"type":"VEC2"
		},
		{
			"bufferView":78,
			"componentType":5126,
			"count":2386,
			"type":"VEC2"
		},
		{
			"bufferView":79,
			"componentType":5123,
			"count":5664,
			"type":"SCALAR"
		},
		{
			"bufferView":80,
			"componentType":5126,
			"count":6585,
			"max":[
				0.7558550834655762,
				1.5272010564804077,
				0.3188317120075226
			],
			"min":[
				0.2708280086517334,
				-0.45502105355262756,
				-0.3865276277065277
			],
			"type":"VEC3"
		},
		{
			"bufferView":81,
			"componentType":5126,
			"count":6585,
			"type":"VEC3"
		},
		{
			"bufferView":82,
			"componentType":5126,
			"count":6585,
			"type":"VEC2"
		},
		{
			"bufferView":83,
			"componentType":5126,
			"count":6585,
			"type":"VEC2"
		},
		{
			"bufferView":84,
			"componentType":5126,
			"count":6585,
			"type":"VEC2"
		},
		{
			"bufferView":85,
			"componentType":5126,
			"count":6585,
			"type":"VEC2"
		},
		{
			"bufferView":86,
			"componentType":5126,
			"count":6585,
			"type":"VEC2"
		},
		{
			"bufferView":87,
			"componentType":5126,
			"count":6585,
			"type":"VEC2"
		},
		{
			"bufferView":88,
			"componentType":5126,
			"count":6585,
			"type":"VEC2"
		},
		{
			"bufferView":89,
			"componentType":5126,
			"count":6585,
			"type":"VEC2"
		},
		{
			"bufferView":90,
			"componentType":5126,
			"count":6585,
			"type":"VEC2"
		},
		{
			"bufferView":91,
			"componentType":5126,
			"count":6585,
			"type":"VEC2"
		},
		{
			"bufferView":92,
			"componentType":5126,
			"count":6585,
			"type":"VEC2"
		},
		{
			"bufferView":93,
			"componentType":5126,
			"count":6585,
			"type":"VEC2"
		},
		{
			"bufferView":94,
			"componentType":5126,
			"count":6585,
			"type":"VEC2"
		},
		{
			"bufferView":95,
			"componentType":5123,
			"count":11262,
			"type":"SCALAR"
		}
	],
	"bufferViews":[
		{
			"buffer":0,
			"byteLength":26448,
			"byteOffset":0,
			"target":34962
		},
		{
			"buffer":0,
			"byteLength":26448,
			"byteOffset":26448,
			"target":34962
		},
		{
			"buffer":0,
			"byteLength":17632,
			"byteOffset":52896,
			"target":34962
		},
		{
			"buffer":0,
			"byteLength":17632,
			"byteOffset":70528,
			"target":34962
		},
		{
			"buffer":0,
			"byteLength":17632,
			"byteOffset":88160,
			"target":34962
		},
		{
			"buffer":0,
			"byteLength":17632,
			"byteOffset":105792,
			"target":34962
		},
		{
			"buffer":0,
			"byteLength":17632,
			"byteOffset":123424,
			"target":34962
		},
		{
			"buffer":0,
			"byteLength":17632,
			"byteOffset":141056,
			"target":34962
		},
		{
			"buffer":0,
			"byteLength":17632,
			"byteOffset":158688,
			"target":34962
		},
		{
			"buffer":0,
			"byteLength":17632,
			"byteOffset":176320,
			"target":34962
		},
		{
			"buffer":0,
			"byteLength":17632,
			"byteOffset":193952,
			"target":34962
		},
		{
			"buffer":0,
			"byteLength":17632,
			"byteOffset":211584,
			"target":34962
		},
		{
			"buffer":0,
			"byteLength":17632,
			"byteOffset":229216,
			"target":34962
		},
		{
			"buffer":0,
			"byteLength":17632,
			"byteOffset":246848,
			"target":34962
		},
		{
			"buffer":0,
			"byteLength":17632,
			"byteOffset":264480,
			"target":34962
		},
		{
			"buffer":0,
			"byteLength":11328,
			"byteOffset":282112,
			"target":34963
		},
		{
			"buffer":0,
			"byteLength":27084,
			"byteOffset":293440,
			"target":34962
		},
		{
			"buffer":0,
			"byteLength":27084,
			"byteOffset":320524,
			"target":34962
		},
		{
			"buffer":0,
			"byteLength":18056,
			"byteOffset":347608,
			"target":34962
		},
		{
			"buffer":0,
			"byteLength":18056,
			"byteOffset":365664,
			"target":34962
		},
		{
			"buffer":0,
			"byteLength":18056,
			"byteOffset":383720,
			"target":34962
		},
		{
			"buffer":0,
			"byteLength":18056,
			"byteOffset":401776,
			"target":34962
		},
		{
			"buffer":0,
			"byteLength":18056,
			"byteOffset":419832,
			"target":34962
		},
		{
			"buffer":0,
			"byteLength":18056,
			"byteOffset":437888,
			"target":34962
		},
		{
			"buffer":0,
			"byteLength":18056,
			"byteOffset":455944,
			"target":34962
		},
		{
			"buffer":0,
			"byteLength":18056,
			"byteOffset":474000,
			"target":34962
		},
		{
			"buffer":0,
			"byteLength":18056,
			"byteOffset":492056,
			"target":34962
		},
		{
			"buffer":0,
			"byteLength":18056,
			"byteOffset":510112,
			"target":34962
		},
		{
			"buffer":0,
			"byteLength":18056,
			"byteOffset":528168,
			"target":34962
		},
		{
			"buffer":0,
			"byteLength":18056,
			"byteOffset":546224,
			"target":34962
		},
		{
			"buffer":0,
			"byteLength":18056,
			"byteOffset":564280,
			"target":34962
		},
		{
			"buffer":0,
			"byteLength":11328,
			"byteOffset":582336,
			"target":34963
		},
		{
			"buffer":0,
			"byteLength":79164,
			"byteOffset":593664,
			"target":34962
		},
		{
			"buffer":0,
			"byteLength":79164,
			"byteOffset":672828,
			"target":34962
		},
		{
			"buffer":0,
			"byteLength":52776,
			"byteOffset":751992,
			"target":34962
		},
		{
			"buffer":0,
			"byteLength":52776,
			"byteOffset":804768,
			"target":34962
		},
		{
			"buffer":0,
			"byteLength":52776,
			"byteOffset":857544,
			"target":34962
		},
		{
			"buffer":0,
			"byteLength":52776,
			"byteOffset":910320,
			"target":34962
		},
		{
			"buffer":0,
			"byteLength":52776,
			"byteOffset":963096,
			"target":34962
		},
		{
			"buffer":0,
			"byteLength":52776,
			"byteOffset":1015872,
			"target":34962
		},
		{
			"buffer":0,
			"byteLength":52776,
			"byteOffset":1068648,
			"target":34962
		},
		{
			"buffer":0,
			"byteLength":52776,
			"byteOffset":1121424,
			"target":34962
		},
		{
			"buffer":0,
			"byteLength":52776,
			"byteOffset":1174200,
			"target":34962
		},
		{
			"buffer":0,
			"byteLength":52776,
			"byteOffset":1226976,
			"target":34962
		},
		{
			"buffer":0,
			"byteLength":52776,
			"byteOffset":1279752,
			"target":34962
		},
		{
			"buffer":0,
			"byteLength":52776,
			"byteOffset":1332528,
			"target":34962
		},
		{
			"buffer":0,
			"byteLength":52776,
			"byteOffset":1385304,
			"target":34962
		},
		{
			"buffer":0,
			"byteLength":22524,
			"byteOffset":1438080,
			"target":34963
		},
		{
			"buffer":0,
			"byteLength":28872,
			"byteOffset":1460604,
			"target":34962
		},
		{
			"buffer":0,
			"byteLength":28872,
			"byteOffset":1489476,
			"target":34962
		},
		{
			"buffer":0,
			"byteLength":19248,
			"byteOffset":1518348,
			"target":34962
		},
		{
			"buffer":0,
			"byteLength":19248,
			"byteOffset":1537596,
			"target":34962
		},
		{
			"buffer":0,
			"byteLength":19248,
			"byteOffset":1556844,
			"target":34962
		},
		{
			"buffer":0,
			"byteLength":19248,
			"byteOffset":1576092,
			"target":34962
		},
		{
			"buffer":0,
			"byteLength":19248,
			"byteOffset":1595340,
			"target":34962
		},
		{
			"buffer":0,
			"byteLength":19248,
			"byteOffset":1614588,
			"target":34962
		},
		{
			"buffer":0,
			"byteLength":19248,
			"byteOffset":1633836,
			"target":34962
		},
		{
			"buffer":0,
			"byteLength":19248,
			"byteOffset":1653084,
			"target":34962
		},
		{
			"buffer":0,
			"byteLength":19248,
			"byteOffset":1672332,
			"target":34962
		},
		{
			"buffer":0,
			"byteLength":19248,
			"byteOffset":1691580,
			"target":34962
		},
		{
			"buffer":0,
			"byteLength":19248,
			"byteOffset":1710828,
			"target":34962
		},
		{
			"buffer":0,
			"byteLength":19248,
			"byteOffset":1730076,
			"target":34962
		},
		{
			"buffer":0,
			"byteLength":19248,
			"byteOffset":1749324,
			"target":34962
		},
		{
			"buffer":0,
			"byteLength":11328,
			"byteOffset":1768572,
			"target":34963
		},
		{
			"buffer":0,
			"byteLength":28632,
			"byteOffset":1779900,
			"target":34962
		},
		{
			"buffer":0,
			"byteLength":28632,
			"byteOffset":1808532,
			"target":34962
		},
		{
			"buffer":0,
			"byteLength":19088,
			"byteOffset":1837164,
			"target":34962
		},
		{
			"buffer":0,
			"byteLength":19088,
			"byteOffset":1856252,
			"target":34962
		},
		{
			"buffer":0,
			"byteLength":19088,
			"byteOffset":1875340,
			"target":34962
		},
		{
			"buffer":0,
			"byteLength":19088,
			"byteOffset":1894428,
			"target":34962
		},
		{
			"buffer":0,
			"byteLength":19088,
			"byteOffset":1913516,
			"target":34962
		},
		{
			"buffer":0,
			"byteLength":19088,
			"byteOffset":1932604,
			"target":34962
		},
		{
			"buffer":0,
			"byteLength":19088,
			"byteOffset":1951692,
			"target":34962
		},
		{
			"buffer":0,
			"byteLength":19088,
			"byteOffset":1970780,
			"target":34962
		},
		{
			"buffer":0,
			"byteLength":19088,
			"byteOffset":1989868,
			"target":34962
		},
		{
			"buffer":0,
			"byteLength":19088,
			"byteOffset":2008956,
			"target":34962
		},
		{
			"buffer":0,
			"byteLength":19088,
			"byteOffset":2028044,
			"target":34962
		},
		{
			"buffer":0,
			"byteLength":19088,
			"byteOffset":2047132,
			"target":34962
		},
		{
			"buffer":0,
			"byteLength":19088,
			"byteOffset":2066220,
			"target":34962
		},
		{
			"buffer":0,
			"byteLength":11328,
			"byteOffset":2085308,
			"target":34963
		},
		{
			"buffer":0,
			"byteLength":79020,
			"byteOffset":2096636,
			"target":34962
		},
		{
			"buffer":0,
			"byteLength":79020,
			"byteOffset":2175656,
			"target":34962
		},
		{
			"buffer":0,
			"byteLength":52680,
			"byteOffset":2254676,
			"target":34962
		},
		{
			"buffer":0,
			"byteLength":52680,
			"byteOffset":2307356,
			"target":34962
		},
		{
			"buffer":0,
			"byteLength":52680,
			"byteOffset":2360036,
			"target":34962
		},
		{
			"buffer":0,
			"byteLength":52680,
			"byteOffset":2412716,
			"target":34962
		},
		{
			"buffer":0,
			"byteLength":52680,
			"byteOffset":2465396,
			"target":34962
		},
		{
			"buffer":0,
			"byteLength":52680,
			"byteOffset":2518076,
			"target":34962
		},
		{
			"buffer":0,
			"byteLength":52680,
			"byteOffset":2570756,
			"target":34962
		},
		{
			"buffer":0,
			"byteLength":52680,
			"byteOffset":2623436,
			"target":34962
		},
		{
			"buffer":0,
			"byteLength":52680,
			"byteOffset":2676116,
			"target":34962
		},
		{
			"buffer":0,
			"byteLength":52680,
			"byteOffset":2728796,
			"target":34962
		},
		{
			"buffer":0,
			"byteLength":52680,
			"byteOffset":2781476,
			"target":34962
		},
		{
			"buffer":0,
			"byteLength":52680,
			"byteOffset":2834156,
			"target":34962
		},
		{
			"buffer":0,
			"byteLength":52680,
			"byteOffset":2886836,
			"target":34962
		},
		{
			"buffer":0,
			"byteLength":22524,
			"byteOffset":2939516,
			"target":34963
		}
	],
	"buffers":[
		{
			"byteLength":2962040,
			"uri":"data:application/octet-stream;base64,"
		}
	]
}
