{
	"asset":{
		"generator":"Khronos glTF Blender I/O v3.6.27",
		"version":"2.0"
	},
	"extensionsUsed":[
		"KHR_lights_punctual",
		"KHR_materials_specular",
		"KHR_materials_ior"
	],
	"extensionsRequired":[
		"KHR_lights_punctual"
	],
	"extensions":{
		"KHR_lights_punctual":{
			"lights":[
				{
					"color":[
						1,
						1,
						1
					],
					"intensity":54351.41306588226,
					"type":"point",
					"name":"Light"
				}
			]
		}
	},
	"scene":0,
	"scenes":[
		{
			"name":"Scene",
			"nodes":[
				0,
				1
			]
		}
	],
	"nodes":[
		{
			"extensions":{
				"KHR_lights_punctual":{
					"light":0
				}
			},
			"name":"Light",
			"rotation":[
				-0.28416627645492554,
				0.7269423007965088,
				0.34203392267227173,
				0.5232754945755005
			],
			"translation":[
				1.8224644660949707,
				3.7238621711730957,
				-0.6262876987457275
			]
		},
		{
			"mesh":0,
			"name":"TQ_ARD-node.001",
			"rotation":[
				0,
				0.058695919811725616,
				0,
				0.9982759356498718
			],
			"translation":[
				-0.07923054695129395,
				0,
				0.01748453825712204
			]
		}
	],
	"materials":[
		{
			"doubleSided":true,
			"extensions":{
				"KHR_materials_specular":{
					"specularColorFactor":[
						0,
						0,
						0
					]
				},
				"KHR_materials_ior":{
					"ior":0
				}
			},
			"name":"TQ_ARD_front.001",
			"pbrMetallicRoughness":{
				"baseColorFactor":[
					0.996078372001648,
					0.9019607901573181,
					0.6627451181411743,
					1
				],
				"metallicFactor":0,
				"roughnessFactor":0.5
			}
		},
		{
			"doubleSided":true,
			"extensions":{
				"KHR_materials_specular":{
					"specularColorFactor":[
						0,
						0,
						0
					]
				},
				"KHR_materials_ior":{
					"ior":0
				}
			},
			"name":"back-dil",
			"pbrMetallicRoughness":{
				"baseColorFactor":[
					0.7467696070671082,
					0.544954776763916,
					0.2956169843673706,
					1
				],
				"metallicFactor":0
			}
		},
		{
			"doubleSided":true,
			"extensions":{
				"KHR_materials_specular":{
					"specularColorFactor":[
						0,
						0,
						0
					]
				},
				"KHR_materials_ior":{
					"ior":0
				}
			},
			"name":"TQ_ARD_edge.001",
			"pbrMetallicRoughness":{
				"baseColorTexture":{
					"index":0
				},
				"metallicFactor":0,
				"roughnessFactor":0.5
			}
		},
		{
			"doubleSided":true,
			"extensions":{
				"KHR_materials_specular":{
					"specularColorFactor":[
						0,
						0,
						0
					]
				},
				"KHR_materials_ior":{
					"ior":0
				}
			},
			"name":"TQ_ARD_front",
			"pbrMetallicRoughness":{
				"baseColorFactor":[
					0.996078372001648,
					0.9019607901573181,
					0.6627451181411743,
					1
				],
				"metallicFactor":0,
				"roughnessFactor":0.5
			}
		},
		{
			"doubleSided":true,
			"extensions":{
				"KHR_materials_specular":{
					"specularColorFactor":[
						0,
						0,
						0
					]
				},
				"KHR_materials_ior":{
					"ior":0
				}
			},
			"name":"TQ_ARD_back",
			"pbrMetallicRoughness":{
				"baseColorFactor":[
					0.996078372001648,
					0.9019607901573181,
					0.6627451181411743,
					1
				],
				"metallicFactor":0,
				"roughnessFactor":0.5
			}
		},
		{
			"doubleSided":true,
			"extensions":{
				"KHR_materials_specular":{
					"specularColorFactor":[
						0,
						0,
						0
					]
				},
				"KHR_materials_ior":{
					"ior":0
				}
			},
			"name":"TQ_ARD_edge",
			"pbrMetallicRoughness":{
				"baseColorTexture":{
					"index":1
				},
				"metallicFactor":0,
				"roughnessFactor":0.5
			}
		}
	],
	"meshes":[
		{
			"name":"TQ_ARD-geom.001",
			"primitives":[
				{
					"attributes":{
						"POSITION":0,
						"NORMAL":1,
						"TEXCOORD_0":2
					},
					"indices":3,
					"material":0
				},
				{
					"attributes":{
						"POSITION":4,
						"NORMAL":5,
						"TEXCOORD_0":6
					},
					"indices":7,
					"material":1
				},
				{
					"attributes":{
						"POSITION":8,
						"NORMAL":9,
						"TEXCOORD_0":10
					},
					"indices":11,
					"material":2
				},
				{
					"attributes":{
						"POSITION":12,
						"NORMAL":13,
						"TEXCOORD_0":14
					},
					"indices":15,
					"material":3
				},
				{
					"attributes":{
						"POSITION":16,
						"NORMAL":17,
						"TEXCOORD_0":18
					},
					"indices":19,
					"material":4
				},
				{
					"attributes":{
						"POSITION":20,
						"NORMAL":21,
						"TEXCOORD_0":22
					},
					"indices":23,
					"material":5
				}
			]
		}
	],
	"textures":[
		{
			"sampler":0,
			"source":0
		},
		{
			"sampler":0,
			"source":0
		}
	],
	"images":[
		{
			"bufferView":12,
			"mimeType":"image/png",
			"name":"TQ_ARD-I1"
		}
	],
	"accessors":[
		{
			"bufferView":0,
			"componentType":5126,
			"count":1248,
			"max":[
				0.11885957419872284,
				0.10990804433822632,
				-0.014784548431634903
			],
			"min":[
				-0.0807279720902443,
				-4.541128873825073e-05,
				-0.14722417294979095
			],
			"type":"VEC3"
		},
		{
			"bufferView":1,
			"componentType":5126,
			"count":1248,
			"type":"VEC3"
		},
		{
			"bufferView":2,
			"componentType":5126,
			"count":1248,
			"type":"VEC2"
		},
		{
			"bufferView":3,
			"componentType":5123,
			"count":3678,
			"type":"SCALAR"
		},
		{
			"bufferView":4,
			"componentType":5126,
			"count":1099,
			"max":[
				0.11783333122730255,
				0.10886654257774353,
				-0.015948910266160965
			],
			"min":[
				-0.07971110939979553,
				-4.540756344795227e-05,
				-0.14618268609046936
			],
			"type":"VEC3"
		},
		{
			"bufferView":5,
			"componentType":5126,
			"count":1099,
			"type":"VEC3"
		},
		{
			"bufferView":6,
			"componentType":5126,
			"count":1099,
			"type":"VEC2"
		},
		{
			"bufferView":7,
			"componentType":5123,
			"count":3678,
			"type":"SCALAR"
		},
		{
			"bufferView":8,
			"componentType":5126,
			"count":1847,
			"max":[
				0.11885957419872284,
				0.10990804433822632,
				-0.014784548431634903
			],
			"min":[
				-0.0807279720902443,
				-4.541128873825073e-05,
				-0.14722417294979095
			],
			"type":"VEC3"
		},
		{
			"bufferView":9,
			"componentType":5126,
			"count":1847,
			"type":"VEC3"
		},
		{
			"bufferView":10,
			"componentType":5126,
			"count":1847,
			"type":"VEC2"
		},
		{
			"bufferView":11,
			"componentType":5123,
			"count":4056,
			"type":"SCALAR"
		},
		{
			"bufferView":13,
			"componentType":5126,
			"count":1298,
			"max":[
				0.21192100644111633,
				0.038424212485551834,
				0.19654719531536102
			],
			"min":[
				-0.00022752955555915833,
				0.00011037290096282959,
				0.04501956328749657
			],
			"type":"VEC3"
		},
		{
			"bufferView":14,
			"componentType":5126,
			"count":1298,
			"type":"VEC3"
		},
		{
			"bufferView":15,
			"componentType":5126,
			"count":1298,
			"type":"VEC2"
		},
		{
			"bufferView":16,
			"componentType":5123,
			"count":3678,
			"type":"SCALAR"
		},
		{
			"bufferView":17,
			"componentType":5126,
			"count":1149,
			"max":[
				0.21099123358726501,
				0.037531957030296326,
				0.19611279666423798
			],
			"min":[
				0.0007022358477115631,
				0.00011037290096282959,
				0.045453961938619614
			],
			"type":"VEC3"
		},
		{
			"bufferView":18,
			"componentType":5126,
			"count":1149,
			"type":"VEC3"
		},
		{
			"bufferView":19,
			"componentType":5126,
			"count":1149,
			"type":"VEC2"
		},
		{
			"bufferView":20,
			"componentType":5123,
			"count":3678,
			"type":"SCALAR"
		},
		{
			"bufferView":21,
			"componentType":5126,
			"count":2135,
			"max":[
				0.21192100644111633,
				0.038424212485551834,
				0.19654719531536102
			],
			"min":[
				-0.00022752955555915833,
				0.00011037290096282959,
				0.04501956328749657
			],
			"type":"VEC3"
		},
		{
			"bufferView":22,
			"componentType":5126,
			"count":2135,
			"type":"VEC3"
		},
		{
			"bufferView":23,
			"componentType":5126,
			"count":2135,
			"type":"VEC2"
		},
		{
			"bufferView":24,
			"componentType":5123,
			"count":4056,
			"type":"SCALAR"
		}
	],
	"bufferViews":[
		{
			"buffer":0,
			"byteLength":14976,
			"byteOffset":0,
			"target":34962
		},
		{
			"buffer":0,
			"byteLength":14976,
			"byteOffset":14976,
			"target":34962
		},
		{
			"buffer":0,
			"byteLength":9984,
			"byteOffset":29952,
			"target":34962
		},
		{
			"buffer":0,
			"byteLength":7356,
			"byteOffset":39936,
			"target":34963
		},
		{
			"buffer":0,
			"byteLength":13188,
			"byteOffset":47292,
			"target":34962
		},
		{
			"buffer":0,
			"byteLength":13188,
			"byteOffset":60480,
			"target":34962
		},
		{
			"buffer":0,
			"byteLength":8792,
			"byteOffset":73668,
			"target":34962
		},
		{
			"buffer":0,
			"byteLength":7356,
			"byteOffset":82460,
			"target":34963
		},
		{
			"buffer":0,
			"byteLength":22164,
			"byteOffset":89816,
			"target":34962
		},
		{
			"buffer":0,
			"byteLength":22164,
			"byteOffset":111980,
			"target":34962
		},
		{
			"buffer":0,
			"byteLength":14776,
			"byteOffset":134144,
			"target":34962
		},
		{
			"buffer":0,
			"byteLength":8112,
			"byteOffset":148920,
			"target":34963
		},
		{
			"buffer":0,
			"byteLength":767,
			"byteOffset":157032
		},
		{
			"buffer":0,
			"byteLength":15576,
			"byteOffset":157800,
			"target":34962
		},
		{
			"buffer":0,
			"byteLength":15576,
			"byteOffset":173376,
			"target":34962
		},
		{
			"buffer":0,
			"byteLength":10384,
			"byteOffset":188952,
			"target":34962
		},
		{
			"buffer":0,
			"byteLength":7356,
			"byteOffset":199336,
			"target":34963
		},
		{
			"buffer":0,
			"byteLength":13788,
			"byteOffset":206692,
			"target":34962
		},
		{
			"buffer":0,
			"byteLength":13788,
			"byteOffset":220480,
			"target":34962
		},
		{
			"buffer":0,
			"byteLength":9192,
			"byteOffset":234268,
			"target":34962
		},
		{
			"buffer":0,
			"byteLength":7356,
			"byteOffset":243460,
			"target":34963
		},
		{
			"buffer":0,
			"byteLength":25620,
			"byteOffset":250816,
			"target":34962
		},
		{
			"buffer":0,
			"byteLength":25620,
			"byteOffset":276436,
			"target":34962
		},
		{
			"buffer":0,
			"byteLength":17080,
			"byteOffset":302056,
			"target":34962
		},
		{
			"buffer":0,
			"byteLength":8112,
			"byteOffset":319136,
			"target":34963
		}
	],
	"samplers":[
		{
			"magFilter":9729,
			"minFilter":9987
		}
	],
	"buffers":[
		{
			"byteLength":327248,
			"uri":"data:application/octet-stream;base64,"
		}
	]
}
