{
	"asset":{
		"generator":"Khronos glTF Blender I/O v3.6.27",
		"version":"2.0"
	},
	"extensionsUsed":[
		"KHR_materials_specular",
		"KHR_materials_ior"
	],
	"scene":0,
	"scenes":[
		{
			"name":"Scene",
			"nodes":[
				0,
				1
			]
		}
	],
	"nodes":[
		{
			"mesh":0,
			"name":"Plane",
			"scale":[
				3.267242670059204,
				1,
				3.267242670059204
			],
			"translation":[
				-0.011330187320709229,
				0.13313047587871552,
				-0.02078068256378174
			]
		},
		{
			"mesh":1,
			"name":"TQPATA222_ARD-node"
		}
	],
	"materials":[
		{
			"doubleSided":true,
			"extensions":{
				"KHR_materials_specular":{
					"specularColorFactor":[
						0,
						0,
						0
					]
				},
				"KHR_materials_ior":{
					"ior":0
				}
			},
			"name":"TQPATA222_ARD_front",
			"pbrMetallicRoughness":{
				"baseColorFactor":[
					0.5913969874382019,
					0.4156309962272644,
					0.26150599122047424,
					1
				],
				"metallicFactor":0,
				"roughnessFactor":0.5
			}
		},
		{
			"doubleSided":true,
			"extensions":{
				"KHR_materials_specular":{
					"specularColorFactor":[
						0,
						0,
						0
					]
				},
				"KHR_materials_ior":{
					"ior":0
				}
			},
			"name":"TQPATA222_ARD_back",
			"pbrMetallicRoughness":{
				"baseColorFactor":[
					0.996078372001648,
					0.9019607901573181,
					0.6627451181411743,
					1
				],
				"metallicFactor":0,
				"roughnessFactor":0.5
			}
		},
		{
			"doubleSided":true,
			"extensions":{
				"KHR_materials_specular":{
					"specularColorFactor":[
						0,
						0,
						0
					]
				},
				"KHR_materials_ior":{
					"ior":0
				}
			},
			"name":"TQPATA222_ARD_edge",
			"pbrMetallicRoughness":{
				"baseColorTexture":{
					"index":0
				},
				"metallicFactor":0,
				"roughnessFactor":0.5
			}
		},
		{
			"doubleSided":true,
			"extensions":{
				"KHR_materials_specular":{
					"specularColorFactor":[
						0,
						0,
						0
					]
				},
				"KHR_materials_ior":{
					"ior":0
				}
			},
			"name":"TQMESA_ARD_front",
			"pbrMetallicRoughness":{
				"baseColorFactor":[
					0.5913969874382019,
					0.4156309962272644,
					0.26150599122047424,
					1
				],
				"metallicFactor":0,
				"roughnessFactor":0.5
			}
		},
		{
			"doubleSided":true,
			"extensions":{
				"KHR_materials_specular":{
					"specularColorFactor":[
						0,
						0,
						0
					]
				},
				"KHR_materials_ior":{
					"ior":0
				}
			},
			"name":"TQMESA_ARD_back",
			"pbrMetallicRoughness":{
				"baseColorFactor":[
					0.3847902715206146,
					0.21082937717437744,
					0.09809868037700653,
					1
				],
				"metallicFactor":0,
				"roughnessFactor":0.5
			}
		},
		{
			"doubleSided":true,
			"extensions":{
				"KHR_materials_specular":{
					"specularColorFactor":[
						0,
						0,
						0
					]
				},
				"KHR_materials_ior":{
					"ior":0
				}
			},
			"name":"TQMESA_ARD_edge",
			"pbrMetallicRoughness":{
				"baseColorTexture":{
					"index":1
				},
				"metallicFactor":0,
				"roughnessFactor":0.5
			}
		},
		{
			"doubleSided":true,
			"extensions":{
				"KHR_materials_specular":{
					"specularColorFactor":[
						0,
						0,
						0
					]
				},
				"KHR_materials_ior":{
					"ior":0
				}
			},
			"name":"TQPATA_ARD_front",
			"pbrMetallicRoughness":{
				"baseColorFactor":[
					0.5913967490196228,
					0.4156306982040405,
					0.26150593161582947,
					1
				],
				"metallicFactor":0,
				"roughnessFactor":0.5
			}
		},
		{
			"doubleSided":true,
			"extensions":{
				"KHR_materials_specular":{
					"specularColorFactor":[
						0,
						0,
						0
					]
				},
				"KHR_materials_ior":{
					"ior":0
				}
			},
			"name":"TQPATA_ARD_back",
			"pbrMetallicRoughness":{
				"baseColorFactor":[
					0.996078372001648,
					0.9019607901573181,
					0.6627451181411743,
					1
				],
				"metallicFactor":0,
				"roughnessFactor":0.5
			}
		},
		{
			"doubleSided":true,
			"extensions":{
				"KHR_materials_specular":{
					"specularColorFactor":[
						0,
						0,
						0
					]
				},
				"KHR_materials_ior":{
					"ior":0
				}
			},
			"name":"TQPATA_ARD_edge",
			"pbrMetallicRoughness":{
				"baseColorTexture":{
					"index":2
				},
				"metallicFactor":0,
				"roughnessFactor":0.5
			}
		}
	],
	"meshes":[
		{
			"name":"Plane",
			"primitives":[
				{
					"attributes":{
						"POSITION":0,
						"NORMAL":1,
						"TEXCOORD_0":2
					},
					"indices":3
				}
			]
		},
		{
			"name":"TQPATA222_ARD-geom",
			"primitives":[
				{
					"attributes":{
						"POSITION":4,
						"NORMAL":5,
						"TEXCOORD_0":6,
						"TEXCOORD_1":7,
						"TEXCOORD_2":8
					},
					"indices":9,
					"material":0
				},
				{
					"attributes":{
						"POSITION":10,
						"NORMAL":11,
						"TEXCOORD_0":12,
						"TEXCOORD_1":13,
						"TEXCOORD_2":14
					},
					"indices":15,
					"material":1
				},
				{
					"attributes":{
						"POSITION":16,
						"NORMAL":17,
						"TEXCOORD_0":18,
						"TEXCOORD_1":19,
						"TEXCOORD_2":20
					},
					"indices":21,
					"material":2
				},
				{
					"attributes":{
						"POSITION":22,
						"NORMAL":23,
						"TEXCOORD_0":24,
						"TEXCOORD_1":25,
						"TEXCOORD_2":26
					},
					"indices":27,
					"material":3
				},
				{
					"attributes":{
						"POSITION":28,
						"NORMAL":29,
						"TEXCOORD_0":30,
						"TEXCOORD_1":31,
						"TEXCOORD_2":32
					},
					"indices":33,
					"material":4
				},
				{
					"attributes":{
						"POSITION":34,
						"NORMAL":35,
						"TEXCOORD_0":36,
						"TEXCOORD_1":37,
						"TEXCOORD_2":38
					},
					"indices":39,
					"material":5
				},
				{
					"attributes":{
						"POSITION":40,
						"NORMAL":41,
						"TEXCOORD_0":42,
						"TEXCOORD_1":43,
						"TEXCOORD_2":44
					},
					"indices":45,
					"material":6
				},
				{
					"attributes":{
						"POSITION":46,
						"NORMAL":47,
						"TEXCOORD_0":48,
						"TEXCOORD_1":49,
						"TEXCOORD_2":50
					},
					"indices":51,
					"material":7
				},
				{
					"attributes":{
						"POSITION":52,
						"NORMAL":53,
						"TEXCOORD_0":54,
						"TEXCOORD_1":55,
						"TEXCOORD_2":56
					},
					"indices":57,
					"material":8
				}
			]
		}
	],
	"textures":[
		{
			"sampler":0,
			"source":0
		},
		{
			"sampler":0,
			"source":1
		},
		{
			"sampler":0,
			"source":2
		}
	],
	"images":[
		{
			"bufferView":22,
			"mimeType":"image/png",
			"name":"TQPATA222_ARD-I1"
		},
		{
			"bufferView":41,
			"mimeType":"image/png",
			"name":"TQMESA_ARD-I1"
		},
		{
			"bufferView":60,
			"mimeType":"image/png",
			"name":"TQPATA_ARD-I1"
		}
	],
	"accessors":[
		{
			"bufferView":0,
			"componentType":5126,
			"count":4,
			"max":[
				1,
				0,
				1
			],
			"min":[
				-1,
				0,
				-1
			],
			"type":"VEC3"
		},
		{
			"bufferView":1,
			"componentType":5126,
			"count":4,
			"type":"VEC3"
		},
		{
			"bufferView":2,
			"componentType":5126,
			"count":4,
			"type":"VEC2"
		},
		{
			"bufferView":3,
			"componentType":5123,
			"count":6,
			"type":"SCALAR"
		},
		{
			"bufferView":4,
			"componentType":5126,
			"count":700,
			"max":[
				0.4325242042541504,
				1.1439989805221558,
				0.7013908624649048
			],
			"min":[
				-0.701192319393158,
				0.14299917221069336,
				-0.21010835468769073
			],
			"type":"VEC3"
		},
		{
			"bufferView":5,
			"componentType":5126,
			"count":700,
			"type":"VEC3"
		},
		{
			"bufferView":6,
			"componentType":5126,
			"count":700,
			"type":"VEC2"
		},
		{
			"bufferView":7,
			"componentType":5126,
			"count":700,
			"type":"VEC2"
		},
		{
			"bufferView":8,
			"componentType":5126,
			"count":700,
			"type":"VEC2"
		},
		{
			"bufferView":9,
			"componentType":5123,
			"count":1314,
			"type":"SCALAR"
		},
		{
			"bufferView":10,
			"componentType":5126,
			"count":653,
			"max":[
				0.42834657430648804,
				1.1439989805221558,
				0.6974220275878906
			],
			"min":[
				-0.6960611939430237,
				0.14299917221069336,
				-0.21010835468769073
			],
			"type":"VEC3"
		},
		{
			"bufferView":11,
			"componentType":5126,
			"count":653,
			"type":"VEC3"
		},
		{
			"bufferView":12,
			"componentType":5126,
			"count":653,
			"type":"VEC2"
		},
		{
			"bufferView":13,
			"componentType":5126,
			"count":653,
			"type":"VEC2"
		},
		{
			"bufferView":14,
			"componentType":5126,
			"count":653,
			"type":"VEC2"
		},
		{
			"bufferView":15,
			"componentType":5123,
			"count":1314,
			"type":"SCALAR"
		},
		{
			"bufferView":16,
			"componentType":5126,
			"count":1217,
			"max":[
				0.4325242042541504,
				1.1439989805221558,
				0.7013908624649048
			],
			"min":[
				-0.701192319393158,
				0.14299917221069336,
				-0.21010835468769073
			],
			"type":"VEC3"
		},
		{
			"bufferView":17,
			"componentType":5126,
			"count":1217,
			"type":"VEC3"
		},
		{
			"bufferView":18,
			"componentType":5126,
			"count":1217,
			"type":"VEC2"
		},
		{
			"bufferView":19,
			"componentType":5126,
			"count":1217,
			"type":"VEC2"
		},
		{
			"bufferView":20,
			"componentType":5126,
			"count":1217,
			"type":"VEC2"
		},
		{
			"bufferView":21,
			"componentType":5123,
			"count":2652,
			"type":"SCALAR"
		},
		{
			"bufferView":23,
			"componentType":5126,
			"count":684,
			"max":[
				0.6096168160438538,
				1.1525912284851074,
				0.6927618980407715
			],
			"min":[
				-0.6913766264915466,
				0.14465385675430298,
				-1.2291598320007324
			],
			"type":"VEC3"
		},
		{
			"bufferView":24,
			"componentType":5126,
			"count":684,
			"type":"VEC3"
		},
		{
			"bufferView":25,
			"componentType":5126,
			"count":684,
			"type":"VEC2"
		},
		{
			"bufferView":26,
			"componentType":5126,
			"count":684,
			"type":"VEC2"
		},
		{
			"bufferView":27,
			"componentType":5126,
			"count":684,
			"type":"VEC2"
		},
		{
			"bufferView":28,
			"componentType":5123,
			"count":1524,
			"type":"SCALAR"
		},
		{
			"bufferView":29,
			"componentType":5126,
			"count":650,
			"max":[
				0.6096168160438538,
				1.1474601030349731,
				0.6876307725906372
			],
			"min":[
				-0.6913766264915466,
				0.14862269163131714,
				-1.2269914150238037
			],
			"type":"VEC3"
		},
		{
			"bufferView":30,
			"componentType":5126,
			"count":650,
			"type":"VEC3"
		},
		{
			"bufferView":31,
			"componentType":5126,
			"count":650,
			"type":"VEC2"
		},
		{
			"bufferView":32,
			"componentType":5126,
			"count":650,
			"type":"VEC2"
		},
		{
			"bufferView":33,
			"componentType":5126,
			"count":650,
			"type":"VEC2"
		},
		{
			"bufferView":34,
			"componentType":5123,
			"count":1524,
			"type":"SCALAR"
		},
		{
			"bufferView":35,
			"componentType":5126,
			"count":1462,
			"max":[
				0.6096168160438538,
				1.1525912284851074,
				0.6927618980407715
			],
			"min":[
				-0.6913766264915466,
				0.14465385675430298,
				-1.2291598320007324
			],
			"type":"VEC3"
		},
		{
			"bufferView":36,
			"componentType":5126,
			"count":1462,
			"type":"VEC3"
		},
		{
			"bufferView":37,
			"componentType":5126,
			"count":1462,
			"type":"VEC2"
		},
		{
			"bufferView":38,
			"componentType":5126,
			"count":1462,
			"type":"VEC2"
		},
		{
			"bufferView":39,
			"componentType":5126,
			"count":1462,
			"type":"VEC2"
		},
		{
			"bufferView":40,
			"componentType":5123,
			"count":2976,
			"type":"SCALAR"
		},
		{
			"bufferView":42,
			"componentType":5126,
			"count":699,
			"max":[
				0.6196219325065613,
				1.144431471824646,
				0.6984202861785889
			],
			"min":[
				-0.46062907576560974,
				0.14343136548995972,
				-1.2389414310455322
			],
			"type":"VEC3"
		},
		{
			"bufferView":43,
			"componentType":5126,
			"count":699,
			"type":"VEC3"
		},
		{
			"bufferView":44,
			"componentType":5126,
			"count":699,
			"type":"VEC2"
		},
		{
			"bufferView":45,
			"componentType":5126,
			"count":699,
			"type":"VEC2"
		},
		{
			"bufferView":46,
			"componentType":5126,
			"count":699,
			"type":"VEC2"
		},
		{
			"bufferView":47,
			"componentType":5123,
			"count":1302,
			"type":"SCALAR"
		},
		{
			"bufferView":48,
			"componentType":5126,
			"count":693,
			"max":[
				0.614490807056427,
				1.144431471824646,
				0.6944513320922852
			],
			"min":[
				-0.4564514458179474,
				0.14343136548995972,
				-1.233799934387207
			],
			"type":"VEC3"
		},
		{
			"bufferView":49,
			"componentType":5126,
			"count":693,
			"type":"VEC3"
		},
		{
			"bufferView":50,
			"componentType":5126,
			"count":693,
			"type":"VEC2"
		},
		{
			"bufferView":51,
			"componentType":5126,
			"count":693,
			"type":"VEC2"
		},
		{
			"bufferView":52,
			"componentType":5126,
			"count":693,
			"type":"VEC2"
		},
		{
			"bufferView":53,
			"componentType":5123,
			"count":1302,
			"type":"SCALAR"
		},
		{
			"bufferView":54,
			"componentType":5126,
			"count":1258,
			"max":[
				0.6196219325065613,
				1.144431471824646,
				0.6984202861785889
			],
			"min":[
				-0.46062907576560974,
				0.14343136548995972,
				-1.2389414310455322
			],
			"type":"VEC3"
		},
		{
			"bufferView":55,
			"componentType":5126,
			"count":1258,
			"type":"VEC3"
		},
		{
			"bufferView":56,
			"componentType":5126,
			"count":1258,
			"type":"VEC2"
		},
		{
			"bufferView":57,
			"componentType":5126,
			"count":1258,
			"type":"VEC2"
		},
		{
			"bufferView":58,
			"componentType":5126,
			"count":1258,
			"type":"VEC2"
		},
		{
			"bufferView":59,
			"componentType":5123,
			"count":2628,
			"type":"SCALAR"
		}
	],
	"bufferViews":[
		{
			"buffer":0,
			"byteLength":48,
			"byteOffset":0,
			"target":34962
		},
		{
			"buffer":0,
			"byteLength":48,
			"byteOffset":48,
			"target":34962
		},
		{
			"buffer":0,
			"byteLength":32,
			"byteOffset":96,
			"target":34962
		},
		{
			"buffer":0,
			"byteLength":12,
			"byteOffset":128,
			"target":34963
		},
		{
			"buffer":0,
			"byteLength":8400,
			"byteOffset":140,
			"target":34962
		},
		{
			"buffer":0,
			"byteLength":8400,
			"byteOffset":8540,
			"target":34962
		},
		{
			"buffer":0,
			"byteLength":5600,
			"byteOffset":16940,
			"target":34962
		},
		{
			"buffer":0,
			"byteLength":5600,
			"byteOffset":22540,
			"target":34962
		},
		{
			"buffer":0,
			"byteLength":5600,
			"byteOffset":28140,
			"target":34962
		},
		{
			"buffer":0,
			"byteLength":2628,
			"byteOffset":33740,
			"target":34963
		},
		{
			"buffer":0,
			"byteLength":7836,
			"byteOffset":36368,
			"target":34962
		},
		{
			"buffer":0,
			"byteLength":7836,
			"byteOffset":44204,
			"target":34962
		},
		{
			"buffer":0,
			"byteLength":5224,
			"byteOffset":52040,
			"target":34962
		},
		{
			"buffer":0,
			"byteLength":5224,
			"byteOffset":57264,
			"target":34962
		},
		{
			"buffer":0,
			"byteLength":5224,
			"byteOffset":62488,
			"target":34962
		},
		{
			"buffer":0,
			"byteLength":2628,
			"byteOffset":67712,
			"target":34963
		},
		{
			"buffer":0,
			"byteLength":14604,
			"byteOffset":70340,
			"target":34962
		},
		{
			"buffer":0,
			"byteLength":14604,
			"byteOffset":84944,
			"target":34962
		},
		{
			"buffer":0,
			"byteLength":9736,
			"byteOffset":99548,
			"target":34962
		},
		{
			"buffer":0,
			"byteLength":9736,
			"byteOffset":109284,
			"target":34962
		},
		{
			"buffer":0,
			"byteLength":9736,
			"byteOffset":119020,
			"target":34962
		},
		{
			"buffer":0,
			"byteLength":5304,
			"byteOffset":128756,
			"target":34963
		},
		{
			"buffer":0,
			"byteLength":2655,
			"byteOffset":134060
		},
		{
			"buffer":0,
			"byteLength":8208,
			"byteOffset":136716,
			"target":34962
		},
		{
			"buffer":0,
			"byteLength":8208,
			"byteOffset":144924,
			"target":34962
		},
		{
			"buffer":0,
			"byteLength":5472,
			"byteOffset":153132,
			"target":34962
		},
		{
			"buffer":0,
			"byteLength":5472,
			"byteOffset":158604,
			"target":34962
		},
		{
			"buffer":0,
			"byteLength":5472,
			"byteOffset":164076,
			"target":34962
		},
		{
			"buffer":0,
			"byteLength":3048,
			"byteOffset":169548,
			"target":34963
		},
		{
			"buffer":0,
			"byteLength":7800,
			"byteOffset":172596,
			"target":34962
		},
		{
			"buffer":0,
			"byteLength":7800,
			"byteOffset":180396,
			"target":34962
		},
		{
			"buffer":0,
			"byteLength":5200,
			"byteOffset":188196,
			"target":34962
		},
		{
			"buffer":0,
			"byteLength":5200,
			"byteOffset":193396,
			"target":34962
		},
		{
			"buffer":0,
			"byteLength":5200,
			"byteOffset":198596,
			"target":34962
		},
		{
			"buffer":0,
			"byteLength":3048,
			"byteOffset":203796,
			"target":34963
		},
		{
			"buffer":0,
			"byteLength":17544,
			"byteOffset":206844,
			"target":34962
		},
		{
			"buffer":0,
			"byteLength":17544,
			"byteOffset":224388,
			"target":34962
		},
		{
			"buffer":0,
			"byteLength":11696,
			"byteOffset":241932,
			"target":34962
		},
		{
			"buffer":0,
			"byteLength":11696,
			"byteOffset":253628,
			"target":34962
		},
		{
			"buffer":0,
			"byteLength":11696,
			"byteOffset":265324,
			"target":34962
		},
		{
			"buffer":0,
			"byteLength":5952,
			"byteOffset":277020,
			"target":34963
		},
		{
			"buffer":0,
			"byteLength":2655,
			"byteOffset":282972
		},
		{
			"buffer":0,
			"byteLength":8388,
			"byteOffset":285628,
			"target":34962
		},
		{
			"buffer":0,
			"byteLength":8388,
			"byteOffset":294016,
			"target":34962
		},
		{
			"buffer":0,
			"byteLength":5592,
			"byteOffset":302404,
			"target":34962
		},
		{
			"buffer":0,
			"byteLength":5592,
			"byteOffset":307996,
			"target":34962
		},
		{
			"buffer":0,
			"byteLength":5592,
			"byteOffset":313588,
			"target":34962
		},
		{
			"buffer":0,
			"byteLength":2604,
			"byteOffset":319180,
			"target":34963
		},
		{
			"buffer":0,
			"byteLength":8316,
			"byteOffset":321784,
			"target":34962
		},
		{
			"buffer":0,
			"byteLength":8316,
			"byteOffset":330100,
			"target":34962
		},
		{
			"buffer":0,
			"byteLength":5544,
			"byteOffset":338416,
			"target":34962
		},
		{
			"buffer":0,
			"byteLength":5544,
			"byteOffset":343960,
			"target":34962
		},
		{
			"buffer":0,
			"byteLength":5544,
			"byteOffset":349504,
			"target":34962
		},
		{
			"buffer":0,
			"byteLength":2604,
			"byteOffset":355048,
			"target":34963
		},
		{
			"buffer":0,
			"byteLength":15096,
			"byteOffset":357652,
			"target":34962
		},
		{
			"buffer":0,
			"byteLength":15096,
			"byteOffset":372748,
			"target":34962
		},
		{
			"buffer":0,
			"byteLength":10064,
			"byteOffset":387844,
			"target":34962
		},
		{
			"buffer":0,
			"byteLength":10064,
			"byteOffset":397908,
			"target":34962
		},
		{
			"buffer":0,
			"byteLength":10064,
			"byteOffset":407972,
			"target":34962
		},
		{
			"buffer":0,
			"byteLength":5256,
			"byteOffset":418036,
			"target":34963
		},
		{
			"buffer":0,
			"byteLength":2655,
			"byteOffset":423292
		}
	],
	"samplers":[
		{
			"magFilter":9729,
			"minFilter":9987
		}
	],
	"buffers":[
		{
			"byteLength":425948,
			"uri":"data:application/octet-stream;base64,"
		}
	]
}
