{"accessors" : [{"bufferView" : 0, "byteOffset" : 0, "componentType" : 5123, "count" : 303, "type" : "SCALAR", "max" : [261], "min" : [0]}, {"bufferView" : 1, "byteOffset" : 0, "componentType" : 5126, "count" : 262, "type" : "VEC3", "max" : [0.23985862731933594, 0.14777271449565887, 0.15434028208255768], "min" : [-0.041094500571489334, -0.0013206967851147056, -0.20018061995506287], "name" : "POSITION"}, {"bufferView" : 1, "byteOffset" : 12, "componentType" : 5126, "count" : 262, "type" : "VEC3", "max" : [0.9999920129776001, 1.0000044107437134, 0.9999942779541016], "min" : [-0.9999978542327881, -0.01210037712007761, -0.9999959468841553], "name" : "NORMAL"}, {"bufferView" : 1, "byteOffset" : 24, "componentType" : 5126, "count" : 262, "type" : "VEC2", "max" : [1, 1], "min" : [0, 1], "name" : "TEXCOORD_0"}, {"bufferView" : 0, "byteOffset" : 608, "componentType" : 5123, "count" : 618, "type" : "SCALAR", "max" : [530], "min" : [0]}, {"bufferView" : 2, "byteOffset" : 0, "componentType" : 5126, "count" : 531, "type" : "VEC3", "max" : [0.2413586527109146, 0.14777271449565887, 0.1554855853319168], "min" : [-0.0426689051091671, -0.002757295500487089, -0.20200450718402863], "name" : "POSITION"}, {"bufferView" : 2, "byteOffset" : 12, "componentType" : 5126, "count" : 531, "type" : "VEC3", "max" : [1.0000044107437134, 1.0000044107437134, 1.0000044107437134], "min" : [-1.0000044107437134, -0.9999698400497437, -1.0000044107437134], "name" : "NORMAL"}, {"bufferView" : 2, "byteOffset" : 24, "componentType" : 5126, "count" : 531, "type" : "VEC2", "max" : [3.8935091495513916, 1.016910195350647], "min" : [-2.897749185562134, 0.41714465618133545], "name" : "TEXCOORD_0"}, {"bufferView" : 0, "byteOffset" : 1844, "componentType" : 5123, "count" : 303, "type" : "SCALAR", "max" : [255], "min" : [0]}, {"bufferView" : 3, "byteOffset" : 0, "componentType" : 5126, "count" : 256, "type" : "VEC3", "max" : [0.2413586527109146, 0.1453908085823059, 0.1554855853319168], "min" : [-0.0426689051091671, -0.002757295500487089, -0.20200450718402863], "name" : "POSITION"}, {"bufferView" : 3, "byteOffset" : 12, "componentType" : 5126, "count" : 256, "type" : "VEC3", "max" : [0.9999978542327881, -0.00019999152573291212, 0.9999964237213135], "min" : [-0.9999923706054688, -1.0000044107437134, -0.9999951124191284], "name" : "NORMAL"}, {"bufferView" : 3, "byteOffset" : 24, "componentType" : 5126, "count" : 256, "type" : "VEC2", "max" : [1, 1], "min" : [0, 1], "name" : "TEXCOORD_0"}], "asset" : {"generator" : "Aspose.3D 23.11.1", "version" : "2.0"}, "buffers" : [{"uri" : "data:application/octet-stream;base64,", "byteLength" : 41636}], "bufferViews" : [{"buffer" : 0, "byteOffset" : 0, "byteLength" : 2452, "target" : 34963}, {"buffer" : 0, "byteOffset" : 2456, "byteLength" : 9696, "byteStride" : 32, "target" : 34962}, {"buffer" : 0, "byteOffset" : 12156, "byteLength" : 19776, "byteStride" : 32, "target" : 34962}, {"buffer" : 0, "byteOffset" : 31936, "byteLength" : 9696, "byteStride" : 32, "target" : 34962}], "images" : [{"uri" : "data:image/jpeg;base64,"}], "materials" : [{"name" : "BACK", "pbrMetallicRoughness" : {"baseColorFactor" : [0.33362656831741333, 0.2177053689956665, 0.09150967746973038, 1], "metallicFactor" : 0, "roughnessFactor" : 1}, "emissiveFactor" : [0, 0, 0], "alphaMode" : "OPAQUE", "doubleSided" : true}, {"name" : "EDGE", "pbrMetallicRoughness" : {"baseColorFactor" : [1, 1, 1, 1], "baseColorTexture" : {"index" : 0, "texCoord" : 0}, "metallicFactor" : 0, "roughnessFactor" : 0.5}, "emissiveFactor" : [0, 0, 0], "alphaMode" : "OPAQUE", "doubleSided" : true}, {"name" : "FRONT", "pbrMetallicRoughness" : {"baseColorFactor" : [1, 1, 1, 1], "metallicFactor" : 0, "roughnessFactor" : 1}, "emissiveFactor" : [0, 0, 0], "alphaMode" : "OPAQUE", "doubleSided" : true}], "meshes" : [{"primitives" : [{"attributes" : {"POSITION" : 1, "NORMAL" : 2, "TEXCOORD_0" : 3}, "indices" : 0, "material" : 0, "mode" : 4}, {"attributes" : {"POSITION" : 5, "NORMAL" : 6, "TEXCOORD_0" : 7}, "indices" : 4, "material" : 1, "mode" : 4}, {"attributes" : {"POSITION" : 9, "NORMAL" : 10, "TEXCOORD_0" : 11}, "indices" : 8, "material" : 2, "mode" : 4}]}], "nodes" : [{"mesh" : 0, "name" : "DAVID"}], "samplers" : [{"magFilter" : 9729, "minFilter" : 9987, "wrapS" : 10497, "wrapT" : 10497}], "scene" : 0, "scenes" : [{"nodes" : [0]}], "textures" : [{"sampler" : 0, "source" : 0, "name" : ""}]}