{
	"asset":{
		"generator":"Khronos glTF Blender I/O v3.6.27",
		"version":"2.0"
	},
	"extensionsUsed":[
		"KHR_materials_specular",
		"KHR_materials_ior"
	],
	"scene":0,
	"scenes":[
		{
			"name":"Scene",
			"nodes":[
				0
			]
		}
	],
	"nodes":[
		{
			"mesh":0,
			"name":"AAA_ARD-node.001",
			"rotation":[
				0,
				-0.9990482330322266,
				0,
				0.04361942410469055
			],
			"translation":[
				-0.24062281847000122,
				0.13554254174232483,
				-0.05907160043716431
			]
		}
	],
	"materials":[
		{
			"doubleSided":true,
			"extensions":{
				"KHR_materials_specular":{
					"specularColorFactor":[
						0,
						0,
						0
					]
				},
				"KHR_materials_ior":{
					"ior":0
				}
			},
			"name":"AAA_ARD_front.001",
			"pbrMetallicRoughness":{
				"baseColorFactor":[
					0.9960784912109375,
					0.9960784912109375,
					0.9960784912109375,
					1
				],
				"metallicFactor":0,
				"roughnessFactor":0.5
			}
		},
		{
			"doubleSided":true,
			"extensions":{
				"KHR_materials_specular":{
					"specularColorFactor":[
						0,
						0,
						0
					]
				},
				"KHR_materials_ior":{
					"ior":0
				}
			},
			"name":"AAA_ARD_back.001",
			"pbrMetallicRoughness":{
				"baseColorFactor":[
					0.3149281144142151,
					0.2694423496723175,
					0.18396399915218353,
					1
				],
				"metallicFactor":0,
				"roughnessFactor":0.5
			}
		},
		{
			"doubleSided":true,
			"extensions":{
				"KHR_materials_specular":{
					"specularColorFactor":[
						0,
						0,
						0
					]
				},
				"KHR_materials_ior":{
					"ior":0
				}
			},
			"name":"AAA_ARD_edge.001",
			"pbrMetallicRoughness":{
				"baseColorTexture":{
					"index":0
				},
				"metallicFactor":0,
				"roughnessFactor":0.5
			}
		},
		{
			"doubleSided":true,
			"extensions":{
				"KHR_materials_specular":{
					"specularColorFactor":[
						0,
						0,
						0
					]
				},
				"KHR_materials_ior":{
					"ior":0
				}
			},
			"name":"AAA_ARD_front",
			"pbrMetallicRoughness":{
				"baseColorFactor":[
					0.996078372001648,
					0.996078372001648,
					0.996078372001648,
					1
				],
				"metallicFactor":0,
				"roughnessFactor":0.5
			}
		},
		{
			"doubleSided":true,
			"extensions":{
				"KHR_materials_specular":{
					"specularColorFactor":[
						0,
						0,
						0
					]
				},
				"KHR_materials_ior":{
					"ior":0
				}
			},
			"name":"AAA_ARD_back",
			"pbrMetallicRoughness":{
				"baseColorFactor":[
					0.31492799520492554,
					0.26944199204444885,
					0.18396399915218353,
					1
				],
				"metallicFactor":0,
				"roughnessFactor":0.5
			}
		},
		{
			"doubleSided":true,
			"extensions":{
				"KHR_materials_specular":{
					"specularColorFactor":[
						0,
						0,
						0
					]
				},
				"KHR_materials_ior":{
					"ior":0
				}
			},
			"name":"AAA_ARD_edge",
			"pbrMetallicRoughness":{
				"baseColorTexture":{
					"index":1
				},
				"metallicFactor":0,
				"roughnessFactor":0.5
			}
		}
	],
	"meshes":[
		{
			"name":"AAA_ARD-geom.001",
			"primitives":[
				{
					"attributes":{
						"POSITION":0,
						"NORMAL":1,
						"TEXCOORD_0":2
					},
					"indices":3,
					"material":0
				},
				{
					"attributes":{
						"POSITION":4,
						"NORMAL":5,
						"TEXCOORD_0":6
					},
					"indices":7,
					"material":1
				},
				{
					"attributes":{
						"POSITION":8,
						"NORMAL":9,
						"TEXCOORD_0":10
					},
					"indices":11,
					"material":2
				},
				{
					"attributes":{
						"POSITION":12,
						"NORMAL":13,
						"TEXCOORD_0":14
					},
					"indices":15,
					"material":3
				},
				{
					"attributes":{
						"POSITION":16,
						"NORMAL":17,
						"TEXCOORD_0":18
					},
					"indices":19,
					"material":4
				},
				{
					"attributes":{
						"POSITION":20,
						"NORMAL":21,
						"TEXCOORD_0":22
					},
					"indices":23,
					"material":5
				}
			]
		}
	],
	"textures":[
		{
			"sampler":0,
			"source":0
		},
		{
			"sampler":0,
			"source":0
		}
	],
	"images":[
		{
			"bufferView":12,
			"mimeType":"image/png",
			"name":"AAA_ARD-I1"
		}
	],
	"accessors":[
		{
			"bufferView":0,
			"componentType":5126,
			"count":781,
			"max":[
				0.15481141209602356,
				0.24681001901626587,
				0.09321296215057373
			],
			"min":[
				-0.21918949484825134,
				-0.13420861959457397,
				-0.0851324200630188
			],
			"type":"VEC3"
		},
		{
			"bufferView":1,
			"componentType":5126,
			"count":781,
			"type":"VEC3"
		},
		{
			"bufferView":2,
			"componentType":5126,
			"count":781,
			"type":"VEC2"
		},
		{
			"bufferView":3,
			"componentType":5123,
			"count":2331,
			"type":"SCALAR"
		},
		{
			"bufferView":4,
			"componentType":5126,
			"count":748,
			"max":[
				0.15481141209602356,
				0.2452227771282196,
				0.09176507592201233
			],
			"min":[
				-0.21918949484825134,
				-0.1326211392879486,
				-0.0851324200630188
			],
			"type":"VEC3"
		},
		{
			"bufferView":5,
			"componentType":5126,
			"count":748,
			"type":"VEC3"
		},
		{
			"bufferView":6,
			"componentType":5126,
			"count":748,
			"type":"VEC2"
		},
		{
			"bufferView":7,
			"componentType":5123,
			"count":2331,
			"type":"SCALAR"
		},
		{
			"bufferView":8,
			"componentType":5126,
			"count":1280,
			"max":[
				0.15481141209602356,
				0.24681001901626587,
				0.09321296215057373
			],
			"min":[
				-0.21918949484825134,
				-0.13420861959457397,
				-0.0851324200630188
			],
			"type":"VEC3"
		},
		{
			"bufferView":9,
			"componentType":5126,
			"count":1280,
			"type":"VEC3"
		},
		{
			"bufferView":10,
			"componentType":5126,
			"count":1280,
			"type":"VEC2"
		},
		{
			"bufferView":11,
			"componentType":5123,
			"count":2754,
			"type":"SCALAR"
		},
		{
			"bufferView":13,
			"componentType":5126,
			"count":800,
			"max":[
				-0.06192810833454132,
				0.14396721124649048,
				-0.24627988040447235
			],
			"min":[
				-0.4473689794540405,
				-0.13420861959457397,
				-0.43020230531692505
			],
			"type":"VEC3"
		},
		{
			"bufferView":14,
			"componentType":5126,
			"count":800,
			"type":"VEC3"
		},
		{
			"bufferView":15,
			"componentType":5126,
			"count":800,
			"type":"VEC2"
		},
		{
			"bufferView":16,
			"componentType":5123,
			"count":2331,
			"type":"SCALAR"
		},
		{
			"bufferView":17,
			"componentType":5126,
			"count":753,
			"max":[
				-0.06192810833454132,
				0.1419147253036499,
				-0.24832452833652496
			],
			"min":[
				-0.4471901059150696,
				-0.1326211392879486,
				-0.4283831715583801
			],
			"type":"VEC3"
		},
		{
			"bufferView":18,
			"componentType":5126,
			"count":753,
			"type":"VEC3"
		},
		{
			"bufferView":19,
			"componentType":5126,
			"count":753,
			"type":"VEC2"
		},
		{
			"bufferView":20,
			"componentType":5123,
			"count":2331,
			"type":"SCALAR"
		},
		{
			"bufferView":21,
			"componentType":5126,
			"count":1548,
			"max":[
				-0.06192810833454132,
				0.14396721124649048,
				-0.24627988040447235
			],
			"min":[
				-0.4473689794540405,
				-0.13420861959457397,
				-0.42950135469436646
			],
			"type":"VEC3"
		},
		{
			"bufferView":22,
			"componentType":5126,
			"count":1548,
			"type":"VEC3"
		},
		{
			"bufferView":23,
			"componentType":5126,
			"count":1548,
			"type":"VEC2"
		},
		{
			"bufferView":24,
			"componentType":5123,
			"count":2754,
			"type":"SCALAR"
		}
	],
	"bufferViews":[
		{
			"buffer":0,
			"byteLength":9372,
			"byteOffset":0,
			"target":34962
		},
		{
			"buffer":0,
			"byteLength":9372,
			"byteOffset":9372,
			"target":34962
		},
		{
			"buffer":0,
			"byteLength":6248,
			"byteOffset":18744,
			"target":34962
		},
		{
			"buffer":0,
			"byteLength":4662,
			"byteOffset":24992,
			"target":34963
		},
		{
			"buffer":0,
			"byteLength":8976,
			"byteOffset":29656,
			"target":34962
		},
		{
			"buffer":0,
			"byteLength":8976,
			"byteOffset":38632,
			"target":34962
		},
		{
			"buffer":0,
			"byteLength":5984,
			"byteOffset":47608,
			"target":34962
		},
		{
			"buffer":0,
			"byteLength":4662,
			"byteOffset":53592,
			"target":34963
		},
		{
			"buffer":0,
			"byteLength":15360,
			"byteOffset":58256,
			"target":34962
		},
		{
			"buffer":0,
			"byteLength":15360,
			"byteOffset":73616,
			"target":34962
		},
		{
			"buffer":0,
			"byteLength":10240,
			"byteOffset":88976,
			"target":34962
		},
		{
			"buffer":0,
			"byteLength":5508,
			"byteOffset":99216,
			"target":34963
		},
		{
			"buffer":0,
			"byteLength":767,
			"byteOffset":104724
		},
		{
			"buffer":0,
			"byteLength":9600,
			"byteOffset":105492,
			"target":34962
		},
		{
			"buffer":0,
			"byteLength":9600,
			"byteOffset":115092,
			"target":34962
		},
		{
			"buffer":0,
			"byteLength":6400,
			"byteOffset":124692,
			"target":34962
		},
		{
			"buffer":0,
			"byteLength":4662,
			"byteOffset":131092,
			"target":34963
		},
		{
			"buffer":0,
			"byteLength":9036,
			"byteOffset":135756,
			"target":34962
		},
		{
			"buffer":0,
			"byteLength":9036,
			"byteOffset":144792,
			"target":34962
		},
		{
			"buffer":0,
			"byteLength":6024,
			"byteOffset":153828,
			"target":34962
		},
		{
			"buffer":0,
			"byteLength":4662,
			"byteOffset":159852,
			"target":34963
		},
		{
			"buffer":0,
			"byteLength":18576,
			"byteOffset":164516,
			"target":34962
		},
		{
			"buffer":0,
			"byteLength":18576,
			"byteOffset":183092,
			"target":34962
		},
		{
			"buffer":0,
			"byteLength":12384,
			"byteOffset":201668,
			"target":34962
		},
		{
			"buffer":0,
			"byteLength":5508,
			"byteOffset":214052,
			"target":34963
		}
	],
	"samplers":[
		{
			"magFilter":9729,
			"minFilter":9987
		}
	],
	"buffers":[
		{
			"byteLength":219560,
			"uri":"data:application/octet-stream;base64,"
		}
	]
}
