{
	"asset":{
		"generator":"Khronos glTF Blender I/O v3.6.27",
		"version":"2.0"
	},
	"extensionsUsed":[
		"KHR_materials_specular",
		"KHR_materials_ior"
	],
	"scene":0,
	"scenes":[
		{
			"name":"Scene",
			"nodes":[
				0
			]
		}
	],
	"nodes":[
		{
			"mesh":0,
			"name":"TQ_ARD-node"
		}
	],
	"materials":[
		{
			"doubleSided":true,
			"extensions":{
				"KHR_materials_specular":{
					"specularColorFactor":[
						0,
						0,
						0
					]
				},
				"KHR_materials_ior":{
					"ior":0
				}
			},
			"name":"TQ_ARD_front",
			"pbrMetallicRoughness":{
				"baseColorFactor":[
					0.800000011920929,
					0.800000011920929,
					0.800000011920929,
					1
				],
				"metallicFactor":0,
				"roughnessFactor":0.5
			}
		},
		{
			"doubleSided":true,
			"extensions":{
				"KHR_materials_specular":{
					"specularColorFactor":[
						0,
						0,
						0
					]
				},
				"KHR_materials_ior":{
					"ior":0
				}
			},
			"name":"TQ_ARD_back",
			"pbrMetallicRoughness":{
				"baseColorFactor":[
					0.996078372001648,
					0.9019607901573181,
					0.6627451181411743,
					1
				],
				"metallicFactor":0,
				"roughnessFactor":0.5
			}
		},
		{
			"doubleSided":true,
			"extensions":{
				"KHR_materials_specular":{
					"specularColorFactor":[
						0,
						0,
						0
					]
				},
				"KHR_materials_ior":{
					"ior":0
				}
			},
			"name":"TQ_ARD_edge",
			"pbrMetallicRoughness":{
				"baseColorTexture":{
					"index":0
				},
				"metallicFactor":0,
				"roughnessFactor":0.5
			}
		}
	],
	"meshes":[
		{
			"name":"TQ_ARD-geom",
			"primitives":[
				{
					"attributes":{
						"POSITION":0,
						"NORMAL":1,
						"TEXCOORD_0":2
					},
					"indices":3,
					"material":0
				},
				{
					"attributes":{
						"POSITION":4,
						"NORMAL":5,
						"TEXCOORD_0":6
					},
					"indices":7,
					"material":1
				},
				{
					"attributes":{
						"POSITION":8,
						"NORMAL":9,
						"TEXCOORD_0":10
					},
					"indices":11,
					"material":2
				}
			]
		}
	],
	"textures":[
		{
			"sampler":0,
			"source":0
		}
	],
	"images":[
		{
			"bufferView":12,
			"mimeType":"image/png",
			"name":"TQ_ARD-I1"
		}
	],
	"accessors":[
		{
			"bufferView":0,
			"componentType":5126,
			"count":2211,
			"max":[
				0.16550028324127197,
				0.284843772649765,
				0.19773104786872864
			],
			"min":[
				-0.22358888387680054,
				0.0038420557975769043,
				-0.19644519686698914
			],
			"type":"VEC3"
		},
		{
			"bufferView":1,
			"componentType":5126,
			"count":2211,
			"type":"VEC3"
		},
		{
			"bufferView":2,
			"componentType":5126,
			"count":2211,
			"type":"VEC2"
		},
		{
			"bufferView":3,
			"componentType":5123,
			"count":6366,
			"type":"SCALAR"
		},
		{
			"bufferView":4,
			"componentType":5126,
			"count":2032,
			"max":[
				0.16344782710075378,
				0.284843772649765,
				0.19714190065860748
			],
			"min":[
				-0.22358888387680054,
				0.0038420555647462606,
				-0.19585609436035156
			],
			"type":"VEC3"
		},
		{
			"bufferView":5,
			"componentType":5126,
			"count":2032,
			"type":"VEC3"
		},
		{
			"bufferView":6,
			"componentType":5126,
			"count":2032,
			"type":"VEC2"
		},
		{
			"bufferView":7,
			"componentType":5123,
			"count":6366,
			"type":"SCALAR"
		},
		{
			"bufferView":8,
			"componentType":5126,
			"count":3671,
			"max":[
				0.16550028324127197,
				0.284843772649765,
				0.19773104786872864
			],
			"min":[
				-0.22358888387680054,
				0.0038420555647462606,
				-0.19644519686698914
			],
			"type":"VEC3"
		},
		{
			"bufferView":9,
			"componentType":5126,
			"count":3671,
			"type":"VEC3"
		},
		{
			"bufferView":10,
			"componentType":5126,
			"count":3671,
			"type":"VEC2"
		},
		{
			"bufferView":11,
			"componentType":5123,
			"count":8322,
			"type":"SCALAR"
		}
	],
	"bufferViews":[
		{
			"buffer":0,
			"byteLength":26532,
			"byteOffset":0,
			"target":34962
		},
		{
			"buffer":0,
			"byteLength":26532,
			"byteOffset":26532,
			"target":34962
		},
		{
			"buffer":0,
			"byteLength":17688,
			"byteOffset":53064,
			"target":34962
		},
		{
			"buffer":0,
			"byteLength":12732,
			"byteOffset":70752,
			"target":34963
		},
		{
			"buffer":0,
			"byteLength":24384,
			"byteOffset":83484,
			"target":34962
		},
		{
			"buffer":0,
			"byteLength":24384,
			"byteOffset":107868,
			"target":34962
		},
		{
			"buffer":0,
			"byteLength":16256,
			"byteOffset":132252,
			"target":34962
		},
		{
			"buffer":0,
			"byteLength":12732,
			"byteOffset":148508,
			"target":34963
		},
		{
			"buffer":0,
			"byteLength":44052,
			"byteOffset":161240,
			"target":34962
		},
		{
			"buffer":0,
			"byteLength":44052,
			"byteOffset":205292,
			"target":34962
		},
		{
			"buffer":0,
			"byteLength":29368,
			"byteOffset":249344,
			"target":34962
		},
		{
			"buffer":0,
			"byteLength":16644,
			"byteOffset":278712,
			"target":34963
		},
		{
			"buffer":0,
			"byteLength":767,
			"byteOffset":295356
		}
	],
	"samplers":[
		{
			"magFilter":9729,
			"minFilter":9987
		}
	],
	"buffers":[
		{
			"byteLength":296124,
			"uri":"data:application/octet-stream;base64,"
		}
	]
}
