{
	"asset":{
		"generator":"Khronos glTF Blender I/O v3.6.27",
		"version":"2.0"
	},
	"extensionsUsed":[
		"KHR_lights_punctual",
		"KHR_materials_specular",
		"KHR_materials_ior"
	],
	"extensionsRequired":[
		"KHR_lights_punctual"
	],
	"extensions":{
		"KHR_lights_punctual":{
			"lights":[
				{
					"color":[
						1,
						1,
						1
					],
					"intensity":34768.59628436729,
					"type":"point",
					"name":"Light"
				}
			]
		}
	},
	"scene":0,
	"scenes":[
		{
			"name":"Scene",
			"nodes":[
				0,
				1,
				2
			]
		}
	],
	"nodes":[
		{
			"extensions":{
				"KHR_lights_punctual":{
					"light":0
				}
			},
			"name":"Light",
			"rotation":[
				-0.28416627645492554,
				0.7269423007965088,
				0.34203392267227173,
				0.5232754945755005
			],
			"translation":[
				-1.6237545013427734,
				4.553863048553467,
				-4.265453815460205
			]
		},
		{
			"mesh":0,
			"name":"Plano",
			"translation":[
				0,
				-0.14945927262306213,
				0
			]
		},
		{
			"mesh":1,
			"name":"TQ_ARD-node"
		}
	],
	"materials":[
		{
			"doubleSided":true,
			"name":"concrete_wall_2_grunge_bottom",
			"pbrMetallicRoughness":{
				"baseColorFactor":[
					0.800000011920929,
					0.800000011920929,
					0.800000011920929,
					1
				],
				"metallicFactor":0,
				"roughnessFactor":0.5
			}
		},
		{
			"doubleSided":true,
			"extensions":{
				"KHR_materials_specular":{
					"specularColorFactor":[
						0,
						0,
						0
					]
				},
				"KHR_materials_ior":{
					"ior":0
				}
			},
			"name":"TQ_ARD_front",
			"pbrMetallicRoughness":{
				"baseColorFactor":[
					0.9960784912109375,
					0.9960784912109375,
					0.9960784912109375,
					1
				],
				"metallicFactor":0,
				"roughnessFactor":0.5
			}
		},
		{
			"doubleSided":true,
			"extensions":{
				"KHR_materials_specular":{
					"specularColorFactor":[
						0,
						0,
						0
					]
				},
				"KHR_materials_ior":{
					"ior":0
				}
			},
			"name":"TQ_ARD_back",
			"pbrMetallicRoughness":{
				"baseColorFactor":[
					0.996078372001648,
					0.996078372001648,
					0.996078372001648,
					1
				],
				"metallicFactor":0,
				"roughnessFactor":0.5
			}
		},
		{
			"doubleSided":true,
			"extensions":{
				"KHR_materials_specular":{
					"specularColorFactor":[
						0,
						0,
						0
					]
				},
				"KHR_materials_ior":{
					"ior":0
				}
			},
			"name":"TQ_ARD_edge",
			"pbrMetallicRoughness":{
				"baseColorTexture":{
					"index":0
				},
				"metallicFactor":0,
				"roughnessFactor":0.5
			}
		},
		{
			"doubleSided":true,
			"extensions":{
				"KHR_materials_specular":{
					"specularColorFactor":[
						0,
						0,
						0
					]
				},
				"KHR_materials_ior":{
					"ior":0
				}
			},
			"name":"TQ_ARD_front.001",
			"pbrMetallicRoughness":{
				"baseColorFactor":[
					0.996078372001648,
					0.996078372001648,
					0.996078372001648,
					1
				],
				"metallicFactor":0,
				"roughnessFactor":0.5
			}
		},
		{
			"doubleSided":true,
			"extensions":{
				"KHR_materials_specular":{
					"specularColorFactor":[
						0,
						0,
						0
					]
				},
				"KHR_materials_ior":{
					"ior":0
				}
			},
			"name":"TQ_ARD_back.001",
			"pbrMetallicRoughness":{
				"baseColorFactor":[
					0.3617973327636719,
					0.24226203560829163,
					0.14678338170051575,
					1
				],
				"metallicFactor":0,
				"roughnessFactor":0.5
			}
		},
		{
			"doubleSided":true,
			"extensions":{
				"KHR_materials_specular":{
					"specularColorFactor":[
						0,
						0,
						0
					]
				},
				"KHR_materials_ior":{
					"ior":0
				}
			},
			"name":"TQ_ARD_edge.001",
			"pbrMetallicRoughness":{
				"baseColorTexture":{
					"index":1
				},
				"metallicFactor":0,
				"roughnessFactor":0.5
			}
		}
	],
	"meshes":[
		{
			"name":"Plano",
			"primitives":[
				{
					"attributes":{
						"POSITION":0,
						"NORMAL":1,
						"TEXCOORD_0":2
					},
					"indices":3,
					"material":0
				}
			]
		},
		{
			"name":"TQ_ARD-geom",
			"primitives":[
				{
					"attributes":{
						"POSITION":4,
						"NORMAL":5,
						"TEXCOORD_0":6
					},
					"indices":7,
					"material":1
				},
				{
					"attributes":{
						"POSITION":8,
						"NORMAL":9,
						"TEXCOORD_0":10
					},
					"indices":11,
					"material":2
				},
				{
					"attributes":{
						"POSITION":12,
						"NORMAL":13,
						"TEXCOORD_0":14
					},
					"indices":15,
					"material":3
				},
				{
					"attributes":{
						"POSITION":16,
						"NORMAL":17,
						"TEXCOORD_0":18
					},
					"indices":19,
					"material":4
				},
				{
					"attributes":{
						"POSITION":20,
						"NORMAL":21,
						"TEXCOORD_0":22
					},
					"indices":23,
					"material":5
				},
				{
					"attributes":{
						"POSITION":24,
						"NORMAL":25,
						"TEXCOORD_0":26
					},
					"indices":27,
					"material":6
				}
			]
		}
	],
	"textures":[
		{
			"sampler":0,
			"source":0
		},
		{
			"sampler":0,
			"source":0
		}
	],
	"images":[
		{
			"bufferView":16,
			"mimeType":"image/png",
			"name":"TQ_ARD-I1"
		}
	],
	"accessors":[
		{
			"bufferView":0,
			"componentType":5126,
			"count":4,
			"max":[
				1,
				0,
				1
			],
			"min":[
				-1,
				0,
				-1
			],
			"type":"VEC3"
		},
		{
			"bufferView":1,
			"componentType":5126,
			"count":4,
			"type":"VEC3"
		},
		{
			"bufferView":2,
			"componentType":5126,
			"count":4,
			"type":"VEC2"
		},
		{
			"bufferView":3,
			"componentType":5123,
			"count":6,
			"type":"SCALAR"
		},
		{
			"bufferView":4,
			"componentType":5126,
			"count":1304,
			"max":[
				-0.020647570490837097,
				0.1280214935541153,
				-0.05080904811620712
			],
			"min":[
				-0.1598815619945526,
				-0.14552347362041473,
				-0.2589832544326782
			],
			"type":"VEC3"
		},
		{
			"bufferView":5,
			"componentType":5126,
			"count":1304,
			"type":"VEC3"
		},
		{
			"bufferView":6,
			"componentType":5126,
			"count":1304,
			"type":"VEC2"
		},
		{
			"bufferView":7,
			"componentType":5123,
			"count":2922,
			"type":"SCALAR"
		},
		{
			"bufferView":8,
			"componentType":5126,
			"count":1074,
			"max":[
				-0.022596701979637146,
				0.12484841793775558,
				-0.052786655724048615
			],
			"min":[
				-0.1578727662563324,
				-0.14347100257873535,
				-0.2569473683834076
			],
			"type":"VEC3"
		},
		{
			"bufferView":9,
			"componentType":5126,
			"count":1074,
			"type":"VEC3"
		},
		{
			"bufferView":10,
			"componentType":5126,
			"count":1074,
			"type":"VEC2"
		},
		{
			"bufferView":11,
			"componentType":5123,
			"count":2922,
			"type":"SCALAR"
		},
		{
			"bufferView":12,
			"componentType":5126,
			"count":533,
			"max":[
				-0.020647570490837097,
				0.1280214935541153,
				-0.05184464901685715
			],
			"min":[
				-0.15982192754745483,
				-0.14552347362041473,
				-0.25802984833717346
			],
			"type":"VEC3"
		},
		{
			"bufferView":13,
			"componentType":5126,
			"count":533,
			"type":"VEC3"
		},
		{
			"bufferView":14,
			"componentType":5126,
			"count":533,
			"type":"VEC2"
		},
		{
			"bufferView":15,
			"componentType":5123,
			"count":1176,
			"type":"SCALAR"
		},
		{
			"bufferView":17,
			"componentType":5126,
			"count":1228,
			"max":[
				0.20348908007144928,
				0.17587679624557495,
				0.304393470287323
			],
			"min":[
				-0.024128228425979614,
				-0.14398324489593506,
				0.0038448870182037354
			],
			"type":"VEC3"
		},
		{
			"bufferView":18,
			"componentType":5126,
			"count":1228,
			"type":"VEC3"
		},
		{
			"bufferView":19,
			"componentType":5126,
			"count":1228,
			"type":"VEC2"
		},
		{
			"bufferView":20,
			"componentType":5123,
			"count":2922,
			"type":"SCALAR"
		},
		{
			"bufferView":21,
			"componentType":5126,
			"count":1112,
			"max":[
				0.2010928839445114,
				0.17795976996421814,
				0.30199724435806274
			],
			"min":[
				-0.021732032299041748,
				-0.14193077385425568,
				0.006241068243980408
			],
			"type":"VEC3"
		},
		{
			"bufferView":22,
			"componentType":5126,
			"count":1112,
			"type":"VEC3"
		},
		{
			"bufferView":23,
			"componentType":5126,
			"count":1112,
			"type":"VEC2"
		},
		{
			"bufferView":24,
			"componentType":5123,
			"count":2922,
			"type":"SCALAR"
		},
		{
			"bufferView":25,
			"componentType":5126,
			"count":522,
			"max":[
				0.20348908007144928,
				0.17795976996421814,
				0.304393470287323
			],
			"min":[
				-0.024128228425979614,
				-0.14398324489593506,
				0.0038448870182037354
			],
			"type":"VEC3"
		},
		{
			"bufferView":26,
			"componentType":5126,
			"count":522,
			"type":"VEC3"
		},
		{
			"bufferView":27,
			"componentType":5126,
			"count":522,
			"type":"VEC2"
		},
		{
			"bufferView":28,
			"componentType":5123,
			"count":1176,
			"type":"SCALAR"
		}
	],
	"bufferViews":[
		{
			"buffer":0,
			"byteLength":48,
			"byteOffset":0,
			"target":34962
		},
		{
			"buffer":0,
			"byteLength":48,
			"byteOffset":48,
			"target":34962
		},
		{
			"buffer":0,
			"byteLength":32,
			"byteOffset":96,
			"target":34962
		},
		{
			"buffer":0,
			"byteLength":12,
			"byteOffset":128,
			"target":34963
		},
		{
			"buffer":0,
			"byteLength":15648,
			"byteOffset":140,
			"target":34962
		},
		{
			"buffer":0,
			"byteLength":15648,
			"byteOffset":15788,
			"target":34962
		},
		{
			"buffer":0,
			"byteLength":10432,
			"byteOffset":31436,
			"target":34962
		},
		{
			"buffer":0,
			"byteLength":5844,
			"byteOffset":41868,
			"target":34963
		},
		{
			"buffer":0,
			"byteLength":12888,
			"byteOffset":47712,
			"target":34962
		},
		{
			"buffer":0,
			"byteLength":12888,
			"byteOffset":60600,
			"target":34962
		},
		{
			"buffer":0,
			"byteLength":8592,
			"byteOffset":73488,
			"target":34962
		},
		{
			"buffer":0,
			"byteLength":5844,
			"byteOffset":82080,
			"target":34963
		},
		{
			"buffer":0,
			"byteLength":6396,
			"byteOffset":87924,
			"target":34962
		},
		{
			"buffer":0,
			"byteLength":6396,
			"byteOffset":94320,
			"target":34962
		},
		{
			"buffer":0,
			"byteLength":4264,
			"byteOffset":100716,
			"target":34962
		},
		{
			"buffer":0,
			"byteLength":2352,
			"byteOffset":104980,
			"target":34963
		},
		{
			"buffer":0,
			"byteLength":11444,
			"byteOffset":107332
		},
		{
			"buffer":0,
			"byteLength":14736,
			"byteOffset":118776,
			"target":34962
		},
		{
			"buffer":0,
			"byteLength":14736,
			"byteOffset":133512,
			"target":34962
		},
		{
			"buffer":0,
			"byteLength":9824,
			"byteOffset":148248,
			"target":34962
		},
		{
			"buffer":0,
			"byteLength":5844,
			"byteOffset":158072,
			"target":34963
		},
		{
			"buffer":0,
			"byteLength":13344,
			"byteOffset":163916,
			"target":34962
		},
		{
			"buffer":0,
			"byteLength":13344,
			"byteOffset":177260,
			"target":34962
		},
		{
			"buffer":0,
			"byteLength":8896,
			"byteOffset":190604,
			"target":34962
		},
		{
			"buffer":0,
			"byteLength":5844,
			"byteOffset":199500,
			"target":34963
		},
		{
			"buffer":0,
			"byteLength":6264,
			"byteOffset":205344,
			"target":34962
		},
		{
			"buffer":0,
			"byteLength":6264,
			"byteOffset":211608,
			"target":34962
		},
		{
			"buffer":0,
			"byteLength":4176,
			"byteOffset":217872,
			"target":34962
		},
		{
			"buffer":0,
			"byteLength":2352,
			"byteOffset":222048,
			"target":34963
		}
	],
	"samplers":[
		{
			"magFilter":9729,
			"minFilter":9987
		}
	],
	"buffers":[
		{
			"byteLength":224400,
			"uri":"data:application/octet-stream;base64,"
		}
	]
}
