{
	"asset":{
		"generator":"Khronos glTF Blender I/O v3.6.27",
		"version":"2.0"
	},
	"extensionsUsed":[
		"KHR_materials_specular",
		"KHR_materials_ior"
	],
	"scene":0,
	"scenes":[
		{
			"name":"Scene",
			"nodes":[
				0,
				1
			]
		}
	],
	"nodes":[
		{
			"mesh":0,
			"name":"Plane",
			"scale":[
				1.7816251516342163,
				1.7816251516342163,
				1.7816251516342163
			],
			"translation":[
				0.2505263686180115,
				0,
				-0.0501052662730217
			]
		},
		{
			"mesh":1,
			"name":"RRR"
		}
	],
	"materials":[
		{
			"doubleSided":true,
			"name":"rock_mat",
			"pbrMetallicRoughness":{
				"baseColorFactor":[
					0.800000011920929,
					0.800000011920929,
					0.800000011920929,
					1
				],
				"metallicFactor":0,
				"roughnessFactor":0.5
			}
		},
		{
			"doubleSided":true,
			"extensions":{
				"KHR_materials_specular":{
					"specularColorFactor":[
						0,
						0,
						0
					]
				},
				"KHR_materials_ior":{
					"ior":0
				}
			},
			"name":"TQ_ARD_front.001",
			"pbrMetallicRoughness":{
				"baseColorFactor":[
					0.9960784912109375,
					0.9960784912109375,
					0.9960784912109375,
					1
				],
				"metallicFactor":0,
				"roughnessFactor":0.5
			}
		},
		{
			"doubleSided":true,
			"extensions":{
				"KHR_materials_specular":{
					"specularColorFactor":[
						0,
						0,
						0
					]
				},
				"KHR_materials_ior":{
					"ior":0
				}
			},
			"name":"TQ_ARD_back.001",
			"pbrMetallicRoughness":{
				"baseColorFactor":[
					0.5807613730430603,
					0.3865916132926941,
					0.20653627812862396,
					1
				],
				"metallicFactor":0
			}
		},
		{
			"doubleSided":true,
			"extensions":{
				"KHR_materials_specular":{
					"specularColorFactor":[
						0,
						0,
						0
					]
				},
				"KHR_materials_ior":{
					"ior":0
				}
			},
			"name":"TQ_ARD_edge.001",
			"pbrMetallicRoughness":{
				"baseColorTexture":{
					"index":0
				},
				"metallicFactor":0,
				"roughnessFactor":0.5
			}
		},
		{
			"doubleSided":true,
			"extensions":{
				"KHR_materials_specular":{
					"specularColorFactor":[
						0,
						0,
						0
					]
				},
				"KHR_materials_ior":{
					"ior":0
				}
			},
			"name":"TQ_ARD_front",
			"pbrMetallicRoughness":{
				"baseColorFactor":[
					0.9960784912109375,
					0.9960784912109375,
					0.9960784912109375,
					1
				],
				"metallicFactor":0,
				"roughnessFactor":0.5
			}
		},
		{
			"doubleSided":true,
			"extensions":{
				"KHR_materials_specular":{
					"specularColorFactor":[
						0,
						0,
						0
					]
				},
				"KHR_materials_ior":{
					"ior":0
				}
			},
			"name":"TQ_ARD_back",
			"pbrMetallicRoughness":{
				"baseColorFactor":[
					0.996078372001648,
					0.9019607901573181,
					0.6627451181411743,
					1
				],
				"metallicFactor":0,
				"roughnessFactor":0.5
			}
		},
		{
			"doubleSided":true,
			"extensions":{
				"KHR_materials_specular":{
					"specularColorFactor":[
						0,
						0,
						0
					]
				},
				"KHR_materials_ior":{
					"ior":0
				}
			},
			"name":"TQ_ARD_edge",
			"pbrMetallicRoughness":{
				"baseColorTexture":{
					"index":1
				},
				"metallicFactor":0,
				"roughnessFactor":0.5
			}
		}
	],
	"meshes":[
		{
			"name":"Plane.001",
			"primitives":[
				{
					"attributes":{
						"POSITION":0,
						"NORMAL":1,
						"TEXCOORD_0":2
					},
					"indices":3,
					"material":0
				}
			]
		},
		{
			"name":"BBB",
			"primitives":[
				{
					"attributes":{
						"POSITION":4,
						"NORMAL":5,
						"TEXCOORD_0":6
					},
					"indices":7,
					"material":1
				},
				{
					"attributes":{
						"POSITION":8,
						"NORMAL":9,
						"TEXCOORD_0":10
					},
					"indices":11,
					"material":2
				},
				{
					"attributes":{
						"POSITION":12,
						"NORMAL":13,
						"TEXCOORD_0":14
					},
					"indices":15,
					"material":3
				},
				{
					"attributes":{
						"POSITION":16,
						"NORMAL":17,
						"TEXCOORD_0":18
					},
					"indices":19,
					"material":4
				},
				{
					"attributes":{
						"POSITION":20,
						"NORMAL":21,
						"TEXCOORD_0":22
					},
					"indices":23,
					"material":5
				},
				{
					"attributes":{
						"POSITION":24,
						"NORMAL":25,
						"TEXCOORD_0":26
					},
					"indices":27,
					"material":6
				}
			]
		}
	],
	"textures":[
		{
			"sampler":0,
			"source":0
		},
		{
			"sampler":0,
			"source":0
		}
	],
	"images":[
		{
			"bufferView":16,
			"mimeType":"image/png",
			"name":"TQ_ARD-I1"
		}
	],
	"accessors":[
		{
			"bufferView":0,
			"componentType":5126,
			"count":4,
			"max":[
				1,
				0,
				1
			],
			"min":[
				-1,
				0,
				-1
			],
			"type":"VEC3"
		},
		{
			"bufferView":1,
			"componentType":5126,
			"count":4,
			"type":"VEC3"
		},
		{
			"bufferView":2,
			"componentType":5126,
			"count":4,
			"type":"VEC2"
		},
		{
			"bufferView":3,
			"componentType":5123,
			"count":6,
			"type":"SCALAR"
		},
		{
			"bufferView":4,
			"componentType":5126,
			"count":1073,
			"max":[
				0.18908929824829102,
				0.8430600166320801,
				0.4165213704109192
			],
			"min":[
				-0.2103591412305832,
				0.010458499193191528,
				0.018526673316955566
			],
			"type":"VEC3"
		},
		{
			"bufferView":5,
			"componentType":5126,
			"count":1073,
			"type":"VEC3"
		},
		{
			"bufferView":6,
			"componentType":5126,
			"count":1073,
			"type":"VEC2"
		},
		{
			"bufferView":7,
			"componentType":5123,
			"count":2544,
			"type":"SCALAR"
		},
		{
			"bufferView":8,
			"componentType":5126,
			"count":971,
			"max":[
				0.18736256659030914,
				0.8406637907028198,
				0.41484808921813965
			],
			"min":[
				-0.20874929428100586,
				0.012287706136703491,
				0.020188093185424805
			],
			"type":"VEC3"
		},
		{
			"bufferView":9,
			"componentType":5126,
			"count":971,
			"type":"VEC3"
		},
		{
			"bufferView":10,
			"componentType":5126,
			"count":971,
			"type":"VEC2"
		},
		{
			"bufferView":11,
			"componentType":5123,
			"count":2544,
			"type":"SCALAR"
		},
		{
			"bufferView":12,
			"componentType":5126,
			"count":1585,
			"max":[
				0.18908929824829102,
				0.8430600166320801,
				0.4165213704109192
			],
			"min":[
				-0.2103591412305832,
				0.010458499193191528,
				0.018526673316955566
			],
			"type":"VEC3"
		},
		{
			"bufferView":13,
			"componentType":5126,
			"count":1585,
			"type":"VEC3"
		},
		{
			"bufferView":14,
			"componentType":5126,
			"count":1585,
			"type":"VEC2"
		},
		{
			"bufferView":15,
			"componentType":5123,
			"count":2682,
			"type":"SCALAR"
		},
		{
			"bufferView":17,
			"componentType":5126,
			"count":994,
			"max":[
				0.014170587062835693,
				0.6736018657684326,
				-0.10939225554466248
			],
			"min":[
				-0.1940414309501648,
				0.01092672348022461,
				-0.31256750226020813
			],
			"type":"VEC3"
		},
		{
			"bufferView":18,
			"componentType":5126,
			"count":994,
			"type":"VEC3"
		},
		{
			"bufferView":19,
			"componentType":5126,
			"count":994,
			"type":"VEC2"
		},
		{
			"bufferView":20,
			"componentType":5123,
			"count":2544,
			"type":"SCALAR"
		},
		{
			"bufferView":21,
			"componentType":5126,
			"count":889,
			"max":[
				0.012315809726715088,
				0.671549379825592,
				-0.11088326573371887
			],
			"min":[
				-0.19094781577587128,
				0.012824296951293945,
				-0.3109799921512604
			],
			"type":"VEC3"
		},
		{
			"bufferView":22,
			"componentType":5126,
			"count":889,
			"type":"VEC3"
		},
		{
			"bufferView":23,
			"componentType":5126,
			"count":889,
			"type":"VEC2"
		},
		{
			"bufferView":24,
			"componentType":5123,
			"count":2544,
			"type":"SCALAR"
		},
		{
			"bufferView":25,
			"componentType":5126,
			"count":1400,
			"max":[
				0.013240635395050049,
				0.6736018657684326,
				-0.10939231514930725
			],
			"min":[
				-0.1940414309501648,
				0.01092672348022461,
				-0.31163743138313293
			],
			"type":"VEC3"
		},
		{
			"bufferView":26,
			"componentType":5126,
			"count":1400,
			"type":"VEC3"
		},
		{
			"bufferView":27,
			"componentType":5126,
			"count":1400,
			"type":"VEC2"
		},
		{
			"bufferView":28,
			"componentType":5123,
			"count":2682,
			"type":"SCALAR"
		}
	],
	"bufferViews":[
		{
			"buffer":0,
			"byteLength":48,
			"byteOffset":0,
			"target":34962
		},
		{
			"buffer":0,
			"byteLength":48,
			"byteOffset":48,
			"target":34962
		},
		{
			"buffer":0,
			"byteLength":32,
			"byteOffset":96,
			"target":34962
		},
		{
			"buffer":0,
			"byteLength":12,
			"byteOffset":128,
			"target":34963
		},
		{
			"buffer":0,
			"byteLength":12876,
			"byteOffset":140,
			"target":34962
		},
		{
			"buffer":0,
			"byteLength":12876,
			"byteOffset":13016,
			"target":34962
		},
		{
			"buffer":0,
			"byteLength":8584,
			"byteOffset":25892,
			"target":34962
		},
		{
			"buffer":0,
			"byteLength":5088,
			"byteOffset":34476,
			"target":34963
		},
		{
			"buffer":0,
			"byteLength":11652,
			"byteOffset":39564,
			"target":34962
		},
		{
			"buffer":0,
			"byteLength":11652,
			"byteOffset":51216,
			"target":34962
		},
		{
			"buffer":0,
			"byteLength":7768,
			"byteOffset":62868,
			"target":34962
		},
		{
			"buffer":0,
			"byteLength":5088,
			"byteOffset":70636,
			"target":34963
		},
		{
			"buffer":0,
			"byteLength":19020,
			"byteOffset":75724,
			"target":34962
		},
		{
			"buffer":0,
			"byteLength":19020,
			"byteOffset":94744,
			"target":34962
		},
		{
			"buffer":0,
			"byteLength":12680,
			"byteOffset":113764,
			"target":34962
		},
		{
			"buffer":0,
			"byteLength":5364,
			"byteOffset":126444,
			"target":34963
		},
		{
			"buffer":0,
			"byteLength":767,
			"byteOffset":131808
		},
		{
			"buffer":0,
			"byteLength":11928,
			"byteOffset":132576,
			"target":34962
		},
		{
			"buffer":0,
			"byteLength":11928,
			"byteOffset":144504,
			"target":34962
		},
		{
			"buffer":0,
			"byteLength":7952,
			"byteOffset":156432,
			"target":34962
		},
		{
			"buffer":0,
			"byteLength":5088,
			"byteOffset":164384,
			"target":34963
		},
		{
			"buffer":0,
			"byteLength":10668,
			"byteOffset":169472,
			"target":34962
		},
		{
			"buffer":0,
			"byteLength":10668,
			"byteOffset":180140,
			"target":34962
		},
		{
			"buffer":0,
			"byteLength":7112,
			"byteOffset":190808,
			"target":34962
		},
		{
			"buffer":0,
			"byteLength":5088,
			"byteOffset":197920,
			"target":34963
		},
		{
			"buffer":0,
			"byteLength":16800,
			"byteOffset":203008,
			"target":34962
		},
		{
			"buffer":0,
			"byteLength":16800,
			"byteOffset":219808,
			"target":34962
		},
		{
			"buffer":0,
			"byteLength":11200,
			"byteOffset":236608,
			"target":34962
		},
		{
			"buffer":0,
			"byteLength":5364,
			"byteOffset":247808,
			"target":34963
		}
	],
	"samplers":[
		{
			"magFilter":9729,
			"minFilter":9987
		}
	],
	"buffers":[
		{
			"byteLength":253172,
			"uri":"data:application/octet-stream;base64,"
		}
	]
}
