{
	"asset":{
		"generator":"Khronos glTF Blender I/O v3.6.27",
		"version":"2.0"
	},
	"extensionsUsed":[
		"KHR_materials_specular",
		"KHR_materials_ior"
	],
	"scene":0,
	"scenes":[
		{
			"name":"Scene",
			"nodes":[
				0
			]
		}
	],
	"nodes":[
		{
			"mesh":0,
			"name":"_4E0066_ARD-node"
		}
	],
	"materials":[
		{
			"doubleSided":true,
			"extensions":{
				"KHR_materials_specular":{
					"specularColorFactor":[
						0,
						0,
						0
					]
				},
				"KHR_materials_ior":{
					"ior":0
				}
			},
			"name":"_4E0066_ARD_front",
			"pbrMetallicRoughness":{
				"metallicFactor":0,
				"roughnessFactor":0.5
			}
		},
		{
			"doubleSided":true,
			"extensions":{
				"KHR_materials_specular":{
					"specularColorFactor":[
						0,
						0,
						0
					]
				},
				"KHR_materials_ior":{
					"ior":0
				}
			},
			"name":"_4E0066_ARD_back",
			"pbrMetallicRoughness":{
				"baseColorFactor":[
					0.6213604807853699,
					0.3853505551815033,
					0.21275168657302856,
					1
				],
				"metallicFactor":0,
				"roughnessFactor":0.5
			}
		},
		{
			"doubleSided":true,
			"extensions":{
				"KHR_materials_specular":{
					"specularColorFactor":[
						0,
						0,
						0
					]
				},
				"KHR_materials_ior":{
					"ior":0
				}
			},
			"name":"_4E0066_ARD_edge",
			"pbrMetallicRoughness":{
				"baseColorTexture":{
					"index":0
				},
				"metallicFactor":0,
				"roughnessFactor":0.5
			}
		}
	],
	"meshes":[
		{
			"name":"_4E0066_ARD-geom",
			"primitives":[
				{
					"attributes":{
						"POSITION":0,
						"NORMAL":1,
						"TEXCOORD_0":2
					},
					"indices":3,
					"material":0
				},
				{
					"attributes":{
						"POSITION":4,
						"NORMAL":5,
						"TEXCOORD_0":6
					},
					"indices":7,
					"material":1
				},
				{
					"attributes":{
						"POSITION":8,
						"NORMAL":9,
						"TEXCOORD_0":10
					},
					"indices":11,
					"material":2
				}
			]
		}
	],
	"textures":[
		{
			"sampler":0,
			"source":0
		}
	],
	"images":[
		{
			"bufferView":12,
			"mimeType":"image/png",
			"name":"_4E0066_ARD-I1"
		}
	],
	"accessors":[
		{
			"bufferView":0,
			"componentType":5126,
			"count":2105,
			"max":[
				0.12179085612297058,
				0.39988934993743896,
				0.042324550449848175
			],
			"min":[
				-0.1215880811214447,
				0.0016286969184875488,
				-0.04985276609659195
			],
			"type":"VEC3"
		},
		{
			"bufferView":1,
			"componentType":5126,
			"count":2105,
			"type":"VEC3"
		},
		{
			"bufferView":2,
			"componentType":5126,
			"count":2105,
			"type":"VEC2"
		},
		{
			"bufferView":3,
			"componentType":5123,
			"count":6036,
			"type":"SCALAR"
		},
		{
			"bufferView":4,
			"componentType":5126,
			"count":1906,
			"max":[
				0.12014920264482498,
				0.3983604311943054,
				0.040734704583883286
			],
			"min":[
				-0.11985162645578384,
				0.0034984052181243896,
				-0.047955241054296494
			],
			"type":"VEC3"
		},
		{
			"bufferView":5,
			"componentType":5126,
			"count":1906,
			"type":"VEC3"
		},
		{
			"bufferView":6,
			"componentType":5126,
			"count":1906,
			"type":"VEC2"
		},
		{
			"bufferView":7,
			"componentType":5123,
			"count":6036,
			"type":"SCALAR"
		},
		{
			"bufferView":8,
			"componentType":5126,
			"count":2858,
			"max":[
				0.12173525243997574,
				0.39988934993743896,
				0.042324017733335495
			],
			"min":[
				-0.12143891304731369,
				0.0016286969184875488,
				-0.04985276609659195
			],
			"type":"VEC3"
		},
		{
			"bufferView":9,
			"componentType":5126,
			"count":2858,
			"type":"VEC3"
		},
		{
			"bufferView":10,
			"componentType":5126,
			"count":2858,
			"type":"VEC2"
		},
		{
			"bufferView":11,
			"componentType":5123,
			"count":6432,
			"type":"SCALAR"
		}
	],
	"bufferViews":[
		{
			"buffer":0,
			"byteLength":25260,
			"byteOffset":0,
			"target":34962
		},
		{
			"buffer":0,
			"byteLength":25260,
			"byteOffset":25260,
			"target":34962
		},
		{
			"buffer":0,
			"byteLength":16840,
			"byteOffset":50520,
			"target":34962
		},
		{
			"buffer":0,
			"byteLength":12072,
			"byteOffset":67360,
			"target":34963
		},
		{
			"buffer":0,
			"byteLength":22872,
			"byteOffset":79432,
			"target":34962
		},
		{
			"buffer":0,
			"byteLength":22872,
			"byteOffset":102304,
			"target":34962
		},
		{
			"buffer":0,
			"byteLength":15248,
			"byteOffset":125176,
			"target":34962
		},
		{
			"buffer":0,
			"byteLength":12072,
			"byteOffset":140424,
			"target":34963
		},
		{
			"buffer":0,
			"byteLength":34296,
			"byteOffset":152496,
			"target":34962
		},
		{
			"buffer":0,
			"byteLength":34296,
			"byteOffset":186792,
			"target":34962
		},
		{
			"buffer":0,
			"byteLength":22864,
			"byteOffset":221088,
			"target":34962
		},
		{
			"buffer":0,
			"byteLength":12864,
			"byteOffset":243952,
			"target":34963
		},
		{
			"buffer":0,
			"byteLength":767,
			"byteOffset":256816
		}
	],
	"samplers":[
		{
			"magFilter":9729,
			"minFilter":9987
		}
	],
	"buffers":[
		{
			"byteLength":257584,
			"uri":"data:application/octet-stream;base64,"
		}
	]
}
