{
	"asset":{
		"generator":"Khronos glTF Blender I/O v3.5.30",
		"version":"2.0"
	},
	"extensionsUsed":[
		"KHR_materials_specular",
		"KHR_materials_ior"
	],
	"scene":0,
	"scenes":[
		{
			"name":"Scene",
			"nodes":[
				0
			]
		}
	],
	"nodes":[
		{
			"mesh":0,
			"name":"TQ_ARD-node",
			"rotation":[
				-0.5,
				0.4999999403953552,
				-0.5,
				0.5000000596046448
			],
			"translation":[
				0,
				0.1624853014945984,
				0
			]
		}
	],
	"materials":[
		{
			"doubleSided":true,
			"extensions":{
				"KHR_materials_specular":{
					"specularColorFactor":[
						0,
						0,
						0
					]
				},
				"KHR_materials_ior":{
					"ior":0
				}
			},
			"name":"TQ_ARD_front",
			"pbrMetallicRoughness":{
				"baseColorTexture":{
					"index":0
				},
				"metallicFactor":0,
				"roughnessFactor":0.5
			}
		},
		{
			"doubleSided":true,
			"extensions":{
				"KHR_materials_specular":{
					"specularColorFactor":[
						0,
						0,
						0
					]
				},
				"KHR_materials_ior":{
					"ior":0
				}
			},
			"name":"TQ_ARD_back",
			"pbrMetallicRoughness":{
				"baseColorFactor":[
					0.996078372001648,
					0.9019607901573181,
					0.6627451181411743,
					1
				],
				"metallicFactor":0,
				"roughnessFactor":0.5
			}
		},
		{
			"doubleSided":true,
			"extensions":{
				"KHR_materials_specular":{
					"specularColorFactor":[
						0,
						0,
						0
					]
				},
				"KHR_materials_ior":{
					"ior":0
				}
			},
			"name":"TQ_ARD_edge",
			"pbrMetallicRoughness":{
				"baseColorTexture":{
					"index":1
				},
				"metallicFactor":0,
				"roughnessFactor":0.5
			}
		}
	],
	"meshes":[
		{
			"name":"TQ_ARD-geom",
			"primitives":[
				{
					"attributes":{
						"POSITION":0,
						"TEXCOORD_0":1,
						"NORMAL":2
					},
					"indices":3,
					"material":0
				},
				{
					"attributes":{
						"POSITION":4,
						"TEXCOORD_0":5,
						"NORMAL":6
					},
					"indices":7,
					"material":1
				},
				{
					"attributes":{
						"POSITION":8,
						"TEXCOORD_0":9,
						"NORMAL":10
					},
					"indices":11,
					"material":2
				}
			]
		}
	],
	"textures":[
		{
			"sampler":0,
			"source":0
		},
		{
			"sampler":0,
			"source":1
		}
	],
	"images":[
		{
			"bufferView":4,
			"mimeType":"image/jpeg",
			"name":"2-01"
		},
		{
			"bufferView":13,
			"mimeType":"image/png",
			"name":"TQ_ARD-I1"
		}
	],
	"accessors":[
		{
			"bufferView":0,
			"componentType":5126,
			"count":2024,
			"max":[
				0.1613755226135254,
				0.15167082846164703,
				0.04722572863101959
			],
			"min":[
				-0.0900534838438034,
				-0.15091665089130402,
				-0.04636178910732269
			],
			"type":"VEC3"
		},
		{
			"bufferView":1,
			"componentType":5126,
			"count":2024,
			"type":"VEC2"
		},
		{
			"bufferView":2,
			"componentType":5126,
			"count":2024,
			"type":"VEC3"
		},
		{
			"bufferView":3,
			"componentType":5123,
			"count":5193,
			"type":"SCALAR"
		},
		{
			"bufferView":5,
			"componentType":5126,
			"count":1847,
			"max":[
				0.1613755226135254,
				0.15064460039138794,
				0.04643116146326065
			],
			"min":[
				-0.09009863436222076,
				-0.14989042282104492,
				-0.045485205948352814
			],
			"type":"VEC3"
		},
		{
			"bufferView":6,
			"componentType":5126,
			"count":1847,
			"type":"VEC2"
		},
		{
			"bufferView":7,
			"componentType":5126,
			"count":1847,
			"type":"VEC3"
		},
		{
			"bufferView":8,
			"componentType":5123,
			"count":5193,
			"type":"SCALAR"
		},
		{
			"bufferView":9,
			"componentType":5126,
			"count":3008,
			"max":[
				0.1613755226135254,
				0.15167082846164703,
				0.04722572863101959
			],
			"min":[
				-0.09009863436222076,
				-0.15091665089130402,
				-0.04636178910732269
			],
			"type":"VEC3"
		},
		{
			"bufferView":10,
			"componentType":5126,
			"count":3008,
			"type":"VEC2"
		},
		{
			"bufferView":11,
			"componentType":5126,
			"count":3008,
			"type":"VEC3"
		},
		{
			"bufferView":12,
			"componentType":5123,
			"count":7296,
			"type":"SCALAR"
		}
	],
	"bufferViews":[
		{
			"buffer":0,
			"byteLength":24288,
			"byteOffset":0,
			"target":34962
		},
		{
			"buffer":0,
			"byteLength":16192,
			"byteOffset":24288,
			"target":34962
		},
		{
			"buffer":0,
			"byteLength":24288,
			"byteOffset":40480,
			"target":34962
		},
		{
			"buffer":0,
			"byteLength":10386,
			"byteOffset":64768,
			"target":34963
		},
		{
			"buffer":0,
			"byteLength":391536,
			"byteOffset":75156
		},
		{
			"buffer":0,
			"byteLength":22164,
			"byteOffset":466692,
			"target":34962
		},
		{
			"buffer":0,
			"byteLength":14776,
			"byteOffset":488856,
			"target":34962
		},
		{
			"buffer":0,
			"byteLength":22164,
			"byteOffset":503632,
			"target":34962
		},
		{
			"buffer":0,
			"byteLength":10386,
			"byteOffset":525796,
			"target":34963
		},
		{
			"buffer":0,
			"byteLength":36096,
			"byteOffset":536184,
			"target":34962
		},
		{
			"buffer":0,
			"byteLength":24064,
			"byteOffset":572280,
			"target":34962
		},
		{
			"buffer":0,
			"byteLength":36096,
			"byteOffset":596344,
			"target":34962
		},
		{
			"buffer":0,
			"byteLength":14592,
			"byteOffset":632440,
			"target":34963
		},
		{
			"buffer":0,
			"byteLength":767,
			"byteOffset":647032
		}
	],
	"samplers":[
		{
			"magFilter":9729,
			"minFilter":9987
		}
	],
	"buffers":[
		{
			"byteLength":647800,
			"uri":"data:application/octet-stream;base64,"
		}
	]
}
